<?xml version="1.0" encoding="UTF-8" standalone="no"?>
      <svg id="mySvg" class="svg-over-circle bsb-logo" xmlns="http://www.w3.org/2000/svg" xmlns:xlink="http://www.w3.org/1999/xlink" style="isolation:isolate" viewBox="1067.507 554.408 85.141 73.037" width="85.141pt" height="73.037pt"><g><g><path d=" M 1110.077 614.539 L 1069.103 573.565 L 1072.296 595.921 L 1110.077 614.539 Z " fill="rgb(0,0,0)"/><path d=" M 1110.077 614.539 L 1151.052 573.565 L 1147.327 595.921 L 1110.077 614.539 Z " fill="rgb(0,0,0)"/><path d=" M 1068.571 560.794 L 1069.635 568.776 L 1110.077 609.218 L 1150.519 568.776 L 1151.584 560.794 L 1109.547 595.568 L 1068.571 560.794 Z " fill="rgb(0,0,0)"/><path d=" M 1152.648 554.408 L 1125.107 568.56 L 1115.422 559.281 L 1109.27 559.281 L 1101.586 559.281 L 1093.049 565.494 L 1103.16 565.494 L 1093.858 569.373 L 1067.507 554.408 L 1152.648 554.408 Z " fill="rgb(0,0,0)"/></g><g><path d=" M 1108.192 618.487 L 1105.857 618.487 L 1105.763 618.921 L 1106.699 618.921 L 1106.699 621.208 L 1107.242 621.208 L 1107.242 618.921 L 1108.099 618.921 L 1108.192 618.487 Z  M 1111.055 618.487 L 1110.513 618.487 L 1110.513 619.685 L 1109.034 619.685 L 1109.034 618.487 L 1108.492 618.487 L 1108.492 621.208 L 1109.034 621.208 L 1109.034 620.07 L 1110.513 620.07 L 1110.513 621.208 L 1111.055 621.208 L 1111.055 618.487 Z  M 1113.529 618.487 L 1111.449 618.487 L 1111.449 621.208 L 1113.548 621.208 L 1113.593 620.793 L 1111.987 620.793 L 1111.987 620.07 L 1113.507 620.07 L 1113.541 619.681 L 1111.987 619.681 L 1111.987 618.921 L 1113.593 618.921 L 1113.529 618.487 Z " fill-rule="evenodd" fill="rgb(0,0,0)"/><path d=" M 1071.492 626.516 C 1071.492 626.703 1071.405 626.753 1071.217 626.753 L 1069.221 626.753 L 1069.221 625.487 L 1071.174 625.487 C 1071.405 625.487 1071.492 625.531 1071.492 625.749 L 1071.492 626.516 Z  M 1071.461 624.608 C 1071.461 624.757 1071.417 624.876 1071.155 624.876 L 1069.221 624.876 L 1069.221 623.597 L 1071.143 623.597 C 1071.33 623.597 1071.461 623.603 1071.461 623.859 L 1071.461 624.608 Z  M 1072.39 625.724 C 1072.39 625.468 1072.253 625.144 1071.754 625.144 C 1072.191 625.125 1072.315 624.87 1072.315 624.601 L 1072.315 623.591 C 1072.315 623.179 1072.134 622.911 1071.579 622.911 L 1068.342 622.911 L 1068.342 627.446 L 1071.766 627.446 C 1072.122 627.446 1072.39 627.252 1072.39 626.872 L 1072.39 625.724 Z  M 1076.476 626.529 L 1076.769 627.446 L 1077.717 627.446 L 1076.239 622.911 L 1074.305 622.911 L 1072.814 627.446 L 1073.762 627.446 L 1074.056 626.529 L 1076.476 626.529 Z  M 1074.966 623.572 L 1075.571 623.572 L 1076.282 625.88 L 1074.249 625.88 L 1074.966 623.572 Z  M 1079.114 626.753 L 1079.114 622.911 L 1078.204 622.911 L 1078.204 627.446 L 1081.503 627.446 L 1081.572 626.753 L 1079.114 626.753 Z  M 1085.333 626.435 C 1085.333 626.653 1085.315 626.76 1085.003 626.76 L 1083.025 626.76 L 1083.025 623.603 L 1084.996 623.603 C 1085.296 623.603 1085.333 623.697 1085.333 623.921 L 1085.333 626.435 Z  M 1086.231 623.616 C 1086.231 623.217 1085.957 622.911 1085.514 622.911 L 1082.133 622.911 L 1082.133 627.446 L 1085.508 627.446 C 1085.994 627.446 1086.231 627.127 1086.231 626.834 L 1086.231 623.616 Z  M 1091.427 623.616 C 1091.633 623.616 1091.677 623.647 1091.677 623.834 L 1091.677 624.308 L 1092.513 624.308 L 1092.513 623.441 C 1092.513 623.117 1092.307 622.911 1091.914 622.911 L 1089.35 622.911 C 1088.957 622.911 1088.726 623.135 1088.726 623.441 L 1088.726 625.281 C 1088.726 625.599 1088.914 625.761 1089.207 625.761 L 1091.415 625.761 C 1091.64 625.761 1091.671 625.811 1091.671 626.005 L 1091.671 626.497 C 1091.671 626.647 1091.652 626.753 1091.434 626.753 L 1088.801 626.753 L 1088.92 627.446 L 1091.908 627.446 C 1092.301 627.446 1092.538 627.221 1092.538 626.928 L 1092.538 625.786 C 1092.538 625.343 1092.413 625.125 1091.864 625.125 L 1089.619 625.125 L 1089.619 623.846 C 1089.619 623.659 1089.668 623.616 1089.868 623.616 L 1091.427 623.616 Z  M 1096.648 622.911 L 1093.18 622.911 L 1093.18 627.446 L 1096.679 627.446 L 1096.754 626.753 L 1094.078 626.753 L 1094.078 625.549 L 1096.611 625.549 L 1096.667 624.901 L 1094.078 624.901 L 1094.078 623.634 L 1096.754 623.634 L 1096.648 622.911 Z  M 1100.865 626.529 L 1101.158 627.446 L 1102.106 627.446 L 1100.628 622.911 L 1098.694 622.911 L 1097.204 627.446 L 1098.152 627.446 L 1098.445 626.529 L 1100.865 626.529 Z  M 1099.355 623.572 L 1099.961 623.572 L 1100.672 625.88 L 1098.638 625.88 L 1099.355 623.572 Z  M 1104.508 625.487 L 1105.743 625.487 L 1105.743 626.753 L 1103.716 626.753 C 1103.497 626.753 1103.435 626.697 1103.435 626.491 L 1103.435 623.896 C 1103.435 623.697 1103.485 623.634 1103.716 623.634 L 1106.267 623.634 L 1106.161 622.911 L 1103.067 622.911 C 1102.705 622.911 1102.531 623.098 1102.531 623.441 L 1102.531 626.766 C 1102.531 627.234 1102.848 627.446 1103.229 627.446 L 1105.362 627.446 L 1105.743 627.127 L 1105.743 627.446 L 1106.616 627.446 L 1106.616 624.844 L 1104.508 624.844 L 1104.508 625.487 Z  M 1110.521 627.446 C 1111.082 627.446 1111.419 627.159 1111.419 626.554 L 1111.419 622.911 L 1110.502 622.911 L 1110.502 626.491 C 1110.502 626.697 1110.427 626.753 1110.209 626.753 L 1108.45 626.753 C 1108.232 626.753 1108.176 626.703 1108.176 626.497 L 1108.176 622.911 L 1107.259 622.911 L 1107.259 626.554 C 1107.259 627.159 1107.595 627.446 1108.157 627.446 L 1110.521 627.446 Z  M 1112.985 626.753 L 1112.985 622.911 L 1112.074 622.911 L 1112.074 627.446 L 1115.374 627.446 L 1115.442 626.753 L 1112.985 626.753 Z  M 1116.915 626.753 L 1116.915 622.911 L 1116.004 622.911 L 1116.004 627.446 L 1119.304 627.446 L 1119.372 626.753 L 1116.915 626.753 Z  M 1124.955 626.516 C 1124.955 626.703 1124.868 626.753 1124.68 626.753 L 1122.684 626.753 L 1122.684 625.487 L 1124.637 625.487 C 1124.868 625.487 1124.955 625.531 1124.955 625.749 L 1124.955 626.516 Z  M 1124.924 624.608 C 1124.924 624.757 1124.88 624.876 1124.618 624.876 L 1122.684 624.876 L 1122.684 623.597 L 1124.606 623.597 C 1124.793 623.597 1124.924 623.603 1124.924 623.859 L 1124.924 624.608 Z  M 1125.853 625.724 C 1125.853 625.468 1125.716 625.144 1125.217 625.144 C 1125.653 625.125 1125.778 624.87 1125.778 624.601 L 1125.778 623.591 C 1125.778 623.179 1125.597 622.911 1125.042 622.911 L 1121.805 622.911 L 1121.805 627.446 L 1125.229 627.446 C 1125.585 627.446 1125.853 627.252 1125.853 626.872 L 1125.853 625.724 Z  M 1129.652 624.795 C 1129.652 624.932 1129.677 625.107 1129.384 625.107 L 1127.394 625.107 L 1127.394 623.597 L 1129.402 623.597 C 1129.571 623.597 1129.652 623.672 1129.652 623.846 L 1129.652 624.795 Z  M 1130.482 626.08 C 1130.463 625.724 1130.201 625.512 1129.789 625.493 C 1130.338 625.499 1130.531 625.163 1130.531 624.926 L 1130.531 623.666 C 1130.531 623.223 1130.357 622.911 1129.764 622.911 L 1126.495 622.911 L 1126.495 627.446 L 1127.394 627.446 L 1127.394 625.755 L 1128.934 625.755 C 1129.49 625.755 1129.558 625.986 1129.589 626.479 L 1129.645 627.446 L 1130.581 627.446 L 1130.482 626.08 Z  M 1132.134 622.911 L 1131.236 622.911 L 1131.236 627.446 L 1132.134 627.446 L 1132.134 622.911 Z  M 1134.785 625.487 L 1136.02 625.487 L 1136.02 626.753 L 1133.993 626.753 C 1133.775 626.753 1133.713 626.697 1133.713 626.491 L 1133.713 623.896 C 1133.713 623.697 1133.762 623.634 1133.993 623.634 L 1136.544 623.634 L 1136.438 622.911 L 1133.345 622.911 C 1132.983 622.911 1132.808 623.098 1132.808 623.441 L 1132.808 626.766 C 1132.808 627.234 1133.126 627.446 1133.507 627.446 L 1135.64 627.446 L 1136.02 627.127 L 1136.02 627.446 L 1136.894 627.446 L 1136.894 624.844 L 1134.785 624.844 L 1134.785 625.487 Z  M 1141.042 626.529 L 1141.335 627.446 L 1142.283 627.446 L 1140.805 622.911 L 1138.871 622.911 L 1137.38 627.446 L 1138.328 627.446 L 1138.622 626.529 L 1141.042 626.529 Z  M 1139.532 623.572 L 1140.137 623.572 L 1140.848 625.88 L 1138.815 625.88 L 1139.532 623.572 Z  M 1145.97 626.435 C 1145.97 626.653 1145.951 626.76 1145.639 626.76 L 1143.662 626.76 L 1143.662 623.603 L 1145.633 623.603 C 1145.932 623.603 1145.97 623.697 1145.97 623.921 L 1145.97 626.435 Z  M 1146.868 623.616 C 1146.868 623.217 1146.593 622.911 1146.15 622.911 L 1142.77 622.911 L 1142.77 627.446 L 1146.144 627.446 C 1146.631 627.446 1146.868 627.127 1146.868 626.834 L 1146.868 623.616 Z  M 1150.991 622.911 L 1147.523 622.911 L 1147.523 627.446 L 1151.022 627.446 L 1151.097 626.753 L 1148.421 626.753 L 1148.421 625.549 L 1150.953 625.549 L 1151.009 624.901 L 1148.421 624.901 L 1148.421 623.634 L 1151.097 623.634 L 1150.991 622.911 Z " fill-rule="evenodd" fill="rgb(0,0,0)"/></g></g></svg>