<?xml version="1.0" encoding="UTF-8" standalone="no"?>
<!-- Created with Inkscape (http://www.inkscape.org/) -->

<svg
   width="210mm"
   height="297mm"
   viewBox="0 0 210 297"
   version="1.1"
   id="svg1"
   inkscape:version="1.3.2 (091e20e, 2023-11-25)"
   sodipodi:docname="logo.svg"
   xml:space="preserve"
   xmlns:inkscape="http://www.inkscape.org/namespaces/inkscape"
   xmlns:sodipodi="http://sodipodi.sourceforge.net/DTD/sodipodi-0.dtd"
   xmlns="http://www.w3.org/2000/svg"
   xmlns:svg="http://www.w3.org/2000/svg"><sodipodi:namedview
     id="namedview1"
     pagecolor="#ffffff"
     bordercolor="#000000"
     borderopacity="0.25"
     inkscape:showpageshadow="2"
     inkscape:pageopacity="0.0"
     inkscape:pagecheckerboard="0"
     inkscape:deskcolor="#d1d1d1"
     inkscape:document-units="mm"
     inkscape:zoom="0.60937452"
     inkscape:cx="426.667"
     inkscape:cy="544.82094"
     inkscape:window-width="1392"
     inkscape:window-height="1027"
     inkscape:window-x="0"
     inkscape:window-y="92"
     inkscape:window-maximized="0"
     inkscape:current-layer="layer1" /><defs
     id="defs1" /><g
     inkscape:label="cellar_door_logo"
     inkscape:groupmode="layer"
     id="layer1"
     style="fill:#ff0000"><path
       id="path1"
       style="display:inline;opacity:1;fill:#000000;fill-opacity:1;stroke:none;stroke-width:0.846667"
       inkscape:label="door"
       d="M 56.777413 56.134041 C 55.440317 56.197008 54.612118 56.877849 54.474194 58.396952 L 62.195687 237.92811 C 62.560379 239.66632 63.643533 240.68567 65.743791 240.68867 L 139.56771 226.15002 C 140.70717 225.77793 141.62443 225.12012 141.75827 223.45509 L 155.80651 89.175952 C 155.88344 87.236644 155.72799 85.439941 153.94874 84.642896 L 58.27758 56.268917 C 57.725585 56.160832 57.223111 56.113053 56.777413 56.134041 z M 66.509635 66.873954 C 66.836088 66.878255 67.187255 66.908255 67.564351 66.965938 L 143.05173 90.107678 L 88.112968 88.289701 L 93.472847 207.77285 L 132.69888 218.77683 L 74.747892 229.86297 C 72.295852 230.3245 70.778745 229.51411 70.135771 227.51531 L 62.849394 70.151274 C 63.149468 68.088985 64.22447 66.843848 66.509635 66.873954 z M 101.37314 144.72037 A 3.4347587 3.5307016 0 0 1 104.80807 148.2509 A 3.4347587 3.5307016 0 0 1 101.37314 151.78195 A 3.4347587 3.5307016 0 0 1 97.938725 148.2509 A 3.4347587 3.5307016 0 0 1 101.37314 144.72037 z " /></g></svg>
