<?xml version="1.0" encoding="UTF-8" standalone="no"?>
<svg
   version="1.0"
   width="1024.000000pt"
   height="1024.000000pt"
   viewBox="0 0 1024.000000 1024.000000"
   preserveAspectRatio="xMidYMid meet"
   id="svg10"
   xml:space="preserve"
   xmlns="http://www.w3.org/2000/svg"
   xmlns:svg="http://www.w3.org/2000/svg"><defs
     id="defs10" /><g
     transform="matrix(0.1,0,0,-0.1,0,1024)"
     fill="#000000"
     stroke="none"
     id="g10"
     style="display:inline"><g
       id="g43"
       style="display:inline"
       transform="translate(134.89356,15.697159)"><path
         style="font-variation-settings:normal;display:inline;opacity:1;vector-effect:none;fill:#be292e;fill-opacity:1;stroke:none;stroke-width:186.948;stroke-linecap:butt;stroke-linejoin:miter;stroke-miterlimit:4;stroke-dasharray:none;stroke-dashoffset:0;stroke-opacity:1;-inkscape-stroke:none"
         d="M 4050.8079,5552.5871 C 3753.0575,5423.5326 3626.0513,5312.1835 3469.5803,5197.779 l 251.6052,-178.2531 C 2510.0646,5509.387 1838.9385,4451.3065 2226.4662,3738.0278 c 38.6958,-245.5727 -142.7239,-343.9038 -23.9176,-687.0819 -29.8183,-193.3088 -50.1468,-405.3809 -107.2641,-544.7135 l 509.6307,-686.1574 850.4126,-620.9264 984.4825,-386.96976 932.7621,-98.9517 1227.58,214.8323 898.5667,466.31346 637.8823,570.1563 518.7687,953.3422 83.113,389.4246 -97.8763,608.4588 54.0003,434.4567 -226.1271,616.1188 -472.5054,397.2491 -259.0624,80.5914 -372.0694,12.4285 -509.8416,301.5187 -214.3189,57.372 -198.2788,-458.3607 -428.6188,-415.113 -628.4969,-176.2798 -558.7887,89.7066 -399.9008,211.2711 -351.4907,356.8477 z"
         id="path56" /><path
         style="display:inline;font-variation-settings:normal;opacity:1;vector-effect:none;fill:#000000;fill-opacity:1;stroke:none;stroke-width:124.761;stroke-linecap:butt;stroke-linejoin:miter;stroke-miterlimit:4;stroke-dasharray:none;stroke-dashoffset:0;stroke-opacity:1;-inkscape-stroke:none"
         d="m 7236.1395,1584.3564 -409.5668,-522.3786 c 637.5038,228.8904 746.3799,343.3773 1150.3851,758.0971 -445.0629,-173.6899 -298.3054,-329.5006 -740.8183,-235.7185 z"
         id="path64"
         transform="translate(0,-1.59e-4)" /><path
         style="display:inline;font-variation-settings:normal;opacity:1;vector-effect:none;fill:#000000;fill-opacity:1;stroke:none;stroke-width:124.761;stroke-linecap:butt;stroke-linejoin:miter;stroke-miterlimit:4;stroke-dasharray:none;stroke-dashoffset:0;stroke-opacity:1;-inkscape-stroke:none"
         d="m 3316.4507,1691.7858 438.8495,-629.808 c -637.5038,228.8904 -746.3799,343.3773 -1150.3851,758.0971 445.0629,-173.6899 269.0226,-222.0712 711.5356,-128.2891 z"
         id="path61"
         transform="translate(0,-1.59e-4)" /><path
         style="font-variation-settings:normal;display:inline;opacity:1;vector-effect:none;fill:#8f2628;fill-opacity:1;stroke:none;stroke-width:186.948;stroke-linecap:butt;stroke-linejoin:miter;stroke-miterlimit:4;stroke-dasharray:none;stroke-dashoffset:0;stroke-opacity:1;-inkscape-stroke:none"
         d="m 7833.0701,2277.0639 120.9034,-504.9219 701.3966,1145.7294 83.113,389.4246 -97.8763,608.4588 54.0003,434.4567 -226.1271,616.1188 -472.5054,397.2491 -259.0624,80.5914 -372.0694,12.4285 -509.8416,301.5187 -214.3189,57.372 -198.2788,-458.3607 -428.6188,-415.113 c 299.5561,-74.7137 700.7235,34.252 1081.4014,84.2366 650.3119,85.3887 1240.8297,-1.3463 1162.8427,-1469.9416 228.2713,-537.7573 218.1633,-591.2261 -424.9587,-1279.2474 z"
         id="path57" /><path
         id="path14-5"
         d="m 4209.6283,6023.1073 -234.4486,-130.9567 c -92.251,-53.623 -199.127,-109.4347 -592.8815,-314.0781 -92.2509,-47.0571 -182.2521,-96.303 -199.1271,-108.3412 -59.4324,-38.5404 -143.0789,5.6767 -328.5036,-18.6035 -367.8789,-48.1513 -759.3834,-338.1541 -923.6353,-683.9687 -111.3764,-232.0022 -128.2515,-481.5142 -54.0006,-774.7994 l 29.2506,-117.0958 -52.8761,-175.0958 c -46.1254,-158.6809 -51.7504,-187.1339 -51.7504,-290.0027 0,-239.6625 76.5008,-476.0421 293.6284,-903.9331 177.7519,-352.3804 256.5029,-458.5325 509.6305,-686.1574 286.8785,-260.4552 433.1299,-370.9846 687.3825,-526.3824 376.8793,-227.6246 703.1331,-365.51251 1147.5129,-481.51359 181.1272,-47.0571 259.878,-61.28362 511.8805,-89.73694 130.5015,-15.3207 595.1318,-15.3207 735.7583,0 676.1324,73.32179 1282.5145,297.66333 1811.2703,671.93093 254.2527,180.5678 421.8797,330.4936 637.8823,570.1564 145.1265,160.8692 300.378,428.9851 448.8797,778.0827 104.6262,244.0398 142.8767,387.3997 153.002,564.6841 7.875,141.1714 -3.3752,207.927 -70.876,416.9478 -39.3753,124.7556 -40.5006,132.4162 -27.0003,191.5112 50.6253,223.2471 58.5003,293.2855 54.0005,434.4568 -7.8752,225.436 -75.3757,409.2866 -226.1273,616.1188 -130.5017,179.4736 -290.2538,314.0785 -472.5054,397.2491 -159.7516,72.2271 -244.1279,89.7364 -451.1302,90.8309 l -180.002,2.1889 -90.0008,61.2834 c -49.5006,33.9249 -128.2516,84.2649 -174.3772,110.5293 -93.3761,53.6232 -712.7833,371.0332 -784.7841,401.6752 -706.7886,-791.5654 -1412.4338,-1394.0169 -2106.052,-6.9802 z"
         style="display:inline;fill:none;fill-opacity:1;stroke:#000000;stroke-width:197.629;stroke-dasharray:none;stroke-opacity:1"
         transform="translate(0,-1.59e-4)" /><g
         id="g3"
         style="display:inline;fill:#ffffff;fill-opacity:1;stroke:#000000;stroke-opacity:1"
         transform="matrix(1.5389308,0,0,1.5389308,-2865.8937,-3314.8239)"><path
           style="font-variation-settings:normal;display:inline;opacity:1;vector-effect:none;fill:#feca9c;fill-opacity:1;stroke:none;stroke-width:124.07;stroke-linecap:butt;stroke-linejoin:miter;stroke-miterlimit:4;stroke-dasharray:none;stroke-dashoffset:0;stroke-opacity:1;-inkscape-stroke:none;stop-color:#000000;stop-opacity:1"
           d="m 7030.7693,3305.5196 c -210.5608,1226.1642 -984.4147,1232.3988 -2188.4036,1112.6635 -117.5354,323.7341 -436.1007,408.8886 -915.8745,516.1557 -285.1384,-429.0577 -128.6527,-605.05 346.3752,-598.5069 290.5425,-211.5651 608.2235,-381.7603 874.7219,-623.2326 661.7133,-356.7567 1553.9444,-736.3373 1883.181,-407.0797 z"
           id="path17" /><path
           style="font-variation-settings:normal;display:inline;opacity:1;vector-effect:none;fill:#d4744b;fill-opacity:1;stroke:none;stroke-width:124.07;stroke-linecap:butt;stroke-linejoin:miter;stroke-miterlimit:4;stroke-dasharray:none;stroke-dashoffset:0;stroke-opacity:1;-inkscape-stroke:none;stop-color:#000000;stop-opacity:1"
           d="m 7030.7693,3305.5196 -78.5632,328.0994 c -191.1932,-447.9347 -1309.7865,62.6526 -1623.3445,237.3161 l -181.2733,-158.3358 c 797.1842,-355.0175 1644.9498,-775.5012 1883.181,-407.0797 z"
           id="path70"
           transform="translate(0,-1.59e-4)" /><path
           style="font-variation-settings:normal;display:inline;opacity:1;vector-effect:none;fill:#ffffff;fill-opacity:1;stroke:none;stroke-width:124.07;stroke-linecap:butt;stroke-linejoin:miter;stroke-miterlimit:4;stroke-dasharray:none;stroke-dashoffset:0;stroke-opacity:1;-inkscape-stroke:none;stop-color:#000000;stop-opacity:1"
           d="m 6818.3378,3806.8069 c 15.2985,333.9101 -446.8938,846.971 -1225.9102,290.5838 197.4738,379.8773 820.0831,118.5282 1225.9102,-290.5838 z"
           id="path67"
           transform="translate(0,-1.59e-4)" /><path
           style="font-variation-settings:normal;display:inline;opacity:1;vector-effect:none;fill:none;fill-opacity:1;stroke:#000000;stroke-width:124.07;stroke-linecap:butt;stroke-linejoin:miter;stroke-miterlimit:4;stroke-dasharray:none;stroke-dashoffset:0;stroke-opacity:1;-inkscape-stroke:none;stop-color:#000000;stop-opacity:1"
           d="m 7030.7693,3305.5196 c -210.5608,1226.1642 -984.4147,1232.3988 -2188.4036,1112.6635 -117.5354,323.7341 -436.1007,408.8886 -915.8745,516.1557 -285.1384,-429.0577 -128.6527,-605.05 346.3752,-598.5069 290.5425,-211.5651 608.2235,-381.7603 874.7219,-623.2326 661.7133,-356.7567 1553.9444,-736.3373 1883.181,-407.0797 z"
           id="path68"
           transform="translate(0,-1.59e-4)" /><path
           style="display:inline;opacity:1;fill:#ffffff;fill-opacity:1;stroke:#000000;stroke-width:132;stroke-dasharray:none;stroke-opacity:1"
           d="m 3805.3543,4700.5767 460.3474,-104.3789"
           id="path19" /><path
           style="display:inline;font-variation-settings:normal;opacity:1;vector-effect:none;fill:none;fill-opacity:1;stroke:#000000;stroke-width:190.935;stroke-linecap:butt;stroke-linejoin:miter;stroke-miterlimit:4;stroke-dasharray:none;stroke-dashoffset:0;stroke-opacity:1;-inkscape-stroke:none;stop-color:#000000;stop-opacity:1"
           d="m 6797.548,3659.3512 c 379.9771,554.3726 648.3394,544.5747 918.8885,545.8298"
           id="path21"
           transform="matrix(0.64980178,0,0,0.64980178,1862.2629,2153.9784)" /><path
           style="display:inline;opacity:1;fill:none;fill-opacity:1;stroke:#000000;stroke-width:203.139;stroke-dasharray:none;stroke-opacity:1"
           d="m 7215.3385,4112.5228 87.9741,346.8884"
           id="path22"
           transform="matrix(0.64980178,0,0,0.64980178,1862.2629,2153.9784)" /><path
           style="display:inline;opacity:1;fill:none;fill-opacity:1;stroke:#000000;stroke-width:203.139;stroke-dasharray:none;stroke-opacity:1"
           d="m 6939.3174,3847.0178 c 474.1594,16.3019 1119.6983,-133.4123 1799.1657,-539.7221"
           id="path30"
           transform="matrix(0.64980178,0,0,0.64980178,1862.2629,2153.9784)" /><path
           style="display:inline;opacity:1;fill:none;fill-opacity:1;stroke:#000000;stroke-width:203.139;stroke-dasharray:none;stroke-opacity:1"
           d="m 8655.3703,2917.8712 c -535.1165,418.7225 -1101.3034,694.3906 -1695.793,598.3726"
           id="path31"
           transform="matrix(0.64980178,0,0,0.64980178,1862.2629,2153.9784)" /><path
           style="display:inline;opacity:1;fill:none;fill-opacity:1;stroke:#000000;stroke-width:203.139;stroke-dasharray:none;stroke-opacity:1"
           d="m 8286.4811,2163.2435 c -281.4098,755.8686 -709.025,1172.5412 -1252.1587,1321.2103"
           id="path32"
           transform="matrix(0.64980178,0,0,0.64980178,1862.2629,2153.9784)" /></g><g
         id="g2"
         style="display:inline;fill:#ffffff;fill-opacity:1;stroke:#000000;stroke-opacity:1"
         transform="matrix(1.5389308,0,0,1.5389308,-2865.8937,-3314.8239)"><path
           style="display:inline;fill:#feca9c;fill-opacity:1;stroke:none;stroke-opacity:1;font-variation-settings:normal;opacity:1;vector-effect:none;stroke-width:124.07;stroke-linecap:butt;stroke-linejoin:miter;stroke-miterlimit:4;stroke-dasharray:none;stroke-dashoffset:0;-inkscape-stroke:none;stop-color:#000000;stop-opacity:1"
           d="m 3554.9415,3336.6664 c 42.163,369.0607 223.8468,716.1837 717.9249,999.1653 559.0303,63.6127 1098.5659,143.4036 1721.4066,419.7175 240.6971,-81.1774 357.2762,-242.1451 448.0256,-419.7175 C 5424.9532,4618.6723 5120,2852.7416 3554.9415,3336.6664"
           id="path15"
           transform="translate(9.7470268e-6,4.1652295e-4)" /><path
           style="display:inline;fill:#d4744b;fill-opacity:1;stroke:none;stroke-opacity:1;font-variation-settings:normal;opacity:1;vector-effect:none;stroke-width:124.07;stroke-linecap:butt;stroke-linejoin:miter;stroke-miterlimit:4;stroke-dasharray:none;stroke-dashoffset:0;-inkscape-stroke:none;stop-color:#000000;stop-opacity:1"
           d="m 3554.9415,3336.6664 c 176.7045,501.1839 79.2504,70.7683 290.9061,117.2544 1353.6379,297.3002 1212.5735,645.9416 1746.58,643.4691 -651.8879,-272.6266 -607.3211,-979.9932 -2037.4861,-760.7239"
           id="path69"
           transform="translate(9.7470268e-6,4.1652295e-4)" /><path
           style="font-variation-settings:normal;display:inline;opacity:1;vector-effect:none;fill:#feffff;fill-opacity:1;stroke:none;stroke-width:124.07;stroke-linecap:butt;stroke-linejoin:miter;stroke-miterlimit:4;stroke-dasharray:none;stroke-dashoffset:0;stroke-opacity:1;-inkscape-stroke:none;stop-color:#000000;stop-opacity:1"
           d="m 4383.4899,4348.7095 c 559.0303,63.6127 987.9424,130.5258 1610.7831,406.8397 94.9557,-32.0247 170.5945,-76.4674 232.9513,-129.4486 -1924.7605,-734.1942 -1723.2275,-243.2018 -2435.5909,-797.3104 81.2699,365.5902 284.0908,347.7717 591.8565,519.9193 z"
           id="path65"
           transform="translate(0,2.5e-4)" /><path
           style="font-variation-settings:normal;display:inline;opacity:1;vector-effect:none;fill:none;fill-opacity:1;stroke:#000000;stroke-width:124.07;stroke-linecap:butt;stroke-linejoin:miter;stroke-miterlimit:4;stroke-dasharray:none;stroke-dashoffset:0;stroke-opacity:1;-inkscape-stroke:none;stop-color:#000000;stop-opacity:1"
           d="m 3554.9415,3336.6664 c 42.163,369.0607 223.8468,716.1837 717.9249,999.1653 559.0303,63.6127 1098.5659,143.4036 1721.4066,419.7175 240.6971,-81.1774 357.2762,-242.1451 448.0256,-419.7175 C 5424.9532,4618.6723 5120,2852.7416 3554.9415,3336.6664"
           id="path66"
           transform="translate(0,2.5e-4)" /><path
           style="display:inline;opacity:1;fill:#000000;fill-opacity:1;stroke:#000000;stroke-width:203.139;stroke-dasharray:none;stroke-opacity:1"
           d="m 3176.7044,4278.7816 -465.4241,-81.5453"
           id="path23"
           transform="matrix(0.64980178,0,0,0.64980178,1862.2629,2153.9784)" /><path
           style="display:inline;opacity:1;fill:#000000;fill-opacity:1;stroke:#000000;stroke-width:203.139;stroke-dasharray:none;stroke-opacity:1"
           d="m 3176.7044,4278.7816 90.7044,236.2425"
           id="path24"
           transform="matrix(0.64980178,0,0,0.64980178,1862.2629,2153.9784)" /><path
           style="display:inline;opacity:1;fill:none;fill-opacity:1;stroke:#000000;stroke-width:203.139;stroke-dasharray:none;stroke-opacity:1"
           d="m 2959.2884,3778.1085 c -384.5647,-37.5831 -769.1293,-164.6907 -1153.6939,-460.73"
           id="path25"
           transform="matrix(0.64980178,0,0,0.64980178,1862.2629,2153.9784)" /><path
           style="display:inline;opacity:1;fill:none;fill-opacity:1;stroke:#000000;stroke-width:203.139;stroke-dasharray:none;stroke-opacity:1"
           d="M 3030.2576,3545.7715 C 2555.2267,3438.657 2072.414,3141.0587 1912.9124,2901.8621"
           id="path26"
           transform="matrix(0.64980178,0,0,0.64980178,1862.2629,2153.9784)" /><path
           style="display:inline;opacity:1;fill:none;fill-opacity:1;stroke:#000000;stroke-width:203.139;stroke-dasharray:none;stroke-opacity:1"
           d="m 2243.0725,2233.8264 c 222.4269,586.4222 809.5269,1123.8946 1062.6809,1157.9669"
           id="path27"
           transform="matrix(0.64980178,0,0,0.64980178,1862.2629,2153.9784)" /><path
           style="display:inline;opacity:1;fill:none;fill-opacity:1;stroke:#000000;stroke-width:203.139;stroke-dasharray:none;stroke-opacity:1"
           d="m 2038.634,2620.1208 c 164.5449,355.1188 597.877,612.4968 1044.1765,865.1594"
           id="path28"
           transform="matrix(0.64980178,0,0,0.64980178,1862.2629,2153.9784)" /></g><path
         style="display:inline;opacity:1;mix-blend-mode:normal;fill:none;fill-opacity:1;stroke:#000000;stroke-width:203.139;stroke-dasharray:none;stroke-opacity:1"
         d="m 5271.0084,3601.9277 -8.2078,791.2062"
         id="path29"
         transform="translate(0,-1.59e-4)" /><path
         style="font-variation-settings:normal;display:inline;opacity:1;vector-effect:none;fill:#feca9c;fill-opacity:1;stroke:none;stroke-width:190.935;stroke-linecap:butt;stroke-linejoin:miter;stroke-miterlimit:4;stroke-dasharray:none;stroke-dashoffset:0;stroke-opacity:1;-inkscape-stroke:none;stop-color:#000000;stop-opacity:1"
         d="M 6652.5561,5862.1549 C 6344.6132,4586.658 4917.6164,4435.5872 4257.9925,5208.9641 c -78.985,92.6061 -218.6162,183.2114 -195.0348,279.1103 24.6235,100.1367 268.379,134.3717 269.3239,257.7434 l -98.839,271.9082 c 310.7188,-1156.0126 1825.7198,-930.8342 2087.0878,-6.326 z"
         id="path54" /><path
         style="font-variation-settings:normal;display:inline;opacity:1;vector-effect:none;fill:none;fill-opacity:1;stroke:#000000;stroke-width:190.935;stroke-linecap:butt;stroke-linejoin:miter;stroke-miterlimit:4;stroke-dasharray:none;stroke-dashoffset:0;stroke-opacity:1;-inkscape-stroke:none;stop-color:#000000;stop-opacity:1"
         d="M 6652.5561,5862.1552 C 6272.2848,4287.0748 4289.9772,4524.3961 3871.0627,5835.4392 l 322.5042,162.2285 39.8757,20.0586 c 310.7188,-1156.0126 1825.7198,-930.8343 2087.0878,-6.3261 z"
         id="path20" /><g
         id="g47"
         style="display:inline;fill:#ffffff;fill-opacity:1;stroke:#000000;stroke-opacity:1"
         transform="matrix(1.5389308,0,0,1.5389308,-2865.8937,-3314.8234)"><path
           id="path55"
           style="font-variation-settings:normal;display:inline;opacity:1;vector-effect:none;fill:none;fill-opacity:1;stroke:#000000;stroke-width:121.479;stroke-linecap:butt;stroke-linejoin:miter;stroke-miterlimit:4;stroke-dasharray:none;stroke-dashoffset:0;stroke-opacity:1;-inkscape-stroke:none;stop-color:#000000;stop-opacity:1"
           d="m 4604.5584,7610.7247 c 187.3781,703.2878 1214.9094,643.7899 1354.1216,-1.6428 -60.2162,-1517.3735 322.4908,-1690.3454 -633.2432,-2076.7876 -262.4891,-13.7017 -519.4939,151.2417 -720.8779,456.6031 -34.0946,303.3432 0.5821,987.1857 0.5821,987.1857 0,0 0.037,479.4728 -0.5826,634.6416 z"
           transform="translate(0,3.41e-4)" /><path
           id="path53"
           style="display:inline;opacity:1;fill:#feffff;fill-opacity:1;stroke:none;stroke-width:121.479;stroke-dasharray:none;stroke-opacity:1"
           d="m 4604.5584,7610.7247 c 187.3781,703.2878 1214.9094,643.7899 1354.1216,-1.6428 -60.2162,-1517.3735 322.4908,-1690.3454 -633.2432,-2076.7876 -262.4891,-13.7017 -519.4939,151.2417 -720.8779,456.6031 -34.0946,303.3432 0.5821,987.1857 0.5821,987.1857 0,0 0.037,479.4728 -0.5826,634.6416 z"
           transform="translate(0,3.41e-4)" /><path
           id="path50"
           style="display:inline;opacity:1;fill:#feca9c;fill-opacity:1;stroke:none;stroke-width:112.721;stroke-dasharray:none;stroke-opacity:1"
           d="m 4766.6661,7511.5347 c 189.6626,658.2191 1246.1042,642.7441 1192.0139,97.5469 -54.8245,-1434.9595 295.9933,-1711.3771 -574.1651,-2076.8302 -238.986,-12.9575 -421.9551,164.0886 -605.3073,452.8647 -31.0418,286.8676 -12.0111,926.2466 -12.0111,926.2466 0,0 0.034,453.431 -0.5304,600.172 z"
           transform="translate(0,3.41e-4)" /><path
           id="path51"
           style="display:inline;opacity:1;fill:#824527;fill-opacity:1;stroke:none;stroke-width:112.721;stroke-dasharray:none;stroke-opacity:1"
           d="m 5983.5281,6360.8452 c 5.2942,-422.8504 -77.9603,-609.7596 -599.0132,-828.5938 -31.0119,-1.6814 -734.2702,138.8835 -631.4975,797.0145 203.3401,6.4415 1410.0053,27.1874 1230.5107,31.5793 z"
           transform="translate(0,3.41e-4)" /><path
           id="rect12"
           style="font-variation-settings:normal;display:inline;opacity:1;vector-effect:none;fill:none;fill-opacity:1;stroke:#000000;stroke-width:121.479;stroke-linecap:butt;stroke-linejoin:miter;stroke-miterlimit:4;stroke-dasharray:none;stroke-dashoffset:0;stroke-opacity:1;-inkscape-stroke:none;stop-color:#000000;stop-opacity:1"
           d="m 4604.5584,7610.7247 c 187.3781,703.2878 1214.9094,643.7899 1354.1216,-1.6428 -60.2162,-1517.3735 322.4908,-1690.3454 -633.2432,-2076.7876 -262.4891,-13.7017 -519.4939,151.2417 -720.8779,456.6031 -34.0946,303.3432 0.5821,987.1857 0.5821,987.1857 0,0 0.037,479.4728 -0.5826,634.6416 z" /><path
           id="path12"
           style="display:inline;opacity:1;fill:#feca9c;fill-opacity:1;stroke:#000000;stroke-width:124.07;stroke-dasharray:none;stroke-opacity:1"
           d="m 4598.2114,6810.246 c -105.2802,-1e-4 -214.3044,107.7161 -214.3044,242.4748 0,134.7587 46.6036,226.3835 221.1566,217.1737 0,-111.49 -6.8522,-394.6211 -6.8522,-459.6485 z" /><path
           id="path13"
           style="font-variation-settings:normal;display:inline;opacity:1;vector-effect:none;fill:#feca9c;fill-opacity:1;stroke:#000000;stroke-width:124.07;stroke-linecap:butt;stroke-linejoin:miter;stroke-miterlimit:4;stroke-dasharray:none;stroke-dashoffset:0;stroke-opacity:1;-inkscape-stroke:none;stop-color:#000000;stop-opacity:1"
           d="m 5971.7876,6810.246 c 105.2802,-1e-4 214.3044,107.7161 214.3044,242.4748 0,134.7587 -46.6036,226.3835 -221.1566,217.1737 0,-111.49 6.8522,-394.6211 6.8522,-459.6485 z" /></g><g
         id="g49"
         style="stroke:#000000;stroke-opacity:1"
         transform="matrix(1.5389308,0,0,1.5389308,-2865.8937,-3314.8238)"><path
           style="display:inline;opacity:1;fill:#000000;fill-opacity:1;stroke:#000000;stroke-width:132;stroke-dasharray:none;stroke-opacity:1"
           d="m 5282.0403,5530.166 v 812.1998"
           id="path33" /><path
           style="display:inline;opacity:1;fill:#000000;fill-opacity:1;stroke:#000000;stroke-width:170;stroke-dasharray:none;stroke-opacity:1"
           d="m 5073.9519,5580.6243 c -100.1418,258.7076 -131.6114,566.8462 -124.0698,761.7415"
           id="path34" /><path
           style="display:inline;opacity:1;fill:#000000;fill-opacity:1;stroke:#000000;stroke-width:170;stroke-dasharray:none;stroke-opacity:1"
           d="m 5505.915,5610.6229 c 100.1418,258.7076 131.6114,566.8462 124.0698,761.7415"
           id="path35" /></g><g
         id="g1"
         transform="matrix(1.5389308,0,0,1.5389308,-2865.8937,-3314.8238)"><g
           id="g5"
           style="display:inline"><path
             style="display:inline;opacity:1;fill:#000000;fill-opacity:1;stroke:none;stroke-width:170;stroke-dasharray:none;stroke-opacity:1"
             d="m 4233.1947,6911.5104 c -290.0122,-516.0777 438.3697,-297.6833 630.5647,-66.4396 90.0548,108.3514 364.7162,64.0949 423.6122,-42.314 284.0053,-513.1197 -909.6851,-857.8111 -1240.3259,-427.1057 -168.9476,220.0776 -39.844,481.0877 186.149,535.8593 z"
             id="path36" /><path
             style="display:inline;opacity:1;fill:#ff0000;fill-opacity:1;stroke:none;stroke-width:170;stroke-dasharray:none;stroke-opacity:1"
             d="m 5216.0403,6631.8605 c -207.5503,408.499 -625.7591,-361.7747 -1064.8937,-132.1794 377.2421,-349.4678 798.7355,-157.3153 1064.8937,132.1794 z"
             id="path38" /><path
             style="display:inline;opacity:1;fill:#ff0000;fill-opacity:1;stroke:none;stroke-width:170;stroke-dasharray:none;stroke-opacity:1"
             d="m 5216.0403,6631.8605 c -207.5503,408.499 -625.7591,-361.7747 -1064.8937,-132.1794 377.2421,-349.4678 798.7355,-157.3153 1064.8937,132.1794 z"
             id="path6"
             transform="translate(9.7470268e-6,-7.0828397e-5)" /><path
             style="display:inline;opacity:1;fill:#ffffff;fill-opacity:1;stroke:none;stroke-width:170;stroke-dasharray:none;stroke-opacity:1"
             d="M 5216.0403,6631.8605 C 5008.49,7040.3595 4590.2812,6270.0858 4151.1466,6499.6811 4583.0507,6180.472 5008.49,6872.0695 5216.0403,6631.8605 Z"
             id="path49"
             transform="translate(0,-1.59e-4)" /><path
             style="font-variation-settings:normal;display:inline;opacity:1;vector-effect:none;fill:none;fill-opacity:1;stroke:#000000;stroke-width:81.07;stroke-linecap:butt;stroke-linejoin:miter;stroke-miterlimit:4;stroke-dasharray:none;stroke-dashoffset:0;stroke-opacity:1;-inkscape-stroke:none;stop-color:#000000;stop-opacity:1"
             d="m 5101.87,6823.8974 102.7011,216.6406"
             id="path59"
             transform="translate(0,-1.59e-4)" /></g><g
           id="g4"
           style="display:inline"><path
             style="display:inline;opacity:1;fill:#000000;fill-opacity:1;stroke:none;stroke-width:261.618;stroke-dasharray:none;stroke-opacity:1"
             d="m 6860.0723,7321.5121 c 446.3087,-794.2078 -674.6206,-458.114 -970.3954,-102.2459 -138.5881,166.7453 -561.273,98.6376 -651.9098,-65.1183 -437.0645,-789.6557 1399.9424,-1320.1119 1908.7757,-657.2861 259.9986,338.6842 61.3171,740.3606 -286.4705,824.6503 z"
             id="path37"
             transform="matrix(0.64980178,0,0,0.64980178,1862.2629,2153.9784)" /><path
             style="display:inline;opacity:1;fill:#ff0000;fill-opacity:1;stroke:none;stroke-width:261.618;stroke-dasharray:none;stroke-opacity:1"
             d="m 5367.2032,6891.1503 c 319.4055,628.6517 962.9999,-556.7462 1638.7976,-203.415 -580.5494,-537.8067 -1229.1986,-242.0973 -1638.7976,203.415 z"
             id="path39"
             transform="matrix(0.64980178,0,0,0.64980178,1862.2629,2153.9784)" /><path
             style="font-variation-settings:normal;display:inline;opacity:1;vector-effect:none;fill:none;fill-opacity:1;stroke:#000000;stroke-width:124.761;stroke-linecap:butt;stroke-linejoin:miter;stroke-miterlimit:4;stroke-dasharray:none;stroke-dashoffset:0;stroke-opacity:1;-inkscape-stroke:none;stop-color:#000000;stop-opacity:1"
             d="m 5560.2003,7186.4075 -158.0499,333.3948"
             id="path58"
             transform="matrix(0.64980178,0,0,0.64980178,1862.2629,2153.9784)" /><path
             id="path60"
             style="display:inline;opacity:0.5;mix-blend-mode:darken;fill:#be292e;fill-opacity:1;stroke:none;stroke-width:261.618;stroke-dasharray:none;stroke-opacity:1"
             d="m 5560.2003,6860.0741 c 228.8824,-37.4477 794.7172,-611.0595 1445.7837,-172.3515 -580.5488,-537.8061 -1229.1821,-242.0844 -1638.7808,203.4274 49.907,57.7603 128.8062,-20.5736 192.9971,-31.0759 z"
             transform="matrix(0.64980178,0,0,0.64980178,1862.2629,2153.9784)" /></g></g><path
         id="path40"
         style="display:inline;opacity:1;stroke-width:289.965"
         d="m 4952.6899,7719.7876 a 166.79744,164.4444 0 0 0 -166.7975,-164.4443 166.79744,164.4444 0 0 0 -166.7973,164.4443 166.79744,164.4444 0 0 0 166.7973,164.4444 166.79744,164.4444 0 0 0 166.7975,-164.4444 z" /><path
         style="display:inline;opacity:1;fill:#000000;fill-opacity:1;stroke:none;stroke-width:261.618;stroke-dasharray:none;stroke-opacity:1"
         d="m 4857.3769,7868.3644 202.9498,-43.5571 c 90.494,79.0442 63.9698,149.7301 79.6383,223.4296 -230.5494,5.747 -442.2991,199.5221 -670.2889,24.3341 l 4.4243,-225.6419 c 131.2617,49.8547 197.7237,42.5679 255.5627,27.677"
         id="path41" /><path
         id="path42"
         style="display:inline;opacity:1;stroke-width:289.965"
         d="m 5560.2003,7719.7876 a 166.79744,164.4444 0 0 1 166.7975,-164.4443 166.79744,164.4444 0 0 1 166.7973,164.4443 166.79744,164.4444 0 0 1 -166.7973,164.4444 166.79744,164.4444 0 0 1 -166.7975,-164.4444 z" /><path
         style="display:inline;opacity:1;fill:#000000;fill-opacity:1;stroke:none;stroke-width:261.618;stroke-dasharray:none;stroke-opacity:1"
         d="m 5655.5132,7868.3644 -202.9497,-43.5571 c -90.4941,79.0442 -63.9698,149.7301 -79.6383,223.4296 230.5494,5.747 442.299,199.5221 670.2888,24.3341 l -4.4242,-225.6419 c -131.2617,49.8547 -197.7237,42.5679 -255.5627,27.677"
         id="path43" /></g></g></svg>
