<?xml version="1.0" encoding="UTF-8" standalone="no"?>
<!-- Created with Inkscape (http://www.inkscape.org/) -->

<svg
   width="41.808865mm"
   height="23.409958mm"
   viewBox="0 0 41.808865 23.409958"
   version="1.1"
   id="svg1"
   sodipodi:docname="ketonean.svg"
   inkscape:version="1.3.2 (091e20e, 2023-11-25)"
   xml:space="preserve"
   inkscape:export-filename="k_logo004.png"
   inkscape:export-xdpi="96"
   inkscape:export-ydpi="96"
   xmlns:inkscape="http://www.inkscape.org/namespaces/inkscape"
   xmlns:sodipodi="http://sodipodi.sourceforge.net/DTD/sodipodi-0.dtd"
   xmlns="http://www.w3.org/2000/svg"
   xmlns:svg="http://www.w3.org/2000/svg"><sodipodi:namedview
     id="namedview1"
     pagecolor="#ffffff"
     bordercolor="#000000"
     borderopacity="0.25"
     inkscape:showpageshadow="2"
     inkscape:pageopacity="0.0"
     inkscape:pagecheckerboard="0"
     inkscape:deskcolor="#d1d1d1"
     inkscape:document-units="mm"
     inkscape:zoom="0.7476503"
     inkscape:cx="354.44378"
     inkscape:cy="154.48399"
     inkscape:window-width="1392"
     inkscape:window-height="916"
     inkscape:window-x="0"
     inkscape:window-y="92"
     inkscape:window-maximized="0"
     inkscape:current-layer="svg1" /><defs
     id="defs1" /><g
     id="g2-5-2-6"
     transform="translate(-102.5042,-186.91673)"
     inkscape:label="color"><path
       d="m 106.46278,193.39856 h -0.74052 l -1.5816,-1.59074 q -0.27427,-0.27427 -0.27427,-0.63082 0,-0.31997 0.29255,-0.61253 l 1.59989,-1.59988 h 0.71309 l -1.93815,1.93815 q -0.064,0.064 -0.1097,0.13713 -0.0366,0.064 -0.0366,0.13713 0,0.064 0.0366,0.13714 0.0457,0.064 0.1097,0.13713 z m -3.20891,0 h -0.56682 v -6.48183 h 0.56682 z m -0.10971,-1.98386 v -0.50282 h 0.96907 v 0.50282 z m 6.06128,2.07528 q -0.6491,0 -1.1702,-0.30169 -0.52111,-0.31084 -0.8228,-0.83194 -0.29255,-0.53025 -0.29255,-1.18849 0,-0.63995 0.27426,-1.16106 0.27427,-0.53025 0.76795,-0.84108 0.49368,-0.31084 1.14278,-0.31084 0.64909,0 1.12449,0.28341 0.47539,0.28341 0.74052,0.77709 0.26512,0.49368 0.26512,1.12449 v 0.33826 h -3.90372 l 0.14627,-0.39311 q -0.0457,0.54853 0.16456,0.9965 0.21027,0.43882 0.61253,0.70395 0.4114,0.26512 0.95079,0.26512 0.45711,0 0.84108,-0.18284 0.39312,-0.19199 0.63082,-0.61253 l 0.43882,0.2377 q -0.30169,0.54853 -0.80451,0.8228 -0.49368,0.27426 -1.10621,0.27426 z m -1.70959,-2.56896 h 3.17234 q -0.009,-0.46625 -0.21941,-0.80451 -0.20113,-0.34741 -0.54853,-0.53025 -0.34741,-0.19199 -0.79537,-0.19199 -0.45711,0 -0.80452,0.20113 -0.3474,0.20113 -0.55767,0.54853 -0.20113,0.34741 -0.24684,0.77709 z m 6.72867,2.5781 q -0.46625,0 -0.80451,-0.19198 -0.32912,-0.19199 -0.51197,-0.53939 -0.1737,-0.35655 -0.1737,-0.8228 v -4.15971 h 0.56682 v 4.14142 q 0,0.49368 0.26512,0.76795 0.26513,0.27427 0.70395,0.27427 0.2377,0 0.45711,-0.0823 0.21942,-0.0823 0.38398,-0.21942 v 0.54854 q -0.17371,0.12799 -0.4114,0.20112 -0.22856,0.0823 -0.4754,0.0823 z m 0.8868,-4.02257 h -3.31863 v -0.51196 h 3.31863 z m 3.23634,4.01343 q -0.65824,0 -1.18849,-0.31083 -0.5211,-0.31998 -0.83194,-0.84109 -0.31083,-0.53024 -0.31083,-1.1702 0,-0.63995 0.31083,-1.16106 0.31084,-0.52111 0.84108,-0.83194 0.53025,-0.31084 1.17935,-0.31084 0.66738,0 1.18849,0.31084 0.5211,0.31083 0.82279,0.84108 0.31084,0.52111 0.31084,1.15192 0,0.63996 -0.31084,1.1702 -0.30169,0.52111 -0.83194,0.84109 -0.5211,0.31083 -1.17934,0.31083 z m 0,-0.53939 q 0.49368,0 0.88679,-0.2377 0.40226,-0.24684 0.63082,-0.64909 0.23769,-0.40226 0.23769,-0.8868 0,-0.48453 -0.23769,-0.88679 -0.22856,-0.40226 -0.63082,-0.63996 -0.39311,-0.24684 -0.88679,-0.24684 -0.49368,0 -0.89594,0.24684 -0.39311,0.2377 -0.63081,0.63996 -0.2377,0.40226 -0.2377,0.88679 0,0.48454 0.2377,0.8868 0.2377,0.40225 0.63081,0.64909 0.40226,0.2377 0.89594,0.2377 z m 5.57676,-3.54718 q -0.50283,0 -0.85023,0.24684 -0.33826,0.24684 -0.52111,0.6491 -0.1737,0.40226 -0.1737,0.87765 v 2.22156 h -0.56681 v -2.26727 q 0,-0.63995 0.24683,-1.15192 0.25599,-0.51196 0.72224,-0.81365 0.47539,-0.3017 1.14278,-0.3017 0.68566,0 1.16106,0.3017 0.48453,0.29255 0.74052,0.80451 0.25598,0.51196 0.25598,1.15192 v 2.27641 h -0.56682 v -2.21242 q 0,-0.47539 -0.18284,-0.87765 -0.18285,-0.4114 -0.53939,-0.65824 -0.34741,-0.24684 -0.86851,-0.24684 z m 5.58589,4.08657 q -0.64909,0 -1.1702,-0.30169 -0.52111,-0.31084 -0.8228,-0.83194 -0.29255,-0.53025 -0.29255,-1.18849 0,-0.63995 0.27427,-1.16106 0.27426,-0.53025 0.76794,-0.84108 0.49368,-0.31084 1.14278,-0.31084 0.64909,0 1.12449,0.28341 0.47539,0.28341 0.74052,0.77709 0.26512,0.49368 0.26512,1.12449 v 0.33826 h -3.90372 l 0.14627,-0.39311 q -0.0457,0.54853 0.16456,0.9965 0.21028,0.43882 0.61253,0.70395 0.4114,0.26512 0.95079,0.26512 0.45711,0 0.84109,-0.18284 0.39311,-0.19199 0.63081,-0.61253 l 0.43882,0.2377 q -0.30169,0.54853 -0.80451,0.8228 -0.49368,0.27426 -1.10621,0.27426 z m -1.70959,-2.56896 h 3.17235 q -0.009,-0.46625 -0.21942,-0.80451 -0.20113,-0.34741 -0.54853,-0.53025 -0.3474,-0.19199 -0.79537,-0.19199 -0.45711,0 -0.80452,0.20113 -0.3474,0.20113 -0.55767,0.54853 -0.20113,0.34741 -0.24684,0.77709 z m 6.86581,2.56896 q -0.63996,0 -1.15192,-0.31083 -0.50282,-0.31998 -0.80452,-0.84109 -0.29255,-0.53024 -0.29255,-1.1702 0,-0.63081 0.3017,-1.15192 0.31083,-0.53025 0.83194,-0.84108 0.53025,-0.31084 1.18848,-0.31084 0.65824,0 1.17935,0.31084 0.53025,0.30169 0.84108,0.8228 0.31084,0.5211 0.31084,1.1702 v 2.2307 h -0.53939 v -1.70045 l 0.23769,-0.34741 q 0,0.59425 -0.27426,1.07879 -0.27427,0.48453 -0.74966,0.77708 -0.46626,0.28341 -1.07878,0.28341 z m 0.0731,-0.53939 q 0.49368,0 0.89594,-0.2377 0.40226,-0.24684 0.63081,-0.64909 0.2377,-0.40226 0.2377,-0.8868 0,-0.48453 -0.2377,-0.88679 -0.22855,-0.40226 -0.63081,-0.63996 -0.40226,-0.24684 -0.89594,-0.24684 -0.49367,0 -0.89593,0.24684 -0.39312,0.2377 -0.63081,0.63996 -0.22856,0.40226 -0.22856,0.88679 0,0.48454 0.22856,0.8868 0.23769,0.40225 0.63081,0.64909 0.40226,0.2377 0.89593,0.2377 z m 5.90588,-3.54718 q -0.50282,0 -0.85023,0.24684 -0.33826,0.24684 -0.5211,0.6491 -0.17371,0.40226 -0.17371,0.87765 v 2.22156 h -0.56681 v -2.26727 q 0,-0.63995 0.24684,-1.15192 0.25598,-0.51196 0.72223,-0.81365 0.4754,-0.3017 1.14278,-0.3017 0.68566,0 1.16106,0.3017 0.48454,0.29255 0.74052,0.80451 0.25598,0.51196 0.25598,1.15192 v 2.27641 h -0.56682 v -2.21242 q 0,-0.47539 -0.18284,-0.87765 -0.18285,-0.4114 -0.53939,-0.65824 -0.34741,-0.24684 -0.86851,-0.24684 z"
       id="text5-5-7-1"
       style="font-size:9.14221px;font-family:'Chillax Variable';-inkscape-font-specification:'Chillax Variable';word-spacing:0px;fill:#f1848e;stroke-width:14.0199"
       aria-label="ketonean" /><path
       d="m 106.80104,201.78949 h -1.11535 l -1.42618,-1.56332 q -0.27427,-0.31083 -0.27427,-0.68566 0,-0.35655 0.28341,-0.66739 l 1.43533,-1.56331 h 1.1062 l -1.929,2.10271 q -0.0366,0.0274 -0.064,0.064 -0.0183,0.0274 -0.0183,0.064 0,0.0274 0.0183,0.064 0.0274,0.0274 0.064,0.064 z m -3.29119,0 h -0.90508 v -6.54582 h 0.90508 z m -0.15542,-1.90158 v -0.71309 h 1.00564 v 0.71309 z m 6.1527,2.00214 q -0.67652,0 -1.21591,-0.30169 -0.53939,-0.31083 -0.85023,-0.84108 -0.31083,-0.53939 -0.31083,-1.22506 0,-0.63995 0.28341,-1.1702 0.28341,-0.53939 0.79537,-0.85023 0.51196,-0.31997 1.18849,-0.31997 0.67652,0 1.16106,0.30169 0.49368,0.29255 0.7588,0.80451 0.27427,0.50282 0.27427,1.1245 v 0.36568 h -3.75745 l 0.16456,-0.36568 q -0.0274,0.47539 0.15542,0.85022 0.18284,0.37483 0.53024,0.60339 0.34741,0.21941 0.81366,0.21941 0.42054,0 0.7588,-0.18284 0.34741,-0.18285 0.54854,-0.54854 l 0.6948,0.35655 q -0.29255,0.57596 -0.81365,0.87765 -0.52111,0.30169 -1.17935,0.30169 z m -1.46275,-2.69695 h 2.6421 q -0.0183,-0.35654 -0.19199,-0.63081 -0.16456,-0.27427 -0.45711,-0.42054 -0.28341,-0.14628 -0.6491,-0.14628 -0.37483,0 -0.66738,0.15542 -0.28341,0.15542 -0.45711,0.42968 -0.16456,0.27427 -0.21941,0.61253 z m 6.66468,2.71524 q -0.54853,0 -0.93251,-0.21941 -0.38397,-0.21942 -0.5851,-0.60339 -0.19199,-0.39312 -0.19199,-0.90508 v -4.03171 h 0.90508 v 4.00428 q 0,0.43883 0.2377,0.68567 0.24684,0.24684 0.6491,0.24684 0.21941,0 0.43882,-0.0731 0.22856,-0.0731 0.39312,-0.19198 v 0.83194 q -0.1737,0.1097 -0.42054,0.18284 -0.24684,0.0731 -0.49368,0.0731 z m 0.91422,-3.8123 h -3.51061 v -0.78623 h 3.51061 z m 3.17879,3.80316 q -0.67652,0 -1.21591,-0.31998 -0.53939,-0.31998 -0.85937,-0.85023 -0.31998,-0.53939 -0.31998,-1.18848 0,-0.6491 0.31998,-1.17935 0.31998,-0.53025 0.85937,-0.84108 0.53939,-0.31998 1.21591,-0.31998 0.67652,0 1.21591,0.31998 0.53939,0.31083 0.85023,0.85022 0.31083,0.53025 0.31083,1.17021 0,0.64909 -0.31083,1.18848 -0.31084,0.53025 -0.85937,0.85023 -0.53939,0.31998 -1.20677,0.31998 z m 0,-0.85937 q 0.42054,0 0.74966,-0.20113 0.33826,-0.20113 0.53025,-0.53939 0.19199,-0.3474 0.19199,-0.74966 0,-0.4114 -0.19199,-0.74966 -0.19199,-0.33826 -0.53025,-0.53939 -0.32912,-0.21027 -0.74966,-0.21027 -0.42054,0 -0.7588,0.21027 -0.32912,0.20113 -0.53025,0.53939 -0.20113,0.33826 -0.20113,0.74966 0,0.40226 0.20113,0.74966 0.20113,0.33826 0.53025,0.53939 0.33826,0.20113 0.7588,0.20113 z m 5.61331,-2.97122 q -0.43883,0 -0.73138,0.21941 -0.29255,0.21942 -0.43882,0.56682 -0.14628,0.3474 -0.14628,0.76795 v 2.1667 h -0.90508 v -2.25813 q 0,-0.65824 0.25598,-1.17934 0.25599,-0.53025 0.74967,-0.84108 0.49367,-0.31084 1.21591,-0.31084 0.74052,0 1.2342,0.31084 0.50282,0.31083 0.7588,0.84108 0.26513,0.5211 0.26513,1.1702 v 2.26727 h -0.90508 v -2.15756 q 0,-0.42054 -0.15542,-0.76795 -0.14628,-0.35654 -0.44797,-0.57596 -0.29255,-0.21941 -0.74966,-0.21941 z m 5.64988,3.82144 q -0.67652,0 -1.21591,-0.30169 -0.53939,-0.31083 -0.85023,-0.84108 -0.31083,-0.53939 -0.31083,-1.22506 0,-0.63995 0.28341,-1.1702 0.28341,-0.53939 0.79537,-0.85023 0.51196,-0.31997 1.18849,-0.31997 0.67652,0 1.16106,0.30169 0.49368,0.29255 0.7588,0.80451 0.27427,0.50282 0.27427,1.1245 v 0.36568 h -3.75745 l 0.16456,-0.36568 q -0.0274,0.47539 0.15542,0.85022 0.18284,0.37483 0.53025,0.60339 0.3474,0.21941 0.81365,0.21941 0.42054,0 0.75881,-0.18284 0.3474,-0.18285 0.54853,-0.54854 l 0.69481,0.35655 q -0.29255,0.57596 -0.81366,0.87765 -0.52111,0.30169 -1.17935,0.30169 z m -1.46275,-2.69695 h 2.6421 q -0.0183,-0.35654 -0.19199,-0.63081 -0.16456,-0.27427 -0.45711,-0.42054 -0.28341,-0.14628 -0.64909,-0.14628 -0.37484,0 -0.66739,0.15542 -0.2834,0.15542 -0.45711,0.42968 -0.16456,0.27427 -0.21941,0.61253 z m 6.59154,2.7061 q -0.64909,0 -1.16106,-0.31998 -0.50282,-0.31998 -0.79537,-0.85023 -0.29255,-0.53939 -0.29255,-1.18848 0,-0.63996 0.31083,-1.17021 0.31998,-0.53939 0.85937,-0.85022 0.53939,-0.31998 1.21592,-0.31998 0.67652,0 1.21591,0.31084 0.53939,0.30169 0.85022,0.83194 0.31998,0.53024 0.31998,1.19763 v 2.24898 h -0.85937 v -1.67302 l 0.31084,-0.2377 q 0,0.56681 -0.25598,1.02393 -0.24684,0.45711 -0.69481,0.73137 -0.43883,0.26513 -1.02393,0.26513 z m 0.13714,-0.85937 q 0.42054,0 0.7588,-0.20113 0.33826,-0.20113 0.53025,-0.53939 0.19198,-0.3474 0.19198,-0.74966 0,-0.4114 -0.19198,-0.74966 -0.19199,-0.33826 -0.53025,-0.53939 -0.33826,-0.21027 -0.7588,-0.21027 -0.42055,0 -0.75881,0.21027 -0.32912,0.20113 -0.53025,0.53939 -0.19198,0.33826 -0.19198,0.74966 0,0.40226 0.19198,0.74966 0.20113,0.33826 0.53025,0.53939 0.33826,0.20113 0.75881,0.20113 z m 5.90586,-2.97122 q -0.43883,0 -0.73138,0.21941 -0.29255,0.21942 -0.43882,0.56682 -0.14628,0.3474 -0.14628,0.76795 v 2.1667 h -0.90508 v -2.25813 q 0,-0.65824 0.25598,-1.17934 0.25598,-0.53025 0.74966,-0.84108 0.49368,-0.31084 1.21592,-0.31084 0.74052,0 1.2342,0.31084 0.50282,0.31083 0.7588,0.84108 0.26512,0.5211 0.26512,1.1702 v 2.26727 h -0.90507 v -2.15756 q 0,-0.42054 -0.15542,-0.76795 -0.14628,-0.35654 -0.44797,-0.57596 -0.29255,-0.21941 -0.74966,-0.21941 z"
       id="text7-1-8-2"
       style="font-weight:500;font-size:9.14221px;font-family:'Chillax Variable';-inkscape-font-specification:'Chillax Variable Medium';word-spacing:0px;fill:#ca5973;stroke-width:14.0199"
       aria-label="ketonean" /><path
       style="font-weight:600;font-size:9.14221px;font-family:'Chillax Variable';-inkscape-font-specification:'Chillax Variable Semi-Bold';word-spacing:0px;fill:#963964;stroke-width:14.0199"
       d="m 107.18502,210.1987 h -1.54504 l -1.25248,-1.53589 q -0.27427,-0.34741 -0.27427,-0.74966 0,-0.39312 0.28341,-0.73138 l 1.25248,-1.50846 h 1.54504 l -1.91987,2.28555 q 0,-0.009 0,-0.0183 0.009,-0.009 0.009,-0.0274 0,-0.009 -0.009,-0.0183 0,-0.0183 0,-0.0183 z m -3.38262,0 h -1.2982 v -6.60982 h 1.2982 z m -0.21027,-1.80102 v -0.96907 h 1.05135 v 0.96907 z m 6.25326,1.91987 q -0.70395,0 -1.27077,-0.30169 -0.55767,-0.31084 -0.87765,-0.85023 -0.31998,-0.54853 -0.31998,-1.27077 0,-0.64909 0.29255,-1.18848 0.3017,-0.54854 0.83195,-0.86851 0.53024,-0.32912 1.22505,-0.32912 0.72224,0 1.22506,0.31997 0.50282,0.31084 0.76794,0.83194 0.27427,0.52111 0.27427,1.14278 v 0.38397 h -3.58375 l 0.20113,-0.31997 q -0.0183,0.38397 0.12799,0.68566 0.15542,0.3017 0.42969,0.4754 0.28341,0.16456 0.66738,0.16456 0.36569,0 0.65824,-0.17371 0.30169,-0.1737 0.45711,-0.48453 l 0.9965,0.50282 q -0.29255,0.61253 -0.84108,0.95079 -0.53939,0.32912 -1.26163,0.32912 z m -1.16106,-2.85237 h 2.02043 q -0.0274,-0.2377 -0.16456,-0.42054 -0.12799,-0.19199 -0.33826,-0.29255 -0.21027,-0.10971 -0.48454,-0.10971 -0.28341,0 -0.50282,0.10971 -0.21027,0.1097 -0.34741,0.30169 -0.12799,0.18284 -0.18284,0.4114 z m 6.59153,2.86151 q -0.6491,0 -1.08792,-0.2377 -0.42969,-0.24684 -0.6491,-0.67652 -0.21941,-0.43883 -0.21941,-1.00564 v -3.88544 h 1.29819 v 3.84887 q 0,0.37483 0.21027,0.5851 0.21027,0.21027 0.56682,0.21027 0.20113,0 0.42968,-0.0548 0.22856,-0.0549 0.39312,-0.16456 v 1.16106 q -0.1737,0.10056 -0.43883,0.15542 -0.25598,0.064 -0.50282,0.064 z m 0.94165,-3.55632 h -3.73002 v -1.09706 h 3.73002 z m 3.1099,3.54718 q -0.69481,0 -1.25248,-0.31998 -0.54854,-0.32912 -0.87765,-0.86851 -0.31998,-0.54853 -0.31998,-1.20677 0,-0.65824 0.31998,-1.19763 0.32911,-0.53939 0.88679,-0.85937 0.55767,-0.32912 1.24334,-0.32912 0.70395,0 1.25248,0.32912 0.55768,0.31998 0.87766,0.86851 0.32911,0.53939 0.32911,1.18849 0,0.65824 -0.32911,1.20677 -0.31998,0.53939 -0.87766,0.86851 -0.55767,0.31998 -1.25248,0.31998 z m 0,-1.21592 q 0.33826,0 0.59424,-0.15541 0.26513,-0.16456 0.4114,-0.42969 0.15542,-0.26512 0.15542,-0.5851 0,-0.31998 -0.15542,-0.5851 -0.14627,-0.26512 -0.4114,-0.42054 -0.25598,-0.16456 -0.59424,-0.16456 -0.32912,0 -0.59424,0.16456 -0.25599,0.15542 -0.4114,0.42054 -0.14628,0.26512 -0.14628,0.5851 0,0.31998 0.14628,0.5851 0.15541,0.26513 0.4114,0.42969 0.26512,0.15541 0.59424,0.15541 z m 5.67732,-2.29469 q -0.36569,0 -0.60339,0.18284 -0.23769,0.17371 -0.3474,0.46626 -0.10971,0.28341 -0.10971,0.63995 v 2.10271 h -1.29819 v -2.25813 q 0,-0.65824 0.25598,-1.19763 0.26513,-0.54853 0.78623,-0.86851 0.52111,-0.32911 1.31648,-0.32911 0.79537,0 1.31648,0.32911 0.53025,0.31998 0.79537,0.85937 0.26512,0.53939 0.26512,1.20677 v 2.25813 h -1.29819 v -2.10271 q 0,-0.3474 -0.11885,-0.63995 -0.11885,-0.29255 -0.35654,-0.46626 -0.22856,-0.18284 -0.60339,-0.18284 z m 5.70473,3.51061 q -0.70395,0 -1.27077,-0.30169 -0.55767,-0.31084 -0.87765,-0.85023 -0.31998,-0.54853 -0.31998,-1.27077 0,-0.64909 0.29256,-1.18848 0.30169,-0.54854 0.83194,-0.86851 0.53024,-0.32912 1.22505,-0.32912 0.72224,0 1.22506,0.31997 0.50282,0.31084 0.76794,0.83194 0.27427,0.52111 0.27427,1.14278 v 0.38397 h -3.58375 l 0.20113,-0.31997 q -0.0183,0.38397 0.12799,0.68566 0.15542,0.3017 0.42969,0.4754 0.28341,0.16456 0.66738,0.16456 0.36569,0 0.65824,-0.17371 0.30169,-0.1737 0.45711,-0.48453 l 0.9965,0.50282 q -0.29255,0.61253 -0.84108,0.95079 -0.53939,0.32912 -1.26163,0.32912 z m -1.16106,-2.85237 h 2.02043 q -0.0274,-0.2377 -0.16456,-0.42054 -0.12799,-0.19199 -0.33826,-0.29255 -0.21027,-0.10971 -0.48454,-0.10971 -0.28341,0 -0.50282,0.10971 -0.21027,0.1097 -0.34741,0.30169 -0.12799,0.18284 -0.18284,0.4114 z m 6.27155,2.85237 q -0.65823,0 -1.16106,-0.31998 -0.50282,-0.32912 -0.79537,-0.86851 -0.28341,-0.54853 -0.28341,-1.20677 0,-0.6491 0.31998,-1.18849 0.32912,-0.54853 0.87765,-0.86851 0.55768,-0.32912 1.25249,-0.32912 0.70395,0 1.26162,0.31998 0.55768,0.31084 0.87765,0.85023 0.31998,0.53024 0.31998,1.21591 v 2.27641 h -1.2342 v -1.63646 l 0.39312,-0.1097 q 0,0.53025 -0.22856,0.95993 -0.22855,0.42054 -0.63081,0.66738 -0.40226,0.2377 -0.96908,0.2377 z m 0.21028,-1.21592 q 0.33826,0 0.59424,-0.15541 0.26512,-0.16456 0.4114,-0.42969 0.15542,-0.26512 0.15542,-0.5851 0,-0.31998 -0.15542,-0.5851 -0.14628,-0.26512 -0.4114,-0.42054 -0.25598,-0.16456 -0.59424,-0.16456 -0.32912,0 -0.59425,0.16456 -0.25598,0.15542 -0.4114,0.42054 -0.14627,0.26512 -0.14627,0.5851 0,0.31998 0.14627,0.5851 0.15542,0.26513 0.4114,0.42969 0.26513,0.15541 0.59425,0.15541 z m 5.90587,-2.29469 q -0.36569,0 -0.60339,0.18284 -0.2377,0.17371 -0.3474,0.46626 -0.10971,0.28341 -0.10971,0.63995 v 2.10271 h -1.29819 v -2.25813 q 0,-0.65824 0.25598,-1.19763 0.26512,-0.54853 0.78623,-0.86851 0.5211,-0.32911 1.31648,-0.32911 0.79537,0 1.31647,0.32911 0.53025,0.31998 0.79538,0.85937 0.26512,0.53939 0.26512,1.20677 v 2.25813 h -1.29819 v -2.10271 q 0,-0.3474 -0.11885,-0.63995 -0.11885,-0.29255 -0.35655,-0.46626 -0.22855,-0.18284 -0.60338,-0.18284 z"
       id="text10-7-8-6"
       aria-label="ketonean" /></g></svg>
