<?xml version="1.0" encoding="UTF-8" standalone="no"?>
    <svg
   style="isolation:isolate"
   viewBox="830.95 1353 933.527 185.65"
   width="933.527"
   height="185.65"
   class="svg-over-circle cc-logo"
   version="1.1"
   id="svg18"
   xmlns="http://www.w3.org/2000/svg"
   xmlns:svg="http://www.w3.org/2000/svg">
  <defs
     id="defs18" />
  <g
     id="g18">
    <defs
       id="defs1">
      <filter
         id="03cNLxiGmZkCJPvEl94Xvk31gKDUotQ4"
         x="-0.023761699"
         y="0"
         width="1.0237617"
         height="1.0316825"
         filterUnits="objectBoundingBox"
         color-interpolation-filters="sRGB">
        <feGaussianBlur
           in="SourceGraphic"
           stdDeviation="0"
           id="feGaussianBlur1" />
        <feOffset
           dx="-7.5"
           dy="5"
           result="pf_100_offsetBlur"
           id="feOffset1" />
        <feFlood
           flood-color="#000000"
           flood-opacity="0.2"
           id="feFlood1" />
        <feComposite
           in2="pf_100_offsetBlur"
           operator="in"
           result="pf_100_dropShadow"
           id="feComposite1" />
        <feBlend
           in="SourceGraphic"
           in2="pf_100_dropShadow"
           mode="normal"
           id="feBlend1" />
      </filter>
    </defs>
    <g
       filter="url(#03cNLxiGmZkCJPvEl94Xvk31gKDUotQ4)"
       id="g1">
      <path
         d=" M 1676.117 1360.561 L 1764.477 1515.642 L 1719.762 1515.642 L 1710.036 1498.831 L 1665.532 1498.831 L 1681.08 1471.512 L 1694.477 1471.512 L 1676.117 1439.153 L 1656.887 1472.774 C 1653.865 1478.035 1650.837 1482.652 1647.815 1486.645 C 1633.127 1505.98 1609.355 1518.377 1583.005 1518.377 C 1538.717 1518.377 1502.636 1483.284 1502.636 1440.205 C 1502.636 1397.127 1538.717 1362.022 1583.005 1362.022 C 1598.126 1362.022 1611.74 1366.02 1623.623 1372.742 L 1604.609 1406.152 C 1598.055 1402.315 1590.6 1400.286 1583.005 1400.272 C 1560.321 1400.272 1541.955 1418.134 1541.955 1440.194 C 1541.955 1462.265 1560.321 1480.127 1583.005 1480.127 C 1595.315 1480.127 1605.474 1475.083 1612.815 1467.724 C 1616.059 1464.574 1619.73 1459.319 1620.811 1457.431 L 1676.117 1360.561 Z  M 1448.843 1364.769 L 1488.163 1364.769 L 1488.163 1515.648 L 1448.843 1515.648 L 1448.843 1364.769 Z "
         fill-rule="evenodd"
         fill="rgb(227,0,11)"
         id="path1" />
    </g>
    <g
       id="g10">
      <path
         d=" M 1245.466 1371.57 L 1246.818 1365.215 L 1246.818 1364.269 C 1246.954 1363.187 1247.9 1362.376 1248.847 1361.835 L 1249.252 1361.564 L 1249.793 1361.294 L 1250.74 1361.023 L 1251.957 1360.483 C 1254.467 1359.69 1257.048 1359.147 1259.664 1358.86 C 1263.45 1358.184 1267.237 1357.913 1271.158 1357.778 L 1273.186 1357.778 C 1277.272 1357.912 1281.341 1358.364 1285.356 1359.13 C 1286.135 1359.363 1286.902 1359.634 1287.655 1359.942 L 1288.466 1360.212 C 1290.089 1361.023 1291.576 1362.105 1292.252 1363.728 L 1292.658 1364.81 L 1294.956 1370.354 L 1300.5 1368.46 L 1300.771 1368.325 L 1300.906 1368.325 C 1301.075 1368.243 1301.259 1368.197 1301.447 1368.19 L 1301.582 1368.19 L 1338.497 1374.681 L 1338.767 1374.681 C 1338.918 1374.745 1339.055 1374.837 1339.173 1374.951 L 1339.308 1375.086 L 1339.579 1375.357 L 1339.849 1375.357 L 1339.849 1375.492 L 1345.799 1385.633 C 1348.098 1386.309 1349.855 1385.904 1352.154 1386.58 C 1371.626 1379.413 1391.232 1391.448 1392.449 1396.045 L 1392.179 1401.454 C 1396.506 1402.941 1406.512 1407.404 1407.459 1412.947 C 1407.594 1414.3 1412.191 1502.192 1412.191 1508.953 C 1413.949 1511.116 1376.358 1536.943 1372.843 1533.698 C 1357.157 1528.425 1308.208 1512.063 1297.661 1508.953 L 1291.035 1513.145 C 1288.581 1515.688 1285.573 1517.632 1282.246 1518.824 C 1278.236 1520.135 1273.968 1520.46 1269.806 1519.771 C 1263.734 1519.079 1257.927 1516.895 1252.903 1513.415 C 1250.199 1511.387 1247.765 1509.088 1245.737 1506.384 C 1242.762 1502.462 1240.598 1498.271 1238.976 1493.538 L 1238.435 1493.538 C 1233.973 1492.591 1229.51 1491.78 1224.913 1491.104 L 1223.966 1491.104 L 1223.831 1490.969 C 1223.561 1490.969 1223.561 1490.969 1223.426 1490.698 C 1223.176 1490.538 1222.986 1490.301 1222.885 1490.022 L 1222.885 1489.752 L 1217.882 1427.686 L 1215.989 1401.183 L 1215.448 1394.828 L 1215.448 1394.152 L 1215.853 1393.882 L 1215.989 1393.611 C 1216.283 1393.294 1216.656 1393.06 1217.07 1392.935 C 1219.511 1391.212 1221.991 1389.543 1224.507 1387.932 L 1222.073 1380.36 L 1221.938 1380.089 L 1221.668 1379.143 L 1221.668 1378.872 C 1221.611 1378.651 1221.611 1378.418 1221.668 1378.196 L 1221.668 1377.926 L 1222.209 1377.25 C 1223.179 1375.735 1224.363 1374.369 1225.724 1373.193 C 1227.077 1372.111 1228.699 1371.165 1230.457 1370.624 C 1233.286 1369.678 1236.306 1369.446 1239.246 1369.948 L 1239.652 1369.948 C 1239.88 1370.072 1240.068 1370.26 1240.193 1370.489 L 1240.193 1370.624 L 1243.303 1372.787 L 1245.466 1371.57 Z "
         fill-rule="evenodd"
         fill="rgb(0,0,0)"
         fill-opacity="0.2"
         id="path2" />
      <mask
         id="_mask_wN9J7l3Tk8n1Q54BNmqC4FvMFilMxBME"
         x="-200%"
         y="-200%"
         width="400%"
         height="400%">
        <rect
           x="-200%"
           y="-200%"
           width="400%"
           height="400%"
           style="fill:white;"
           id="rect2" />
        <path
           d=" M 1253.039 1369.813 L 1254.391 1363.457 L 1254.391 1362.511 C 1254.661 1361.429 1255.608 1360.618 1256.554 1360.077 L 1256.96 1359.806 L 1257.501 1359.536 L 1258.312 1359.13 L 1259.664 1358.725 C 1262.126 1357.895 1264.662 1357.307 1267.237 1356.967 C 1271.158 1356.426 1274.944 1356.156 1278.73 1356.02 L 1280.894 1356.02 C 1284.934 1356.161 1288.957 1356.613 1292.928 1357.372 C 1293.753 1357.601 1294.565 1357.872 1295.362 1358.184 L 1296.173 1358.454 C 1297.661 1359.266 1299.148 1360.347 1299.96 1361.97 L 1300.23 1363.052 L 1302.664 1368.596 L 1308.073 1366.703 L 1308.343 1366.567 L 1308.614 1366.432 C 1308.748 1366.412 1308.885 1366.412 1309.019 1366.432 L 1309.29 1366.432 L 1346.204 1372.923 L 1346.475 1372.923 C 1346.625 1372.988 1346.763 1373.079 1346.881 1373.193 L 1347.016 1373.328 L 1347.286 1373.599 L 1347.557 1373.599 L 1347.421 1373.599 L 1347.421 1373.734 L 1353.371 1383.875 C 1355.805 1384.416 1357.428 1384.146 1359.862 1384.822 C 1379.333 1377.655 1398.94 1389.69 1400.157 1394.152 L 1399.886 1399.561 C 1404.213 1401.183 1414.22 1405.646 1415.166 1411.19 C 1415.301 1412.542 1419.899 1500.434 1419.899 1507.06 C 1421.657 1509.359 1383.931 1535.185 1380.55 1531.94 C 1364.729 1526.531 1315.915 1510.305 1305.368 1507.06 L 1298.607 1511.387 C 1296.153 1513.931 1293.146 1515.874 1289.818 1517.066 C 1285.808 1518.377 1281.54 1518.702 1277.378 1518.013 C 1271.354 1517.294 1265.598 1515.112 1260.611 1511.657 C 1253.983 1506.671 1249.107 1499.712 1246.683 1491.78 L 1246.142 1491.78 L 1232.756 1489.346 L 1231.674 1489.346 L 1231.404 1489.211 L 1230.998 1488.941 C 1230.723 1488.747 1230.53 1488.458 1230.457 1488.129 L 1230.457 1487.994 L 1225.724 1426.064 L 1223.561 1399.426 C 1223.561 1397.262 1223.29 1395.234 1223.155 1393.07 L 1223.155 1392.394 L 1223.426 1391.989 L 1223.561 1391.718 C 1223.855 1391.401 1224.228 1391.167 1224.643 1391.042 L 1225.048 1390.636 L 1232.08 1386.039 L 1229.781 1378.602 L 1229.646 1378.331 L 1229.375 1377.385 L 1229.375 1377.114 C 1229.318 1376.893 1229.318 1376.66 1229.375 1376.438 L 1229.375 1376.168 C 1229.797 1375.399 1230.296 1374.674 1230.863 1374.004 C 1233.77 1370.215 1238.257 1367.971 1243.032 1367.92 C 1244.925 1367.92 1251.281 1371.03 1251.01 1371.03 L 1253.039 1369.813 Z "
           fill-rule="evenodd"
           fill="black"
           stroke="none"
           id="path3" />
      </mask>
      <path
         d=" M 1253.039 1369.813 L 1254.391 1363.457 L 1254.391 1362.511 C 1254.661 1361.429 1255.608 1360.618 1256.554 1360.077 L 1256.96 1359.806 L 1257.501 1359.536 L 1258.312 1359.13 L 1259.664 1358.725 C 1262.126 1357.895 1264.662 1357.307 1267.237 1356.967 C 1271.158 1356.426 1274.944 1356.156 1278.73 1356.02 L 1280.894 1356.02 C 1284.934 1356.161 1288.957 1356.613 1292.928 1357.372 C 1293.753 1357.601 1294.565 1357.872 1295.362 1358.184 L 1296.173 1358.454 C 1297.661 1359.266 1299.148 1360.347 1299.96 1361.97 L 1300.23 1363.052 L 1302.664 1368.596 L 1308.073 1366.703 L 1308.343 1366.567 L 1308.614 1366.432 C 1308.748 1366.412 1308.885 1366.412 1309.019 1366.432 L 1309.29 1366.432 L 1346.204 1372.923 L 1346.475 1372.923 C 1346.625 1372.988 1346.763 1373.079 1346.881 1373.193 L 1347.016 1373.328 L 1347.286 1373.599 L 1347.557 1373.599 L 1347.421 1373.599 L 1347.421 1373.734 L 1353.371 1383.875 C 1355.805 1384.416 1357.428 1384.146 1359.862 1384.822 C 1379.333 1377.655 1398.94 1389.69 1400.157 1394.152 L 1399.886 1399.561 C 1404.213 1401.183 1414.22 1405.646 1415.166 1411.19 C 1415.301 1412.542 1419.899 1500.434 1419.899 1507.06 C 1421.657 1509.359 1383.931 1535.185 1380.55 1531.94 C 1364.729 1526.531 1315.915 1510.305 1305.368 1507.06 L 1298.607 1511.387 C 1296.153 1513.931 1293.146 1515.874 1289.818 1517.066 C 1285.808 1518.377 1281.54 1518.702 1277.378 1518.013 C 1271.354 1517.294 1265.598 1515.112 1260.611 1511.657 C 1253.983 1506.671 1249.107 1499.712 1246.683 1491.78 L 1246.142 1491.78 L 1232.756 1489.346 L 1231.674 1489.346 L 1231.404 1489.211 L 1230.998 1488.941 C 1230.723 1488.747 1230.53 1488.458 1230.457 1488.129 L 1230.457 1487.994 L 1225.724 1426.064 L 1223.561 1399.426 C 1223.561 1397.262 1223.29 1395.234 1223.155 1393.07 L 1223.155 1392.394 L 1223.426 1391.989 L 1223.561 1391.718 C 1223.855 1391.401 1224.228 1391.167 1224.643 1391.042 L 1225.048 1390.636 L 1232.08 1386.039 L 1229.781 1378.602 L 1229.646 1378.331 L 1229.375 1377.385 L 1229.375 1377.114 C 1229.318 1376.893 1229.318 1376.66 1229.375 1376.438 L 1229.375 1376.168 C 1229.797 1375.399 1230.296 1374.674 1230.863 1374.004 C 1233.77 1370.215 1238.257 1367.971 1243.032 1367.92 C 1244.925 1367.92 1251.281 1371.03 1251.01 1371.03 L 1253.039 1369.813 Z "
         fill-rule="evenodd"
         fill="rgb(255,255,255)"
         mask="url(#_mask_wN9J7l3Tk8n1Q54BNmqC4FvMFilMxBME)"
         vector-effect="non-scaling-stroke"
         stroke-width="3.375"
         stroke="rgb(207,207,207)"
         stroke-linejoin="round"
         stroke-linecap="butt"
         stroke-miterlimit="1.41"
         id="path4" />
      <path
         d=" M 1284.004 1492.051 C 1266.425 1487.318 1249.793 1483.261 1238.029 1481.774 L 1231.404 1398.479 C 1230.998 1391.448 1379.333 1434.853 1379.333 1434.853 L 1403.673 1413.218 C 1410.163 1425.252 1409.081 1504.896 1409.081 1504.896 C 1400.736 1513.16 1390.244 1518.922 1378.792 1521.528 L 1378.522 1521.528 C 1375.141 1520.311 1339.849 1508.277 1303.475 1497.595 L 1290.629 1505.843 L 1283.869 1492.051 L 1284.004 1492.051 Z  M 1356.346 1404.293 L 1361.755 1392.665 C 1361.755 1392.665 1380.685 1386.309 1390.556 1398.75 L 1389.88 1413.488 C 1384.877 1419.032 1358.104 1415.652 1356.346 1404.293 Z  M 1239.652 1392.665 C 1239.652 1392.665 1256.013 1396.045 1255.202 1383.064 L 1250.469 1375.357 C 1250.469 1375.357 1240.734 1373.328 1236.001 1381.847 L 1239.652 1392.665 Z  M 1258.988 1385.092 L 1259.394 1370.759 C 1257.366 1366.027 1295.903 1361.835 1297.796 1370.759 L 1300.095 1381.577 C 1300.095 1381.577 1296.038 1387.256 1293.063 1387.932 C 1282.246 1390.366 1266.56 1390.231 1258.988 1385.092 Z "
         fill-rule="evenodd"
         fill="rgb(227,0,11)"
         id="path5" />
      <path
         d=" M 1379.333 1465.953 L 1379.333 1466.224 L 1375.682 1464.872 L 1327.139 1451.079 L 1320.107 1439.856 L 1308.343 1428.768 L 1292.928 1426.064 L 1282.516 1429.85 L 1271.699 1435.935 L 1234.649 1425.658 L 1233.026 1422.954 L 1232.215 1398.209 L 1231.809 1398.073 L 1232.08 1397.803 L 1232.215 1397.803 C 1234.919 1395.91 1236.677 1393.746 1240.193 1392.935 C 1243.573 1392.124 1248.712 1392.665 1251.686 1391.042 C 1254.932 1389.149 1255.743 1383.47 1259.259 1381.577 C 1260.746 1380.901 1259.259 1386.174 1260.611 1385.363 C 1260.611 1385.363 1267.642 1389.149 1277.784 1388.608 C 1281.299 1388.338 1286.979 1389.419 1291.306 1388.067 C 1293.739 1387.256 1294.686 1383.47 1297.255 1383.875 L 1306.991 1375.897 L 1339.849 1381.712 L 1351.613 1395.639 L 1351.478 1395.639 C 1354.182 1396.451 1356.887 1397.668 1359.997 1398.073 C 1360.267 1398.073 1355.94 1402.4 1356.887 1405.916 C 1357.969 1409.973 1366.487 1414.3 1369.056 1414.841 C 1377.575 1416.598 1385.012 1416.193 1388.393 1413.624 C 1390.556 1412.001 1389.204 1407.674 1391.503 1408.485 C 1395.559 1409.837 1399.616 1411.46 1403.537 1413.083 L 1392.314 1424.576 L 1403.673 1414.705 L 1406.242 1424.306 L 1408.27 1442.831 L 1379.333 1465.953 Z "
         fill-rule="evenodd"
         fill="rgb(227,206,192)"
         id="path6" />
      <path
         d=" M 1340.12 1480.827 L 1339.579 1442.425 L 1351.208 1446.752 L 1350.937 1482.856 L 1340.12 1480.827 Z "
         fill-rule="evenodd"
         fill="rgb(255,242,205)"
         id="path7" />
      <path
         d=" M 1260.07 1442.56 C 1260.07 1442.56 1276.026 1429.85 1292.928 1449.592 C 1309.695 1469.334 1308.478 1509.223 1280.758 1507.601 C 1252.903 1505.843 1249.929 1475.148 1249.929 1475.148 C 1249.929 1475.148 1244.925 1454.189 1260.07 1442.425 L 1260.07 1442.56 Z "
         fill-rule="evenodd"
         fill="rgb(156,115,119)"
         id="path8" />
      <path
         d=" M 1263.18 1447.428 C 1263.18 1447.428 1275.755 1436.746 1289.142 1453.378 C 1302.529 1470.01 1301.582 1503.409 1279.541 1502.057 C 1257.501 1500.705 1255.202 1475.013 1255.202 1475.013 C 1255.202 1475.013 1251.146 1457.299 1263.18 1447.428 Z "
         fill-rule="evenodd"
         fill="rgb(108,79,90)"
         id="path9" />
      <path
         d=" M 1235.19 1383.064 L 1234.919 1382.253 L 1234.919 1381.306 C 1235.337 1380.609 1235.788 1379.932 1236.271 1379.278 C 1238.839 1375.89 1242.838 1373.89 1247.089 1373.869 C 1248.306 1373.869 1249.388 1373.869 1250.605 1374.14 L 1250.875 1374.14 L 1251.416 1374.545 L 1251.416 1374.681 L 1256.013 1381.982 L 1257.906 1380.901 L 1258.042 1370.894 L 1258.042 1370.083 C 1258.177 1369.001 1259.123 1368.325 1259.935 1367.92 L 1260.34 1367.649 L 1260.746 1367.379 L 1261.557 1367.108 C 1262.876 1366.598 1264.232 1366.191 1265.614 1365.891 L 1269.671 1365.215 C 1273.028 1364.688 1276.415 1364.371 1279.812 1364.269 L 1281.57 1364.269 C 1285.199 1364.424 1288.814 1364.831 1292.387 1365.486 L 1293.604 1365.756 L 1294.551 1366.162 L 1295.362 1366.432 C 1296.714 1367.108 1298.066 1368.055 1298.607 1369.542 L 1299.013 1370.489 L 1300.771 1379.413 L 1306.18 1374.951 L 1306.315 1374.951 L 1306.45 1374.816 C 1306.629 1374.779 1306.812 1374.779 1306.991 1374.816 L 1307.126 1374.816 L 1340.12 1380.36 L 1340.255 1380.36 C 1340.467 1380.447 1340.653 1380.587 1340.796 1380.765 L 1341.066 1381.036 L 1341.201 1381.036 L 1341.201 1381.171 L 1352.425 1394.693 C 1354.588 1395.099 1356.616 1395.775 1358.645 1396.316 L 1360.673 1391.989 L 1360.808 1391.989 C 1360.895 1391.777 1361.035 1391.591 1361.214 1391.448 L 1361.484 1391.448 L 1362.296 1391.177 C 1365.541 1390.231 1368.921 1389.825 1372.167 1389.825 L 1375.817 1389.825 C 1377.846 1390.095 1380.009 1390.501 1382.037 1391.177 C 1385.705 1392.471 1388.937 1394.766 1391.368 1397.803 L 1391.638 1398.073 L 1391.638 1402.13 L 1391.368 1406.998 C 1395.154 1408.35 1398.94 1409.702 1402.726 1411.325 L 1403.132 1411.595 L 1403.673 1411.731 L 1403.808 1411.731 L 1404.213 1412.001 C 1404.349 1412.001 1404.484 1412.001 1404.484 1412.271 C 1404.754 1412.407 1404.754 1412.542 1404.754 1412.677 C 1406.53 1417.644 1407.622 1422.83 1408 1428.092 C 1408.761 1434.467 1409.212 1440.875 1409.352 1447.293 C 1410.113 1460.17 1410.474 1473.067 1410.433 1485.966 L 1410.433 1505.032 L 1410.298 1505.302 C 1410.255 1505.502 1410.162 1505.688 1410.028 1505.843 L 1409.487 1506.384 C 1406.014 1510.002 1401.999 1513.058 1397.588 1515.443 C 1393.422 1517.853 1389.028 1519.845 1384.471 1521.393 L 1383.119 1521.799 L 1381.902 1522.204 C 1381.632 1522.204 1381.226 1522.204 1380.956 1522.475 L 1380.28 1522.475 L 1379.739 1522.61 L 1379.333 1522.745 L 1379.198 1522.745 C 1379.063 1522.766 1378.927 1522.766 1378.792 1522.745 L 1378.522 1522.745 C 1378.343 1522.782 1378.159 1522.782 1377.981 1522.745 L 1377.981 1522.61 L 1374.06 1521.258 C 1350.754 1513.411 1327.312 1505.973 1303.746 1498.947 L 1297.661 1502.733 C 1296.519 1503.908 1295.249 1504.951 1293.875 1505.843 C 1290.68 1507.74 1287.043 1508.766 1283.328 1508.818 C 1276.342 1508.996 1269.48 1506.961 1263.721 1503.003 C 1261.265 1501.205 1259.08 1499.065 1257.23 1496.648 C 1254.526 1493.268 1252.633 1489.346 1251.146 1485.29 L 1250.875 1485.29 C 1246.818 1484.343 1242.762 1483.667 1238.705 1483.126 L 1238.435 1483.126 L 1238.029 1482.991 L 1237.759 1482.991 L 1237.353 1482.72 C 1237.154 1482.54 1237.013 1482.305 1236.948 1482.044 L 1236.948 1481.909 L 1232.621 1427.957 L 1230.863 1404.158 C 1230.763 1401.95 1230.673 1399.741 1230.592 1397.533 L 1230.727 1397.262 C 1230.988 1396.999 1231.315 1396.812 1231.674 1396.721 L 1232.08 1396.451 L 1238.3 1392.394 L 1235.325 1383.47 L 1235.325 1383.064 L 1235.19 1383.064 Z  M 1406.918 1446.076 L 1381.497 1465.953 C 1381.694 1479.069 1381.739 1492.186 1381.632 1505.302 C 1381.467 1509.999 1381.151 1514.689 1380.685 1519.365 L 1380.685 1519.906 C 1390.855 1517.032 1400.179 1511.744 1407.864 1504.491 L 1407.864 1499.623 C 1407.935 1481.769 1407.619 1463.916 1406.918 1446.076 L 1406.918 1446.076 Z  M 1328.085 1452.837 C 1329.676 1457.997 1330.318 1463.404 1329.978 1468.793 C 1329.371 1475.206 1326.93 1481.309 1322.947 1486.371 L 1322.676 1486.507 L 1306.45 1497.189 C 1330.064 1504.109 1353.508 1511.593 1376.764 1519.635 L 1377.305 1519.771 L 1377.846 1466.765 L 1351.884 1459.463 L 1351.748 1482.991 L 1351.748 1483.126 C 1351.613 1483.532 1351.343 1483.667 1350.937 1483.802 L 1350.667 1483.802 L 1339.984 1481.639 L 1339.714 1481.504 C 1339.534 1481.422 1339.39 1481.278 1339.308 1481.098 L 1339.308 1480.827 L 1338.903 1455.812 L 1328.085 1452.837 Z  M 1276.026 1440.127 C 1274.248 1439.758 1272.423 1439.666 1270.617 1439.856 C 1268.227 1440.087 1265.894 1440.728 1263.721 1441.749 L 1262.504 1442.425 L 1261.963 1442.831 C 1257.23 1445.4 1253.444 1449.862 1251.551 1457.57 C 1250.672 1462.204 1250.264 1466.916 1250.334 1471.633 C 1250.605 1476.365 1251.822 1481.233 1253.985 1485.831 L 1254.526 1487.048 C 1255.878 1490.158 1257.501 1492.997 1259.664 1495.702 C 1262.393 1499.133 1265.859 1501.906 1269.806 1503.815 C 1273.277 1505.845 1277.294 1506.743 1281.299 1506.384 L 1281.705 1506.384 C 1284.175 1506.48 1286.643 1506.16 1289.007 1505.437 C 1289.007 1505.437 1293.875 1503.003 1295.903 1500.975 L 1296.173 1500.975 C 1297.68 1499.285 1298.912 1497.368 1299.824 1495.296 C 1300.952 1492.849 1301.726 1490.254 1302.123 1487.588 C 1303.014 1482.389 1302.923 1477.069 1301.853 1471.903 C 1300.524 1465.111 1297.808 1458.667 1293.875 1452.972 C 1292.544 1451.088 1291.051 1449.323 1289.412 1447.699 C 1285.953 1443.618 1281.165 1440.888 1275.891 1439.991 L 1276.026 1440.127 Z  M 1262.774 1446.617 C 1267.71 1442.994 1274.201 1442.273 1279.812 1444.724 C 1283.328 1446.211 1286.302 1448.781 1288.872 1451.755 C 1292.178 1455.479 1294.666 1459.855 1296.173 1464.601 C 1298.751 1472.169 1299.31 1480.279 1297.796 1488.129 C 1296.748 1492.828 1294.123 1497.027 1290.359 1500.029 C 1288.598 1501.328 1286.563 1502.207 1284.409 1502.598 C 1280.027 1503.241 1275.552 1502.729 1271.428 1501.11 C 1267.073 1499.375 1263.347 1496.357 1260.746 1492.456 C 1256.982 1487.105 1254.696 1480.854 1254.12 1474.337 C 1253.87 1472.681 1253.734 1471.009 1253.715 1469.334 C 1253.384 1462.95 1255.037 1456.621 1258.447 1451.214 C 1259.497 1449.72 1260.723 1448.358 1262.098 1447.158 L 1262.774 1446.617 Z  M 1263.45 1448.24 C 1261.61 1449.756 1260.053 1451.588 1258.853 1453.648 C 1256.149 1458.111 1255.337 1463.249 1255.337 1468.387 C 1255.319 1470.518 1255.5 1472.646 1255.878 1474.743 L 1256.013 1475.419 C 1256.843 1481.162 1258.92 1486.654 1262.098 1491.51 C 1264.635 1495.073 1268.094 1497.878 1272.104 1499.623 C 1275.929 1501.116 1280.078 1501.582 1284.139 1500.975 C 1286.032 1500.566 1287.824 1499.785 1289.412 1498.676 C 1292.809 1495.925 1295.189 1492.117 1296.173 1487.859 C 1297.31 1483.254 1297.448 1478.459 1296.579 1473.796 C 1295.697 1467.435 1293.436 1461.343 1289.953 1455.947 C 1289.163 1454.815 1288.305 1453.731 1287.384 1452.702 C 1285.085 1449.997 1282.246 1447.564 1279.001 1446.076 C 1273.806 1443.752 1267.747 1444.535 1263.315 1448.104 L 1263.45 1448.24 Z  M 1314.834 1488.67 L 1315.375 1487.453 L 1315.645 1486.101 C 1317.496 1479.319 1318.361 1472.306 1318.214 1465.277 C 1317.897 1459.541 1316.179 1453.97 1313.211 1449.051 C 1312.583 1448.114 1311.906 1447.211 1311.183 1446.347 C 1307.741 1442.104 1303.63 1438.45 1299.013 1435.529 C 1294.202 1432.642 1288.666 1431.187 1283.057 1431.337 L 1281.029 1431.473 L 1274.538 1435.123 L 1271.023 1437.152 C 1273.015 1436.981 1275.022 1437.117 1276.972 1437.557 C 1279.677 1438.098 1282.246 1439.18 1284.545 1440.667 C 1287.702 1442.54 1290.534 1444.915 1292.928 1447.699 C 1296.2 1451.342 1298.85 1455.5 1300.771 1460.004 C 1304.546 1468.866 1305.854 1478.584 1304.557 1488.129 C 1304.016 1490.834 1303.205 1493.403 1302.258 1495.837 L 1303.205 1496.107 L 1314.969 1488.4 L 1314.834 1488.67 Z  M 1318.214 1486.507 L 1321.189 1484.614 L 1322.676 1482.585 C 1325.497 1478.402 1327.175 1473.554 1327.544 1468.523 C 1327.975 1454.536 1321.879 1441.144 1311.048 1432.284 C 1306.364 1429.148 1300.863 1427.456 1295.227 1427.416 L 1294.551 1427.416 C 1291.992 1427.469 1289.45 1427.832 1286.979 1428.498 C 1286.708 1428.498 1286.438 1428.768 1286.302 1428.903 L 1288.331 1429.039 C 1292.387 1429.579 1296.038 1430.932 1299.554 1432.96 C 1304.84 1435.885 1309.448 1439.894 1313.076 1444.724 C 1314.746 1446.775 1316.196 1448.996 1317.403 1451.35 C 1319.161 1455.001 1320.107 1458.922 1320.513 1462.979 C 1321.149 1468.62 1320.875 1474.327 1319.702 1479.881 L 1318.62 1485.019 L 1318.214 1486.507 Z  M 1234.919 1427.01 L 1236.271 1442.696 L 1239.246 1480.557 C 1242.971 1481.065 1246.671 1481.742 1250.334 1482.585 C 1249.623 1480.238 1249.081 1477.843 1248.712 1475.419 L 1248.712 1475.283 L 1248.576 1474.607 C 1248.218 1472.505 1247.992 1470.383 1247.9 1468.252 C 1247.611 1460.831 1249.644 1453.505 1253.715 1447.293 C 1255.338 1445.025 1257.299 1443.018 1259.529 1441.343 C 1262.357 1439.612 1265.197 1437.899 1268.048 1436.205 L 1234.919 1427.01 Z  M 1350.261 1453.378 L 1350.261 1447.428 L 1347.557 1446.347 L 1340.39 1443.642 L 1340.931 1480.151 L 1350.126 1482.044 L 1350.261 1460.004 L 1350.261 1453.243 L 1350.261 1453.378 Z  M 1377.846 1463.79 L 1378.116 1439.586 L 1378.116 1435.529 L 1367.569 1432.689 L 1308.749 1415.787 L 1270.347 1406.051 L 1266.29 1405.24 C 1260.178 1403.767 1254.047 1402.37 1247.9 1401.048 L 1252.633 1402.4 L 1232.891 1398.073 L 1233.026 1399.696 L 1232.756 1399.696 L 1233.432 1408.62 L 1234.784 1424.306 L 1271.293 1434.312 C 1275.81 1431.644 1280.41 1429.119 1285.085 1426.74 L 1285.491 1426.469 L 1286.032 1426.199 L 1286.302 1426.199 L 1286.843 1425.929 C 1289.357 1425.262 1291.95 1424.943 1294.551 1424.982 L 1295.227 1424.982 C 1298.384 1425.005 1301.523 1425.46 1304.557 1426.334 C 1310.254 1428.113 1315.291 1431.55 1319.025 1436.205 C 1322.35 1440.162 1324.999 1444.639 1326.868 1449.457 L 1338.903 1452.837 L 1338.767 1442.425 L 1338.767 1442.02 C 1338.93 1441.732 1339.251 1441.571 1339.579 1441.614 L 1339.849 1441.614 L 1351.478 1445.941 L 1351.748 1445.941 L 1352.019 1446.482 L 1352.019 1456.488 L 1377.71 1463.655 L 1377.846 1463.79 Z  M 1406.783 1443.237 C 1406.245 1435.772 1405.433 1428.33 1404.349 1420.925 C 1404.025 1419.093 1403.573 1417.286 1402.996 1415.517 L 1380.55 1438.369 L 1380.685 1442.425 L 1381.226 1463.249 L 1406.512 1443.237 L 1406.783 1443.237 Z  M 1351.884 1397.262 L 1329.437 1419.303 L 1332.683 1420.249 L 1379.063 1433.366 L 1401.239 1413.488 L 1391.232 1409.702 L 1391.232 1413.488 L 1391.097 1413.894 L 1390.421 1414.57 C 1389.977 1414.997 1389.476 1415.361 1388.934 1415.652 C 1387.581 1416.328 1386.229 1416.734 1385.012 1417.004 L 1380.28 1417.41 C 1373.288 1417.43 1366.42 1415.562 1360.402 1412.001 C 1358.22 1410.61 1356.52 1408.579 1355.535 1406.187 C 1355.354 1405.658 1355.219 1405.115 1355.129 1404.564 L 1355.129 1403.753 L 1357.563 1398.75 L 1357.157 1398.614 L 1351.748 1397.127 L 1351.884 1397.262 Z  M 1288.331 1392.935 L 1278.189 1405.781 C 1290.39 1408.863 1302.56 1412.064 1314.698 1415.381 L 1324.975 1418.086 L 1321.595 1408.62 L 1318.349 1398.885 L 1316.051 1398.479 L 1288.466 1393.07 L 1288.331 1392.935 Z  M 1320.783 1398.073 L 1327.544 1417.951 L 1348.638 1396.992 L 1348.909 1396.721 L 1349.044 1396.451 L 1349.72 1395.504 L 1348.368 1393.746 L 1345.393 1390.231 L 1339.984 1383.875 L 1320.648 1397.938 L 1320.783 1398.073 Z  M 1361.214 1397.127 L 1361.214 1397.262 L 1360.132 1399.561 L 1357.698 1404.564 L 1357.698 1404.97 L 1358.104 1405.916 C 1358.78 1407.539 1359.997 1408.62 1361.349 1409.702 C 1364.168 1411.733 1367.4 1413.118 1370.814 1413.759 C 1373.994 1414.596 1377.263 1415.05 1380.55 1415.111 C 1382.853 1415.057 1385.134 1414.646 1387.311 1413.894 C 1387.794 1413.681 1388.248 1413.408 1388.663 1413.083 L 1388.798 1409.026 L 1388.934 1405.51 L 1389.069 1402.671 C 1387.51 1403.636 1385.754 1404.237 1383.931 1404.429 L 1380.28 1404.429 C 1376.915 1404.279 1373.59 1403.642 1370.409 1402.536 C 1368.881 1402.057 1367.39 1401.469 1365.946 1400.778 L 1364.594 1400.102 C 1364.273 1399.884 1363.958 1399.658 1363.648 1399.426 L 1362.972 1398.885 C 1362.322 1398.367 1361.732 1397.777 1361.214 1397.127 Z  M 1257.771 1383.875 L 1256.419 1384.687 C 1256.396 1385.646 1256.26 1386.599 1256.013 1387.526 C 1255.567 1389.208 1254.625 1390.716 1253.309 1391.853 C 1251.114 1393.477 1248.467 1394.375 1245.737 1394.422 C 1243.828 1394.494 1241.918 1394.312 1240.058 1393.882 L 1236.136 1396.451 C 1238.316 1396.64 1240.483 1396.956 1242.627 1397.397 C 1251.46 1398.911 1260.214 1400.851 1268.859 1403.212 L 1275.485 1404.834 L 1286.843 1390.772 L 1287.79 1389.96 C 1287.79 1389.96 1280.623 1390.636 1276.972 1390.501 C 1272.397 1390.407 1267.852 1389.725 1263.45 1388.473 C 1262.241 1388.071 1261.065 1387.574 1259.935 1386.985 L 1258.853 1386.309 L 1258.583 1386.174 C 1258.439 1386.096 1258.304 1386.006 1258.177 1385.904 C 1258.047 1385.746 1257.955 1385.561 1257.906 1385.363 L 1257.906 1383.605 L 1257.771 1383.875 Z  M 1388.934 1398.885 C 1386.763 1396.447 1383.952 1394.666 1380.821 1393.746 C 1378.509 1392.954 1376.095 1392.498 1373.654 1392.394 L 1372.572 1392.394 C 1369.327 1392.394 1366.082 1392.935 1363.107 1393.746 L 1362.836 1393.882 L 1362.836 1394.152 L 1362.701 1394.422 C 1362.644 1394.644 1362.644 1394.877 1362.701 1395.099 L 1363.242 1395.775 L 1363.512 1396.045 L 1363.783 1396.316 L 1364.189 1396.721 C 1364.609 1397.078 1365.062 1397.395 1365.541 1397.668 L 1366.487 1398.209 L 1367.839 1398.75 C 1370.532 1400.062 1373.402 1400.973 1376.358 1401.454 C 1378.636 1401.832 1380.948 1401.968 1383.254 1401.86 L 1384.336 1401.724 L 1385.148 1401.454 L 1385.824 1401.454 L 1386.229 1401.183 C 1387.186 1400.9 1388.004 1400.274 1388.528 1399.426 L 1388.663 1398.75 L 1388.934 1398.885 Z  M 1337.145 1382.523 L 1324.569 1380.36 L 1307.397 1377.25 L 1301.582 1381.982 L 1300.095 1383.064 L 1297.39 1385.498 L 1292.793 1389.284 L 1290.9 1390.772 L 1318.755 1396.316 L 1337.145 1382.523 Z  M 1251.146 1379.008 C 1250.803 1379.511 1250.393 1379.966 1249.929 1380.36 C 1248.88 1381.336 1247.696 1382.156 1246.413 1382.794 C 1244.519 1383.677 1242.519 1384.314 1240.463 1384.687 L 1239.517 1384.822 L 1238.435 1384.822 L 1240.463 1391.042 C 1240.463 1391.042 1244.79 1393.341 1250.334 1390.907 C 1255.337 1388.743 1254.796 1385.092 1254.796 1385.092 L 1253.715 1382.794 L 1251.281 1379.008 L 1251.146 1379.008 Z  M 1296.85 1372.247 C 1295.944 1372.931 1294.941 1373.478 1293.875 1373.869 L 1292.928 1374.275 C 1291.866 1374.617 1290.781 1374.888 1289.683 1375.086 C 1286.44 1375.779 1283.128 1376.097 1279.812 1376.033 C 1274.077 1375.957 1268.367 1375.277 1262.774 1374.004 C 1262.369 1374.004 1262.098 1373.734 1261.693 1373.599 C 1261.462 1373.523 1261.236 1373.432 1261.016 1373.328 L 1260.611 1373.193 L 1260.34 1379.819 L 1260.34 1384.552 C 1264.042 1386.58 1268.158 1387.736 1272.375 1387.932 C 1275.079 1388.338 1277.784 1388.338 1280.488 1388.338 C 1283.192 1388.338 1285.897 1388.067 1288.736 1387.526 L 1291.576 1387.121 L 1294.28 1384.822 L 1294.551 1384.822 L 1296.985 1382.658 L 1298.743 1381.306 L 1296.85 1372.247 Z  M 1249.117 1376.574 L 1247.63 1376.574 C 1246.548 1376.574 1245.466 1376.574 1244.249 1376.979 C 1242.264 1377.5 1240.448 1378.524 1238.976 1379.954 C 1238.356 1380.613 1237.812 1381.338 1237.353 1382.118 L 1237.353 1382.253 L 1237.624 1382.253 L 1238.976 1382.388 C 1241.861 1382.071 1244.636 1381.1 1247.089 1379.548 L 1247.765 1379.143 L 1248.171 1378.737 C 1248.548 1378.436 1248.869 1378.069 1249.117 1377.655 C 1249.245 1377.406 1249.293 1377.122 1249.252 1376.844 L 1249.252 1376.574 L 1249.117 1376.574 Z  M 1295.633 1369.813 C 1295.421 1369.616 1295.195 1369.435 1294.956 1369.272 L 1294.551 1369.001 C 1294.373 1368.906 1294.193 1368.816 1294.01 1368.731 L 1293.334 1368.46 L 1292.387 1368.19 C 1290.609 1367.715 1288.803 1367.353 1286.979 1367.108 L 1284.815 1366.838 L 1280.758 1366.838 C 1275.766 1366.882 1270.787 1367.38 1265.884 1368.325 C 1264.199 1368.722 1262.566 1369.311 1261.016 1370.083 L 1261.016 1370.354 L 1261.287 1370.354 C 1261.557 1370.759 1261.828 1370.894 1262.233 1371.03 L 1263.721 1371.57 C 1272.211 1373.395 1280.96 1373.669 1289.548 1372.382 C 1290.462 1372.209 1291.365 1371.984 1292.252 1371.706 L 1294.551 1370.624 C 1294.953 1370.359 1295.317 1370.041 1295.633 1369.677 L 1295.633 1369.813 Z "
         fill-rule="evenodd"
         fill="rgb(67,50,49)"
         id="path10" />
    </g>
    <g
       filter="url(#p75oLXlAA9syXja1bC9JfPCTUpLdPq0H)"
       id="g17">
      <g
         id="g12">
        <path
           d=" M 1083.161 1377.777 C 1094.387 1371.634 1107.332 1368.15 1121.002 1368.15 C 1163.413 1368.15 1197.965 1401.756 1197.965 1443.008 C 1197.965 1484.26 1163.413 1518.15 1121.002 1518.15 C 1106.522 1518.15 1093.486 1514.049 1082.107 1507.612 L 1100.315 1475.618 C 1106.591 1479.292 1113.73 1481.235 1121.002 1481.249 C 1142.725 1481.249 1160.312 1464.143 1160.312 1443.019 C 1160.312 1421.884 1142.725 1404.779 1121.002 1404.779 C 1113.265 1404.779 1106.415 1406.86 1100.645 1410.298 L 1083.161 1377.777 L 1083.161 1377.777 Z "
           fill="rgb(227,0,11)"
           id="path11" />
        <path
           d=" M 1079.75 1518.15 L 1079.75 1368.15 L 1119.07 1368.15 L 1119.07 1518.15 L 1079.75 1518.65 L 1079.75 1518.15 Z "
           fill-rule="evenodd"
           fill="rgb(227,0,11)"
           id="path12" />
      </g>
      <path
         d=" M 1009.148 1368.15 L 1048.468 1368.15 L 1048.468 1518.15 L 1009.148 1518.15 L 1009.148 1368.15 Z "
         fill-rule="evenodd"
         fill="rgb(227,0,11)"
         id="path13" />
      <g
         id="g16">
        <path
           d=" M 979.926 1415.856 L 873.11 1477.526 L 853.45 1443.474 L 978.806 1371.1 L 979.926 1415.856 L 979.926 1415.856 Z "
           fill="rgb(227,0,11)"
           id="path14" />
        <path
           d=" M 982.47 1517.542 L 853.45 1443.052 L 873.11 1409 L 981.318 1471.474 L 982.47 1517.542 L 982.47 1517.542 Z "
           fill="rgb(227,0,11)"
           id="path15" />
        <path
           d=" M 882.33 1518 L 882.33 1368 L 921.649 1368 L 921.649 1518 L 882.33 1518.528 L 882.33 1518 Z "
           fill-rule="evenodd"
           fill="rgb(227,0,11)"
           id="path16" />
      </g>
    </g>
    <defs
       id="defs17">
      <filter
         id="p75oLXlAA9syXja1bC9JfPCTUpLdPq0H"
         x="-0.021769734"
         y="0"
         width="1.0217697"
         height="1.0331895"
         filterUnits="objectBoundingBox"
         color-interpolation-filters="sRGB">
        <feGaussianBlur
           in="SourceGraphic"
           stdDeviation="0"
           id="feGaussianBlur17" />
        <feOffset
           dx="-7.5"
           dy="5"
           result="pf_100_offsetBlur"
           id="feOffset17" />
        <feFlood
           flood-color="#000000"
           flood-opacity="0.2"
           id="feFlood17" />
        <feComposite
           in2="pf_100_offsetBlur"
           operator="in"
           result="pf_100_dropShadow"
           id="feComposite17" />
        <feBlend
           in="SourceGraphic"
           in2="pf_100_dropShadow"
           mode="normal"
           id="feBlend17" />
      </filter>
    </defs>
  </g>
</svg>