<?xml version="1.0" encoding="UTF-8" standalone="no"?>
      <svg
        version="1.1"
        viewBox="0.00 0.00 512.00 512.00"
        id="mySvg"
        class="svg-over-circle tt-logo"
        sodipodi:docname="ICON copy.svg"
        inkscape:version="1.3 (0e150ed, 2023-07-21)"
        xmlns:inkscape="http://www.inkscape.org/namespaces/inkscape"
        xmlns:sodipodi="http://sodipodi.sourceforge.net/DTD/sodipodi-0.dtd"
        xmlns="http://www.w3.org/2000/svg"
        xmlns:svg="http://www.w3.org/2000/svg">
        <defs
          id="defs262" />
        <sodipodi:namedview
          id="namedview262"
          pagecolor="#ffffff"
          bordercolor="#000000"
          borderopacity="0.25"
          inkscape:showpageshadow="2"
          inkscape:pageopacity="0.0"
          inkscape:pagecheckerboard="0"
          inkscape:deskcolor="#d1d1d1"
          inkscape:zoom="0.81835938"
          inkscape:cx="256"
          inkscape:cy="256"
          inkscape:window-width="1392"
          inkscape:window-height="916"
          inkscape:window-x="0"
          inkscape:window-y="38"
          inkscape:window-maximized="0"
          inkscape:current-layer="svg262" />
        <path
          fill="#0a0607"
          d="   M 70.20 109.45   C 65.88 103.44 67.79 96.28 74.89 94.26   C 90.41 89.85 101.16 98.70 110.98 109.43   Q 117.53 116.57 123.79 123.39   C 125.13 124.85 126.67 126.11 128.25 127.30   Q 128.70 127.64 128.55 128.19   Q 128.11 129.69 126.50 129.60   Q 110.54 128.69 96.62 125.50   C 86.66 123.23 75.86 117.34 70.20 109.45   Z   M 74.37 97.34   C 66.43 101.14 71.84 108.59 76.28 112.38   C 88.73 123.03 106.71 126.16 122.87 126.67   Q 123.45 126.69 123.05 126.27   Q 115.39 118.12 108.24 110.19   Q 104.50 106.03 99.44 101.99   C 92.40 96.37 82.54 93.43 74.37 97.34   Z"
          id="path166" />
        <path
          fill="#0a0607"
          d="   M 457.41 115.13   C 452.18 127.18 436.90 122.30 427.36 119.92   Q 426.79 119.78 426.23 119.93   L 422.83 120.85   Q 422.12 121.04 422.08 120.31   L 421.95 118.26   A 0.61 0.61 0.0 0 1 422.38 117.65   Q 424.72 116.94 425.97 114.61   Q 429.37 108.23 433.15 102.86   C 437.37 96.87 445.41 91.04 452.72 95.36   C 459.37 99.29 460.34 108.41 457.41 115.13   Z   M 444.04 97.13   C 435.72 100.46 432.26 109.45 427.58 116.71   Q 427.28 117.19 427.82 117.34   C 434.08 119.14 441.94 121.39 448.35 119.91   C 456.97 117.93 458.93 104.92 453.24 99.12   Q 449.25 95.05 444.04 97.13   Z"
          id="path167" />
        <path
          fill="#94c11f"
          d="   M 74.37 97.34   C 82.54 93.43 92.40 96.37 99.44 101.99   Q 104.50 106.03 108.24 110.19   Q 115.39 118.12 123.05 126.27   Q 123.45 126.69 122.87 126.67   C 106.71 126.16 88.73 123.03 76.28 112.38   C 71.84 108.59 66.43 101.14 74.37 97.34   Z   M 81.07 100.48   C 73.43 96.41 70.12 107.30 77.49 108.46   Q 82.92 109.32 84.93 104.74   Q 92.02 111.45 100.59 115.59   Q 102.13 116.33 103.59 116.35   A 2.31 2.31 0.0 0 0 105.92 113.98   Q 105.80 110.02 103.02 106.91   Q 98.74 102.12 93.92 99.42   C 92.67 98.71 91.50 98.97 90.42 98.00   Q 90.03 97.65 89.52 97.51   C 86.24 96.63 81.35 95.81 81.07 100.48   Z"
          id="path168" />
        <path
          fill="#94c11f"
          d="   M 427.58 116.71   C 432.26 109.45 435.72 100.46 444.04 97.13   Q 449.25 95.05 453.24 99.12   C 458.93 104.92 456.97 117.93 448.35 119.91   C 441.94 121.39 434.08 119.14 427.82 117.34   Q 427.28 117.19 427.58 116.71   Z   M 451.2859 103.7902   A 2.39 2.03 -13.3 0 0 448.4930 102.3644   A 2.39 2.03 -13.3 0 0 446.6341 104.8898   A 2.39 2.03 -13.3 0 0 449.4270 106.3156   A 2.39 2.03 -13.3 0 0 451.2859 103.7902   Z   M 433.94 108.81   Q 432.94 110.44 433.12 112.50   Q 433.22 113.59 434.43 113.58   A 1.35 1.31 -64.9 0 0 435.25 113.27   Q 440.32 108.86 441.17 105.77   Q 441.77 103.59 439.58 104.12   Q 436.35 104.91 433.94 108.81   Z"
          id="path169" />
        <path
          fill="#b5cf61"
          d="   M 84.93 104.74   L 81.07 100.48   C 81.35 95.81 86.24 96.63 89.52 97.51   Q 90.03 97.65 90.42 98.00   C 91.50 98.97 92.67 98.71 93.92 99.42   Q 98.74 102.12 103.02 106.91   Q 105.80 110.02 105.92 113.98   A 2.31 2.31 0.0 0 1 103.59 116.35   Q 102.13 116.33 100.59 115.59   Q 92.02 111.45 84.93 104.74   Z"
          id="path170" />
        <path
          fill="#830004"
          d="   M 81.07 100.48   L 84.93 104.74   Q 82.92 109.32 77.49 108.46   C 70.12 107.30 73.43 96.41 81.07 100.48   Z   M 81.06 105.63   C 81.59 105.25 82.08 105.20 82.57 104.90   Q 83.08 104.58 82.84 104.03   Q 81.44 100.83 78.19 100.34   C 73.35 99.63 72.81 108.48 78.07 107.00   Q 79.82 106.51 81.06 105.63   Z"
          id="path171" />
        <path
          fill="#cc000e"
          d="   M 81.06 105.63   Q 79.82 106.51 78.07 107.00   C 72.81 108.48 73.35 99.63 78.19 100.34   Q 81.44 100.83 82.84 104.03   Q 83.08 104.58 82.57 104.90   C 82.08 105.20 81.59 105.25 81.06 105.63   Z"
          id="path172" />
        <ellipse
          fill="#cc000e"
          cx="0.00"
          cy="0.00"
          transform="translate(448.96,104.34) rotate(-13.3)"
          rx="2.39"
          ry="2.03"
          id="ellipse172" />
        <path
          fill="#b5cf61"
          d="   M 433.94 108.81   Q 436.35 104.91 439.58 104.12   Q 441.77 103.59 441.17 105.77   Q 440.32 108.86 435.25 113.27   A 1.35 1.31 -64.9 0 1 434.43 113.58   Q 433.22 113.59 433.12 112.50   Q 432.94 110.44 433.94 108.81   Z"
          id="path173" />
        <path
          fill="#0a0607"
          d="   M 411.13 222.08   L 409.67 225.74   A 0.75 0.75 0.0 0 0 409.94 226.64   Q 418.41 232.43 422.97 241.90   Q 424.53 245.15 426.60 259.12   Q 433.05 302.66 439.66 347.00   Q 441.55 359.69 433.20 371.35   Q 425.00 382.21 412.46 384.68   Q 403.45 386.44 375.45 390.66   Q 365.74 392.12 357.71 392.45   Q 348.10 392.85 339.19 393.25   Q 337.28 393.33 335.31 394.35   Q 328.58 397.82 320.83 398.19   Q 302.36 399.06 282.33 399.84   C 278.46 399.99 274.78 398.96 270.87 399.15   Q 262.94 399.54 254.82 400.17   C 243.42 401.06 234.29 399.15 225.92 391.96   Q 225.47 391.58 224.91 391.77   Q 200.11 400.18 175.71 393.21   Q 175.23 393.07 174.76 393.24   Q 172.29 394.16 169.62 395.03   Q 151.80 400.82 136.52 405.19   Q 127.98 407.63 119.97 405.61   C 105.66 401.98 96.80 392.20 93.47 377.90   Q 92.82 375.12 92.20 372.87   L 85.63 346.16   A 0.94 0.93 89.4 0 0 84.94 345.48   Q 70.56 342.15 63.08 330.65   Q 59.67 325.40 57.02 315.97   Q 53.23 302.50 49.84 290.78   C 45.45 275.63 50.94 260.22 64.34 251.57   A 0.97 0.94 -16.5 0 0 64.78 250.79   L 65.20 234.75   Q 65.21 234.17 64.70 233.90   Q 50.32 226.33 46.55 210.45   Q 45.86 206.76 45.83 205.50   Q 45.60 192.57 45.34 176.92   Q 45.15 165.87 46.46 161.55   C 50.40 148.52 59.91 139.66 72.97 136.98   Q 76.92 136.16 87.04 136.53   Q 109.58 137.34 133.88 138.12   Q 134.61 138.14 135.13 137.62   C 139.77 132.94 145.08 129.61 151.52 128.06   Q 156.70 126.81 165.27 127.15   Q 177.28 127.63 188.01 127.87   Q 193.44 127.99 198.53 128.61   Q 201.56 128.98 204.48 128.47   Q 225.11 124.86 245.21 126.90   Q 255.46 127.94 265.66 131.71   Q 266.23 131.92 266.79 131.71   C 285.06 125.06 303.89 122.52 324.51 121.41   Q 333.21 120.94 340.37 124.13   A 2.17 2.08 50.6 0 0 341.62 124.28   C 349.13 122.81 356.31 121.53 363.92 123.79   Q 366.93 124.69 370.45 124.83   Q 386.61 125.45 402.72 125.93   Q 414.30 126.28 421.89 131.58   C 433.32 139.56 439.23 152.52 436.86 166.37   Q 436.08 170.87 431.17 180.95   Q 420.99 201.82 411.13 222.08   Z   M 50.09 199.61   Q 49.57 202.92 50.07 206.50   Q 52.59 224.30 69.26 231.35   L 68.84 253.16   A 1.18 1.17 77.0 0 1 68.20 254.19   Q 59.70 258.49 55.84 267.18   Q 54.52 268.64 53.66 272.10   L 52.56 277.32   Q 51.81 283.22 53.30 288.25   Q 56.74 299.87 60.28 312.28   Q 63.65 324.09 66.22 328.00   Q 74.00 339.79 88.04 341.88   A 1.01 1.01 0.0 0 1 88.87 342.64   Q 93.41 360.61 97.83 378.25   Q 101.70 393.72 115.73 399.91   C 121.86 402.61 129.33 403.12 135.66 401.18   Q 151.17 396.44 167.96 391.43   Q 171.33 390.42 174.14 388.86   Q 174.58 388.61 175.07 388.76   Q 200.66 396.83 225.81 386.95   Q 226.29 386.76 226.65 387.12   Q 236.62 396.96 251.00 396.13   Q 260.79 395.56 270.59 395.02   Q 273.18 394.87 277.38 395.42   Q 280.56 395.83 283.80 395.68   Q 302.67 394.84 320.75 394.07   Q 328.22 393.76 333.92 390.54   Q 335.89 389.44 337.74 389.33   Q 351.41 388.54 364.36 387.95   Q 367.55 387.81 370.57 387.22   Q 373.36 386.69 376.74 386.18   Q 392.07 383.90 405.37 381.76   Q 414.35 380.31 418.46 378.36   Q 424.87 375.32 429.34 369.61   Q 436.31 360.71 435.68 348.86   Q 429.00 304.31 422.52 259.46   Q 420.72 247.00 419.09 243.54   Q 414.69 234.18 405.94 229.17   Q 405.53 228.93 405.50 228.47   Q 405.26 224.73 406.98 221.16   Q 424.47 185.83 430.85 172.09   Q 434.20 164.88 432.93 156.05   C 430.56 141.28 418.77 130.69 403.76 130.08   Q 386.63 129.39 368.95 128.78   Q 366.14 128.68 363.29 127.80   C 355.45 125.38 348.66 127.19 340.88 128.43   Q 340.30 128.53 339.77 128.28   Q 333.21 125.23 326.54 125.53   Q 319.29 125.85 309.51 126.66   Q 287.26 128.52 266.71 136.14   Q 266.18 136.34 265.65 136.13   C 245.81 128.49 223.55 129.03 202.57 132.99   C 200.12 133.46 197.87 132.40 195.40 132.33   Q 184.36 132.04 172.76 131.55   Q 157.70 130.91 153.93 131.70   Q 143.58 133.86 136.89 141.94   Q 136.51 142.41 135.90 142.39   Q 108.08 141.42 81.00 140.48   C 67.31 140.01 55.52 147.95 50.97 160.88   Q 49.49 165.08 49.49 174.09   Q 49.50 187.00 50.09 199.61   Z"
          id="path174" />
        <path
          fill="#94c11f"
          d="   M 432.93 156.05   Q 432.20 160.34 430.30 164.31   Q 418.62 188.68 406.72 212.95   C 405.64 215.14 405.61 217.17 405.40 219.52   Q 405.28 220.95 406.98 221.16   Q 405.26 224.73 405.50 228.47   Q 405.53 228.93 405.94 229.17   Q 414.69 234.18 419.09 243.54   Q 420.72 247.00 422.52 259.46   Q 429.00 304.31 435.68 348.86   Q 434.51 351.11 433.60 353.21   Q 432.23 356.35 431.52 357.55   Q 424.30 369.71 410.16 372.19   Q 398.32 374.28 380.34 376.95   C 377.02 377.45 373.70 377.74 370.48 378.40   Q 367.48 379.02 364.54 379.15   Q 351.80 379.75 337.50 380.56   Q 335.78 380.66 334.06 381.64   Q 328.12 385.01 321.80 385.31   Q 303.71 386.18 283.28 387.01   C 279.14 387.18 275.40 386.12 271.37 386.32   Q 261.37 386.81 251.88 387.52   Q 237.04 388.64 226.78 378.35   Q 226.41 377.98 225.92 378.17   Q 200.59 388.02 174.95 379.96   Q 174.48 379.81 174.06 380.07   Q 171.81 381.47 169.33 382.21   Q 155.94 386.23 142.07 390.65   Q 133.47 393.39 128.32 393.55   C 117.28 393.89 107.41 388.46 101.61 378.90   Q 98.86 374.38 96.75 365.52   Q 92.74 348.69 88.82 333.77   A 0.90 0.88 -1.9 0 0 88.11 333.12   Q 72.16 330.53 65.02 317.14   Q 63.66 314.57 59.04 298.89   Q 55.84 288.04 52.56 277.32   L 53.66 272.10   Q 54.89 274.08 56.69 272.46   Q 63.18 266.57 70.02 260.06   A 1.23 1.22 59.6 0 0 70.34 258.82   Q 69.98 257.62 68.25 258.01   Q 61.14 259.64 55.84 267.18   Q 59.70 258.49 68.20 254.19   A 1.18 1.17 77.0 0 0 68.84 253.16   L 69.26 231.35   L 69.27 223.24   Q 69.27 222.74 68.81 222.54   Q 53.92 216.06 50.09 199.61   Q 49.50 187.00 49.49 174.09   Q 49.49 165.08 50.97 160.88   C 55.52 147.95 67.31 140.01 81.00 140.48   Q 108.08 141.42 135.90 142.39   Q 136.51 142.41 136.89 141.94   Q 143.58 133.86 153.93 131.70   Q 157.70 130.91 172.76 131.55   Q 184.36 132.04 195.40 132.33   C 197.87 132.40 200.12 133.46 202.57 132.99   C 223.55 129.03 245.81 128.49 265.65 136.13   Q 266.18 136.34 266.71 136.14   Q 287.26 128.52 309.51 126.66   Q 319.29 125.85 326.54 125.53   Q 333.21 125.23 339.77 128.28   Q 340.30 128.53 340.88 128.43   C 348.66 127.19 355.45 125.38 363.29 127.80   Q 366.14 128.68 368.95 128.78   Q 386.63 129.39 403.76 130.08   C 418.77 130.69 430.56 141.28 432.93 156.05   Z   M 340.53 130.85   C 336.56 128.63 331.60 128.29 327.23 128.57   Q 301.60 130.23 277.01 135.86   Q 275.27 136.26 274.13 137.21   Q 273.10 138.06 274.42 138.23   Q 275.61 138.38 276.77 138.19   Q 292.42 135.55 307.50 133.71   Q 319.82 132.21 330.64 133.00   C 333.90 133.24 337.29 132.93 340.41 131.99   A 0.62 0.62 0.0 0 0 340.53 130.85   Z   M 218.21 135.52   A 0.25 0.25 0.0 0 0 218.34 135.97   L 244.71 137.35   Q 245.64 137.40 245.17 136.60   C 243.69 134.09 240.84 133.17 238.05 133.20   Q 229.28 133.30 220.36 133.18   Q 219.87 133.17 219.72 133.64   Q 219.41 134.67 218.21 135.52   Z   M 361.1985 135.0668   A 2.81 2.08 -1.9 0 0 358.3210 133.0811   A 2.81 2.08 -1.9 0 0 355.5815 135.2532   A 2.81 2.08 -1.9 0 0 358.4590 137.2389   A 2.81 2.08 -1.9 0 0 361.1985 135.0668   Z   M 386.79 133.58   Q 382.04 133.97 376.95 133.67   Q 376.78 133.66 376.74 133.83   L 376.69 134.11   Q 376.58 134.65 377.11 134.83   Q 384.07 137.13 389.96 137.27   C 397.95 137.47 404.31 137.43 411.89 140.95   Q 420.67 145.03 425.23 149.36   Q 425.82 149.92 425.64 149.13   C 423.45 139.58 414.84 134.06 405.39 133.32   Q 397.61 132.70 386.79 133.58   Z   M 142.88 140.83   Q 142.74 141.20 142.64 141.43   Q 141.72 143.75 144.16 143.26   Q 162.67 139.54 183.00 139.03   Q 189.24 138.88 195.52 138.59   Q 195.58 138.59 195.58 138.53   L 195.59 138.26   A 0.28 0.28 0.0 0 0 195.34 137.97   Q 181.17 136.12 160.55 135.50   Q 152.53 135.25 146.24 137.56   Q 143.83 138.44 142.88 140.83   Z   M 214.29 141.27   A 5.47 3.28 -16.4 0 0 211.71 144.22   A 5.49 3.31 -16.3 0 0 213.52 146.90   A 5.49 3.31 -16.4 0 0 222.29 143.24   A 5.47 3.29 -16.3 0 0 221.51 141.04   A 5.48 3.30 -16.5 0 0 214.29 141.27   Z   M 58.04 153.79   Q 55.82 157.95 54.54 162.62   Q 53.92 164.91 55.64 166.55   L 56.72 167.57   Q 58.38 169.15 58.89 166.92   C 60.21 161.16 62.58 154.58 67.97 151.48   C 69.92 150.35 72.73 148.81 73.41 146.51   Q 73.62 145.79 72.88 145.94   C 66.94 147.13 61.19 147.90 58.04 153.79   Z   M 340.09 148.63   Q 336.76 151.10 333.64 153.26   Q 332.17 154.28 333.95 154.12   Q 337.81 153.77 341.41 153.13   Q 345.25 152.44 344.85 148.95   A 1.87 1.87 0.0 0 0 342.37 147.40   Q 341.19 147.81 340.09 148.63   Z   M 257.62 162.52   Q 251.13 159.62 243.79 158.63   C 230.90 156.91 217.96 158.16 205.24 160.37   C 189.93 155.49 171.47 150.30 155.61 155.45   C 151.36 156.83 147.66 159.24 143.69 161.14   C 142.21 161.85 139.58 162.53 138.25 162.51   Q 129.41 162.38 126.25 162.55   Q 113.77 163.24 102.10 168.42   L 79.81 167.93   A 3.00 3.00 0.0 0 0 76.74 171.01   L 77.22 192.24   C 72.28 197.11 68.11 206.14 78.54 208.19   C 86.10 209.67 91.70 209.35 95.06 217.71   Q 96.75 221.90 96.81 225.20   L 96.69 228.73   Q 95.52 231.21 94.74 233.69   C 92.38 241.23 89.03 248.56 86.04 256.01   Q 82.06 265.94 75.59 278.30   Q 73.77 281.78 76.18 284.57   C 78.72 287.51 80.24 290.10 81.18 294.03   Q 81.89 297.00 82.69 300.00   Q 84.04 305.06 87.37 306.72   L 89.01 312.51   A 2.84 2.84 0.0 0 0 92.31 314.52   L 104.72 311.94   C 106.38 314.92 108.31 317.46 109.02 320.74   Q 110.62 328.13 112.21 335.51   Q 113.56 341.76 118.38 347.63   L 124.65 372.67   A 2.95 2.93 -15.5 0 0 128.37 374.76   L 161.27 364.65   Q 174.86 367.00 178.36 367.41   Q 188.97 368.67 200.77 364.79   Q 208.08 364.17 215.00 361.64   Q 218.67 361.54 222.25 361.27   C 226.66 360.92 232.32 361.29 234.89 365.23   Q 236.38 367.51 238.14 369.28   C 243.79 374.94 254.04 372.87 260.30 369.05   Q 264.93 366.23 266.54 364.94   L 280.79 364.25   Q 281.50 364.22 281.74 364.89   Q 281.81 365.08 281.94 365.24   Q 282.16 365.52 282.52 365.50   L 319.13 363.92   A 0.37 0.36 1.9 0 0 319.47 363.61   L 320.37 357.15   L 327.79 356.44   L 328.26 359.74   A 2.73 2.72 -5.5 0 0 331.10 362.07   Q 348.60 361.11 364.53 360.31   C 368.65 360.11 367.47 354.57 367.07 352.12   Q 366.97 351.50 367.36 351.98   C 367.71 352.42 367.76 352.96 368.04 353.42   C 369.16 355.22 370.11 357.75 371.97 358.86   Q 372.39 359.12 372.89 359.07   L 376.62 358.66   Q 383.50 360.49 390.50 360.95   Q 398.79 361.49 406.11 359.04   Q 414.37 356.27 413.47 347.31   Q 411.93 331.84 407.99 316.23   C 405.65 306.93 401.22 297.76 403.25 287.98   C 404.98 279.65 408.97 271.45 408.04 262.25   Q 406.97 251.77 396.94 249.07   Q 395.37 248.68 393.85 247.68   C 388.26 244.30 381.99 240.77 380.61 234.33   Q 380.41 233.39 380.61 228.19   Q 380.79 223.53 378.84 219.56   Q 378.30 217.41 379.22 215.50   Q 386.97 199.54 394.60 184.23   Q 400.33 176.96 404.71 169.21   C 407.80 163.74 410.61 153.77 400.74 153.33   Q 382.33 152.51 358.26 151.84   Q 352.72 151.69 348.17 155.03   L 330.12 158.10   Q 329.46 158.21 329.50 157.54   L 329.61 155.62   A 2.49 2.49 0.0 0 0 326.94 152.99   L 312.47 154.08   Q 311.85 154.00 311.68 153.71   Q 311.24 152.98 310.51 152.56   C 304.70 149.18 296.73 149.61 290.25 151.62   C 282.62 153.99 274.90 157.47 266.86 159.82   Q 262.29 161.15 257.62 162.52   Z   M 90.6255 157.2323   A 2.74 2.03 -3.3 0 0 87.7731 155.3634   A 2.74 2.03 -3.3 0 0 85.1545 157.5477   A 2.74 2.03 -3.3 0 0 88.0069 159.4166   A 2.74 2.03 -3.3 0 0 90.6255 157.2323   Z   M 393.94 203.82   A 5.51 3.32 -15.7 0 0 391.66 206.45   A 5.54 3.35 -15.5 0 0 393.04 209.14   A 5.53 3.33 -15.8 0 0 398.23 209.22   A 5.53 3.34 -15.7 0 0 401.82 203.77   A 5.53 3.34 -15.7 0 0 393.94 203.82   Z   M 406.27 235.99   C 409.60 240.07 411.79 244.74 412.68 250.06   Q 413.20 253.21 415.29 255.16   A 0.83 0.83 0.0 0 0 416.68 254.69   Q 418.79 242.24 408.11 235.06   Q 407.25 234.48 406.40 235.07   A 0.63 0.63 0.0 0 0 406.27 235.99   Z   M 61.3203 283.6911   A 4.77 2.46 113.6 0 0 65.4843 280.3049   A 4.77 2.46 113.6 0 0 65.1397 274.9489   A 4.77 2.46 113.6 0 0 60.9757 278.3351   A 4.77 2.46 113.6 0 0 61.3203 283.6911   Z   M 405.31 293.60   C 405.86 297.82 405.98 302.43 406.87 306.54   Q 407.08 307.50 408.05 307.83   A 0.62 0.61 -77.2 0 0 408.86 307.31   Q 410.29 294.43 411.06 280.76   Q 411.10 279.96 410.48 279.46   A 0.53 0.53 0.0 0 0 409.69 279.61   C 407.54 283.30 404.75 289.23 405.31 293.60   Z   M 70.12 316.92   Q 74.53 325.23 82.37 326.53   Q 84.44 326.88 82.72 325.67   C 77.92 322.26 74.83 317.27 69.87 313.78   Q 68.57 312.87 69.05 314.38   Q 69.49 315.74 70.12 316.92   Z   M 105.6461 320.9827   A 3.52 1.06 18.6 0 0 102.6481 318.8554   A 3.52 1.06 18.6 0 0 98.9739 318.7373   A 3.52 1.06 18.6 0 0 101.9719 320.8646   A 3.52 1.06 18.6 0 0 105.6461 320.9827   Z   M 422.50 325.59   A 2.71 1.94 -2.1 0 0 425.00 328.36   A 2.72 1.95 -2.3 0 0 427.56 326.80   A 2.70 1.93 -2.2 0 0 427.19 325.31   A 2.71 1.94 -2.0 0 0 422.50 325.59   Z   M 101.3877 347.7364   A 2.83 2.07 -2.3 0 0 98.4769 345.7817   A 2.83 2.07 -2.3 0 0 95.7323 347.9636   A 2.83 2.07 -2.3 0 0 98.6431 349.9183   A 2.83 2.07 -2.3 0 0 101.3877 347.7364   Z   M 413.83 363.32   L 412.84 364.71   Q 412.28 365.50 413.25 365.52   Q 415.61 365.58 417.48 364.17   Q 424.23 359.10 430.11 352.43   C 430.83 351.62 431.55 351.14 431.22 349.91   A 0.54 0.54 0.0 0 0 430.24 349.76   C 427.13 354.62 421.32 357.73 416.16 360.43   Q 414.87 361.11 414.31 362.45   Q 414.12 362.91 413.83 363.32   Z   M 371.5952 367.5564   A 7.12 4.32 -17.1 0 0 363.5197 365.5210   A 7.12 4.32 -17.1 0 0 357.9848 371.7436   A 7.12 4.32 -17.1 0 0 366.0603 373.7790   A 7.12 4.32 -17.1 0 0 371.5952 367.5564   Z   M 165.3566 372.2308   A 2.85 2.00 -2.8 0 0 162.4123 370.3724   A 2.85 2.00 -2.8 0 0 159.6634 372.5092   A 2.85 2.00 -2.8 0 0 162.6077 374.3676   A 2.85 2.00 -2.8 0 0 165.3566 372.2308   Z   M 214.41 375.51   Q 203.65 376.34 191.81 376.64   Q 189.69 376.69 187.72 377.94   Q 187.41 378.14 187.40 378.50   A 0.69 0.68 -87.9 0 0 188.05 379.21   Q 200.76 379.92 212.08 379.33   A 3.13 3.05 -53.9 0 0 212.73 379.22   Q 216.58 378.18 215.57 376.16   A 1.18 1.18 0.0 0 0 214.41 375.51   Z   M 246.86 382.43   C 242.93 379.15 238.27 377.26 233.22 376.75   Q 231.63 376.59 232.79 377.69   Q 236.42 381.13 241.30 383.13   C 242.96 383.80 244.82 383.55 246.55 383.40   A 0.55 0.55 0.0 0 0 246.86 382.43   Z   M 311.40 382.45   C 316.35 382.59 324.18 383.57 327.66 379.14   Q 328.60 377.93 327.13 378.36   Q 319.66 380.52 312.46 380.68   A 1.53 1.52 -75.7 0 0 311.17 381.45   L 311.00 381.75   A 0.47 0.47 0.0 0 0 311.40 382.45   Z   M 109.95 380.47   Q 109.54 379.81 108.79 379.82   Q 107.93 379.83 108.58 380.40   Q 109.14 380.90 109.86 381.16   A 2.55 2.53 76.6 0 1 110.73 381.70   Q 117.37 387.83 126.49 386.90   Q 127.19 386.83 126.81 386.23   Q 126.70 386.05 126.50 385.95   Q 118.75 382.24 111.19 381.25   Q 110.39 381.15 109.95 380.47   Z"
          id="path175" />
        <path
          fill="#b5cf61"
          d="   M 327.23 128.57   C 331.60 128.29 336.56 128.63 340.53 130.85   A 0.62 0.62 0.0 0 1 340.41 131.99   C 337.29 132.93 333.90 133.24 330.64 133.00   Q 319.82 132.21 307.50 133.71   Q 292.42 135.55 276.77 138.19   Q 275.61 138.38 274.42 138.23   Q 273.10 138.06 274.13 137.21   Q 275.27 136.26 277.01 135.86   Q 301.60 130.23 327.23 128.57   Z"
          id="path176" />
        <path
          fill="#b5cf61"
          d="   M 218.21 135.52   Q 219.41 134.67 219.72 133.64   Q 219.87 133.17 220.36 133.18   Q 229.28 133.30 238.05 133.20   C 240.84 133.17 243.69 134.09 245.17 136.60   Q 245.64 137.40 244.71 137.35   L 218.34 135.97   A 0.25 0.25 0.0 0 1 218.21 135.52   Z"
          id="path177" />
        <path
          fill="#830004"
          d="   M 361.1985 135.0668   A 2.81 2.08 -1.9 0 1 358.4590 137.2389   A 2.81 2.08 -1.9 0 1 355.5815 135.2532   A 2.81 2.08 -1.9 0 1 358.3210 133.0811   A 2.81 2.08 -1.9 0 1 361.1985 135.0668   Z   M 360.3073 135.0679   A 1.95 1.46 -3.0 0 0 358.2836 133.7120   A 1.95 1.46 -3.0 0 0 356.4127 135.2721   A 1.95 1.46 -3.0 0 0 358.4364 136.6280   A 1.95 1.46 -3.0 0 0 360.3073 135.0679   Z"
          id="path178" />
        <path
          fill="#b5cf61"
          d="   M 386.79 133.58   Q 397.61 132.70 405.39 133.32   C 414.84 134.06 423.45 139.58 425.64 149.13   Q 425.82 149.92 425.23 149.36   Q 420.67 145.03 411.89 140.95   C 404.31 137.43 397.95 137.47 389.96 137.27   Q 384.07 137.13 377.11 134.83   Q 376.58 134.65 376.69 134.11   L 376.74 133.83   Q 376.78 133.66 376.95 133.67   Q 382.04 133.97 386.79 133.58   Z"
          id="path179" />
        <ellipse
          fill="#cc000e"
          cx="0.00"
          cy="0.00"
          transform="translate(358.36,135.17) rotate(-3.0)"
          rx="1.95"
          ry="1.46"
          id="ellipse179" />
        <path
          fill="#b5cf61"
          d="   M 146.24 137.56   Q 152.53 135.25 160.55 135.50   Q 181.17 136.12 195.34 137.97   A 0.28 0.28 0.0 0 1 195.59 138.26   L 195.58 138.53   Q 195.58 138.59 195.52 138.59   Q 189.24 138.88 183.00 139.03   Q 162.67 139.54 144.16 143.26   Q 141.72 143.75 142.64 141.43   Q 142.74 141.20 142.88 140.83   Q 143.83 138.44 146.24 137.56   Z"
          id="path180" />
        <path
          fill="#cc000e"
          d="   M 222.29 143.24   Q 219.09 146.26 215.23 146.52   Q 212.44 146.70 212.46 144.04   A 1.10 1.07 -20.6 0 1 212.85 143.21   Q 213.96 142.29 214.29 141.27   A 5.48 3.30 -16.5 0 1 221.51 141.04   A 5.47 3.29 -16.3 0 1 222.29 143.24   Z"
          id="path181" />
        <path
          fill="#0a0607"
          d="   M 214.29 141.27   Q 213.96 142.29 212.85 143.21   A 1.10 1.07 -20.6 0 0 212.46 144.04   Q 212.44 146.70 215.23 146.52   Q 219.09 146.26 222.29 143.24   A 5.49 3.31 -16.4 0 1 213.52 146.90   A 5.49 3.31 -16.3 0 1 211.71 144.22   A 5.47 3.28 -16.4 0 1 214.29 141.27   Z"
          id="path182" />
        <path
          fill="#b5cf61"
          d="   M 58.04 153.79   C 61.19 147.90 66.94 147.13 72.88 145.94   Q 73.62 145.79 73.41 146.51   C 72.73 148.81 69.92 150.35 67.97 151.48   C 62.58 154.58 60.21 161.16 58.89 166.92   Q 58.38 169.15 56.72 167.57   L 55.64 166.55   Q 53.92 164.91 54.54 162.62   Q 55.82 157.95 58.04 153.79   Z"
          id="path183" />
        <path
          fill="#b5cf61"
          d="   M 340.09 148.63   Q 341.19 147.81 342.37 147.40   A 1.87 1.87 0.0 0 1 344.85 148.95   Q 345.25 152.44 341.41 153.13   Q 337.81 153.77 333.95 154.12   Q 332.17 154.28 333.64 153.26   Q 336.76 151.10 340.09 148.63   Z"
          id="path184" />
        <path
          fill="#648636"
          d="   M 312.47 154.08   C 296.93 155.32 279.60 159.07 265.71 167.10   Q 265.29 167.35 264.87 167.09   L 257.62 162.52   Q 262.29 161.15 266.86 159.82   C 274.90 157.47 282.62 153.99 290.25 151.62   C 296.73 149.61 304.70 149.18 310.51 152.56   Q 311.24 152.98 311.68 153.71   Q 311.85 154.00 312.47 154.08   Z"
          id="path185" />
        <path
          fill="#648636"
          d="   M 394.60 184.23   L 404.97 162.69   Q 407.32 157.81 401.91 157.60   L 368.39 156.30   A 2.71 2.70 -77.7 0 0 365.79 157.97   L 361.97 167.22   Q 361.65 168.01 361.37 167.21   Q 359.46 161.69 357.74 156.52   Q 356.74 153.51 353.49 154.28   Q 350.98 154.87 348.17 155.03   Q 352.72 151.69 358.26 151.84   Q 382.33 152.51 400.74 153.33   C 410.61 153.77 407.80 163.74 404.71 169.21   Q 400.33 176.96 394.60 184.23   Z"
          id="path186" />
        <path
          fill="#0a0607"
          d="   M 348.17 155.03   Q 350.98 154.87 353.49 154.28   Q 356.74 153.51 357.74 156.52   Q 359.46 161.69 361.37 167.21   Q 361.65 168.01 361.97 167.22   L 365.79 157.97   A 2.71 2.70 -77.7 0 1 368.39 156.30   L 401.91 157.60   Q 407.32 157.81 404.97 162.69   L 394.60 184.23   Q 386.97 199.54 379.22 215.50   Q 378.30 217.41 378.84 219.56   L 376.12 242.35   L 374.96 253.30   Q 374.90 253.89 375.49 253.86   L 391.03 253.00   A 2.95 2.94 -5.7 0 1 394.10 255.51   L 397.12 275.96   L 408.10 350.87   A 2.57 2.56 -9.1 0 1 405.99 353.77   L 376.62 358.66   L 372.89 359.07   Q 372.39 359.12 371.97 358.86   C 370.11 357.75 369.16 355.22 368.04 353.42   C 367.76 352.96 367.71 352.42 367.36 351.98   Q 366.97 351.50 367.07 352.12   C 367.47 354.57 368.65 360.11 364.53 360.31   Q 348.60 361.11 331.10 362.07   A 2.73 2.72 -5.5 0 1 328.26 359.74   L 327.79 356.44   L 327.30 351.70   L 324.47 328.55   Q 324.21 326.43 323.94 328.55   L 321.25 350.18   L 320.37 357.15   L 319.47 363.61   A 0.37 0.36 1.9 0 1 319.13 363.92   L 282.52 365.50   Q 282.16 365.52 281.94 365.24   Q 281.81 365.08 281.74 364.89   Q 281.50 364.22 280.79 364.25   L 266.54 364.94   L 249.01 366.02   A 0.73 0.72 -6.7 0 1 248.25 365.43   L 244.93 346.87   L 242.13 332.54   Q 242.02 332.01 241.82 332.52   Q 236.78 345.35 226.04 355.23   Q 221.27 358.86 215.00 361.64   Q 208.08 364.17 200.77 364.79   Q 182.03 365.46 168.50 354.08   Q 160.98 347.51 156.85 339.79   Q 155.92 338.05 156.38 339.97   L 159.93 354.62   Q 162.56 361.20 161.27 364.65   L 128.37 374.76   A 2.95 2.93 -15.5 0 1 124.65 372.67   L 118.38 347.63   L 109.44 311.40   A 0.43 0.42 -12.8 0 0 108.94 311.09   L 104.72 311.94   L 92.31 314.52   A 2.84 2.84 0.0 0 1 89.01 312.51   L 87.37 306.72   L 80.05 281.44   A 2.85 2.85 0.0 0 1 82.16 277.86   L 90.76 275.92   L 98.85 274.03   Q 99.85 273.79 98.85 273.55   Q 95.67 272.76 95.97 269.75   Q 96.40 265.55 96.32 250.32   L 96.69 228.73   L 96.81 225.20   L 97.26 207.56   Q 97.27 207.04 96.75 207.01   L 80.46 205.98   Q 77.39 205.79 77.35 202.71   L 77.22 192.24   L 76.74 171.01   A 3.00 3.00 0.0 0 1 79.81 167.93   L 102.10 168.42   L 156.73 170.52   Q 157.27 170.54 157.27 169.99   L 157.22 161.51   A 2.68 2.68 0.0 0 1 159.98 158.81   L 193.81 159.77   Q 194.36 159.79 194.77 160.13   Q 195.52 160.76 195.79 161.64   Q 196.00 162.33 196.70 162.18   L 205.24 160.37   C 217.96 158.16 230.90 156.91 243.79 158.63   Q 251.13 159.62 257.62 162.52   L 264.87 167.09   Q 265.29 167.35 265.71 167.10   C 279.60 159.07 296.93 155.32 312.47 154.08   L 326.94 152.99   A 2.49 2.49 0.0 0 1 329.61 155.62   L 329.50 157.54   Q 329.46 158.21 330.12 158.10   L 348.17 155.03   Z   M 286.56 195.28   Q 284.43 194.55 286.57 193.86   C 297.14 190.40 309.46 189.84 320.62 189.99   C 322.34 190.01 324.16 189.23 324.22 187.26   Q 324.58 175.27 325.29 160.98   C 325.37 159.32 324.58 157.38 322.64 157.46   C 303.27 158.31 259.72 163.20 254.87 187.95   C 253.42 195.34 255.29 204.56 260.19 210.38   Q 267.42 219.00 280.01 220.24   Q 288.84 221.12 298.26 221.54   Q 300.63 221.64 302.82 222.45   A 0.60 0.60 0.0 0 1 302.93 223.51   Q 299.43 225.74 295.00 226.33   Q 284.53 227.72 273.98 228.21   Q 268.71 228.45 263.30 227.74   A 2.99 2.99 0.0 0 0 259.94 231.03   Q 261.39 244.16 262.56 255.42   Q 262.82 257.86 265.23 257.88   C 287.69 258.07 344.63 251.17 333.24 214.22   C 330.33 204.78 321.03 198.56 311.45 197.68   Q 302.22 196.83 290.80 196.11   Q 288.61 195.98 286.56 195.28   Z   M 360.81 178.58   L 354.65 160.36   A 2.41 2.39 76.1 0 0 352.00 158.75   L 329.62 162.28   A 0.40 0.39 85.8 0 0 329.29 162.67   Q 329.25 168.16 328.81 173.94   Q 328.66 175.89 329.41 177.59   Q 338.43 197.96 346.34 215.53   Q 346.55 215.99 346.49 216.49   Q 344.51 233.88 342.46 251.31   C 342.24 253.23 342.48 255.35 345.00 255.45   Q 351.34 255.71 357.00 255.12   Q 363.46 254.45 370.01 254.28   A 0.82 0.82 0.0 0 0 370.80 253.55   L 374.86 215.32   A 3.06 2.95 62.3 0 1 375.13 214.39   L 399.05 165.26   A 2.66 2.66 0.0 0 0 396.76 161.44   L 371.18 160.46   A 2.73 2.71 12.2 0 0 368.56 162.14   L 361.70 178.61   Q 361.21 179.78 360.81 178.58   Z   M 234.24 226.64   Q 246.14 221.16 256.23 212.58   A 0.30 0.28 52.3 0 0 256.27 212.18   Q 250.87 204.77 250.30 194.86   Q 249.45 180.05 261.52 170.39   Q 261.96 170.04 261.50 169.71   C 252.09 162.97 239.72 161.37 228.43 161.82   Q 210.90 162.51 192.38 167.74   C 190.98 168.13 189.69 169.42 190.06 170.97   Q 200.86 216.66 210.91 257.72   A 2.55 2.55 0.0 0 0 213.81 259.63   L 237.95 255.67   A 2.77 2.77 0.0 0 0 240.18 252.24   L 233.82 227.52   Q 233.66 226.90 234.24 226.64   Z   M 185.02 167.80   C 184.47 165.45 187.98 164.38 189.87 164.34   Q 189.93 164.34 189.93 164.28   L 189.91 163.99   Q 189.88 163.73 189.62 163.72   L 164.02 162.96   A 2.73 2.73 0.0 0 0 161.21 165.73   L 162.45 255.53   A 2.73 2.72 -89.0 0 0 165.03 258.21   L 189.56 259.48   A 2.90 2.90 0.0 0 0 192.60 256.56   Q 192.35 229.57 192.30 202.15   Q 192.29 197.65 191.39 194.05   Q 188.36 181.94 185.02 167.80   Z   M 101.59 203.90   L 100.24 266.26   A 2.95 2.95 0.0 0 0 103.32 269.27   Q 110.39 268.97 118.14 268.79   C 122.23 268.70 126.07 267.42 129.98 266.53   Q 130.59 266.39 130.60 265.76   L 131.57 204.75   Q 131.58 204.19 132.14 204.19   L 150.77 204.33   Q 153.80 204.35 153.88 201.32   L 154.49 177.33   A 2.75 2.74 1.7 0 0 151.83 174.52   L 84.32 172.26   Q 81.04 172.15 81.09 175.43   L 81.48 199.21   A 2.92 2.91 -88.7 0 0 84.21 202.07   L 100.90 203.14   Q 101.61 203.19 101.59 203.90   Z   M 265.28 266.96   L 265.48 268.55   Q 265.56 269.28 266.30 269.22   L 291.86 267.38   A 0.50 0.49 82.4 0 1 292.39 267.79   L 295.08 282.95   Q 295.29 284.12 295.49 282.95   Q 296.90 274.87 297.71 266.27   Q 297.75 265.77 298.25 265.79   L 316.27 266.78   Q 317.77 266.87 317.35 265.42   Q 315.75 259.97 320.67 259.72   Q 328.73 259.32 337.03 258.29   Q 337.50 258.23 337.56 257.76   L 342.21 217.23   Q 342.27 216.70 342.05 216.20   L 329.02 186.73   Q 328.61 185.79 328.42 186.80   C 327.87 189.68 329.52 193.95 324.79 193.90   Q 321.27 193.87 317.34 193.93   Q 315.47 193.96 317.22 194.61   Q 318.60 195.13 319.98 195.61   C 327.81 198.37 334.18 204.26 336.84 212.08   Q 340.12 221.68 337.86 230.52   C 332.23 252.57 299.96 259.36 280.76 261.11   Q 271.00 262.01 261.53 262.12   A 2.73 2.72 86.7 0 1 258.80 259.68   L 255.35 227.13   Q 254.93 223.22 258.86 223.50   Q 264.98 223.95 272.17 224.26   Q 278.94 224.54 272.37 222.88   Q 265.59 221.16 259.70 215.90   Q 259.24 215.49 258.76 215.89   Q 249.10 223.88 239.02 228.83   A 0.70 0.70 0.0 0 0 238.65 229.63   L 245.35 255.60   A 2.73 2.73 0.0 0 1 243.13 258.98   L 215.50 263.37   Q 214.09 263.59 215.39 264.17   Q 224.34 268.21 230.86 275.64   Q 232.00 276.94 231.68 275.24   L 230.50 268.94   Q 230.37 268.25 231.07 268.21   L 264.46 266.27   Q 265.19 266.23 265.28 266.96   Z   M 154.55 208.60   Q 145.19 208.50 136.01 208.39   A 0.33 0.32 0.0 0 0 135.68 208.71   L 134.77 264.83   A 0.49 0.49 0.0 0 0 135.37 265.31   Q 145.44 262.82 155.50 260.44   Q 156.73 260.15 158.02 260.34   Q 158.48 260.41 158.48 259.94   L 157.75 208.02   Q 157.74 207.50 157.30 207.77   Q 155.91 208.62 154.55 208.60   Z   M 196.35 216.79   L 196.63 259.74   Q 196.64 260.35 197.25 260.33   Q 202.01 260.22 206.70 261.28   Q 207.47 261.45 207.29 260.68   L 196.80 216.73   A 0.23 0.23 0.0 0 0 196.35 216.79   Z   M 360.52 276.32   Q 360.76 278.19 359.95 276.49   L 353.28 262.60   A 2.62 2.62 0.0 0 0 350.66 261.12   L 323.97 263.66   A 2.81 2.81 0.0 0 0 321.44 266.79   L 331.90 355.34   A 2.82 2.81 -4.9 0 0 334.85 357.82   L 360.22 356.47   A 2.64 2.64 0.0 0 0 362.70 353.52   L 359.77 328.53   Q 359.58 326.91 360.32 328.36   L 372.93 352.97   Q 373.85 354.76 375.83 354.44   L 401.29 350.29   A 2.72 2.72 0.0 0 0 403.54 347.21   L 390.48 259.75   Q 390.10 257.17 387.49 257.32   L 361.52 258.90   Q 357.89 259.12 358.49 262.71   Q 359.67 269.86 360.52 276.32   Z   M 163.55 275.47   C 168.14 270.08 173.58 266.46 180.07 263.46   Q 181.13 262.97 179.96 262.92   L 160.00 262.02   Q 159.50 261.99 159.62 262.48   L 162.78 275.29   Q 162.98 276.13 163.55 275.47   Z   M 199.6077 360.8640   A 48.32 43.46 87.5 0 0 240.9186 310.6943   A 48.32 43.46 87.5 0 0 195.3923 264.3160   A 48.32 43.46 87.5 0 0 154.0814 314.4857   A 48.32 43.46 87.5 0 0 199.6077 360.8640   Z   M 112.62 306.91   L 127.76 367.52   A 2.78 2.78 0.0 0 0 131.27 369.50   L 155.30 362.13   A 2.57 2.56 74.2 0 0 157.02 359.04   L 141.69 299.67   A 0.56 0.55 76.3 0 1 142.09 299.00   L 151.54 296.57   Q 152.11 296.43 152.29 295.86   Q 154.73 287.80 159.43 280.68   Q 159.76 280.18 159.62 279.60   L 156.80 267.78   Q 156.05 264.65 152.91 265.39   L 87.75 280.81   Q 84.45 281.60 85.38 284.86   L 91.93 307.74   A 2.86 2.85 76.2 0 0 95.24 309.75   L 111.75 306.36   Q 112.45 306.22 112.62 306.91   Z   M 265.84 297.53   Q 264.26 285.18 261.68 270.95   A 0.39 0.38 83.3 0 0 261.28 270.63   L 235.97 272.06   A 0.64 0.63 82.2 0 0 235.39 272.83   Q 236.31 276.99 236.97 281.25   Q 237.39 284.02 238.82 286.72   Q 246.26 300.82 244.70 319.15   Q 244.49 321.64 245.05 324.67   Q 248.40 342.90 251.73 361.25   A 0.50 0.49 -7.2 0 0 252.25 361.65   L 279.99 360.05   A 0.57 0.56 -88.7 0 0 280.51 359.54   Q 281.33 351.37 281.91 342.67   Q 281.92 342.51 282.07 342.49   Q 282.31 342.46 282.35 342.71   L 285.07 360.79   Q 285.13 361.19 285.54 361.17   L 315.15 359.92   A 0.97 0.96 -87.9 0 0 316.06 359.07   Q 318.79 336.27 321.82 313.08   Q 322.35 309.02 321.83 305.08   Q 319.81 289.90 318.01 271.70   A 0.76 0.75 88.2 0 0 317.30 271.02   L 302.04 270.16   Q 301.43 270.13 301.35 270.74   L 296.58 309.86   Q 296.28 312.36 295.83 309.88   L 289.01 272.32   Q 288.91 271.74 288.32 271.79   L 268.70 273.23   A 0.93 0.93 0.0 0 0 267.84 274.12   Q 267.42 285.34 266.54 297.51   Q 266.28 301.06 265.84 297.53   Z   M 150.21 314.31   Q 149.93 307.58 150.94 301.58   Q 151.03 301.03 150.49 301.16   L 147.25 301.92   A 0.64 0.64 0.0 0 0 146.78 302.69   Q 148.27 308.92 149.85 314.37   Q 150.27 315.80 150.21 314.31   Z"
          id="path187" />
        <path
          fill="#648636"
          d="   M 205.24 160.37   L 196.70 162.18   Q 196.00 162.33 195.79 161.64   Q 195.52 160.76 194.77 160.13   Q 194.36 159.79 193.81 159.77   L 159.98 158.81   A 2.68 2.68 0.0 0 0 157.22 161.51   L 157.27 169.99   Q 157.27 170.54 156.73 170.52   L 102.10 168.42   Q 113.77 163.24 126.25 162.55   Q 129.41 162.38 138.25 162.51   C 139.58 162.53 142.21 161.85 143.69 161.14   C 147.66 159.24 151.36 156.83 155.61 155.45   C 171.47 150.30 189.93 155.49 205.24 160.37   Z"
          id="path188" />
        <path
          fill="#830004"
          d="   M 90.6255 157.2323   A 2.74 2.03 -3.3 0 1 88.0069 159.4166   A 2.74 2.03 -3.3 0 1 85.1545 157.5477   A 2.74 2.03 -3.3 0 1 87.7731 155.3634   A 2.74 2.03 -3.3 0 1 90.6255 157.2323   Z   M 89.7585 157.3150   A 1.87 1.28 -2.3 0 0 87.8386 156.1110   A 1.87 1.28 -2.3 0 0 86.0215 157.4650   A 1.87 1.28 -2.3 0 0 87.9414 158.6690   A 1.87 1.28 -2.3 0 0 89.7585 157.3150   Z"
          id="path189" />
        <ellipse
          fill="#cc000e"
          cx="0.00"
          cy="0.00"
          transform="translate(87.89,157.39) rotate(-2.3)"
          rx="1.87"
          ry="1.28"
          id="ellipse189" />
        <path
          fill="#648636"
          d="   M 432.93 156.05   Q 434.20 164.88 430.85 172.09   Q 424.47 185.83 406.98 221.16   Q 405.28 220.95 405.40 219.52   C 405.61 217.17 405.64 215.14 406.72 212.95   Q 418.62 188.68 430.30 164.31   Q 432.20 160.34 432.93 156.05   Z"
          id="path190" />
        <path
          fill="#ffffff"
          d="   M 286.56 195.28   Q 288.61 195.98 290.80 196.11   Q 302.22 196.83 311.45 197.68   C 321.03 198.56 330.33 204.78 333.24 214.22   C 344.63 251.17 287.69 258.07 265.23 257.88   Q 262.82 257.86 262.56 255.42   Q 261.39 244.16 259.94 231.03   A 2.99 2.99 0.0 0 1 263.30 227.74   Q 268.71 228.45 273.98 228.21   Q 284.53 227.72 295.00 226.33   Q 299.43 225.74 302.93 223.51   A 0.60 0.60 0.0 0 0 302.82 222.45   Q 300.63 221.64 298.26 221.54   Q 288.84 221.12 280.01 220.24   Q 267.42 219.00 260.19 210.38   C 255.29 204.56 253.42 195.34 254.87 187.95   C 259.72 163.20 303.27 158.31 322.64 157.46   C 324.58 157.38 325.37 159.32 325.29 160.98   Q 324.58 175.27 324.22 187.26   C 324.16 189.23 322.34 190.01 320.62 189.99   C 309.46 189.84 297.14 190.40 286.57 193.86   Q 284.43 194.55 286.56 195.28   Z"
          id="path191" />
        <path
          fill="#ffffff"
          d="   M 360.81 178.58   Q 361.21 179.78 361.70 178.61   L 368.56 162.14   A 2.73 2.71 12.2 0 1 371.18 160.46   L 396.76 161.44   A 2.66 2.66 0.0 0 1 399.05 165.26   L 375.13 214.39   A 3.06 2.95 62.3 0 0 374.86 215.32   L 370.80 253.55   A 0.82 0.82 0.0 0 1 370.01 254.28   Q 363.46 254.45 357.00 255.12   Q 351.34 255.71 345.00 255.45   C 342.48 255.35 342.24 253.23 342.46 251.31   Q 344.51 233.88 346.49 216.49   Q 346.55 215.99 346.34 215.53   Q 338.43 197.96 329.41 177.59   Q 328.66 175.89 328.81 173.94   Q 329.25 168.16 329.29 162.67   A 0.40 0.39 85.8 0 1 329.62 162.28   L 352.00 158.75   A 2.41 2.39 76.1 0 1 354.65 160.36   L 360.81 178.58   Z"
          id="path192" />
        <path
          fill="#ffffff"
          d="   M 233.82 227.52   L 240.18 252.24   A 2.77 2.77 0.0 0 1 237.95 255.67   L 213.81 259.63   A 2.55 2.55 0.0 0 1 210.91 257.72   Q 200.86 216.66 190.06 170.97   C 189.69 169.42 190.98 168.13 192.38 167.74   Q 210.90 162.51 228.43 161.82   C 239.72 161.37 252.09 162.97 261.50 169.71   Q 261.96 170.04 261.52 170.39   Q 249.45 180.05 250.30 194.86   Q 250.87 204.77 256.27 212.18   A 0.30 0.28 52.3 0 1 256.23 212.58   Q 246.14 221.16 234.24 226.64   Q 233.66 226.90 233.82 227.52   Z   M 221.09 188.98   L 223.59 198.59   A 0.29 0.29 0.0 0 0 223.95 198.80   L 224.06 198.77   A 16.37 5.23 -14.6 0 0 238.59 189.58   L 238.57 189.53   A 16.37 5.23 -14.6 0 0 221.41 188.59   L 221.30 188.62   A 0.29 0.29 0.0 0 0 221.09 188.98   Z"
          id="path193" />
        <path
          fill="#ffffff"
          d="   M 189.87 164.34   C 187.98 164.38 184.47 165.45 185.02 167.80   Q 188.36 181.94 191.39 194.05   Q 192.29 197.65 192.30 202.15   Q 192.35 229.57 192.60 256.56   A 2.90 2.90 0.0 0 1 189.56 259.48   L 165.03 258.21   A 2.73 2.72 -89.0 0 1 162.45 255.53   L 161.21 165.73   A 2.73 2.73 0.0 0 1 164.02 162.96   L 189.62 163.72   Q 189.88 163.73 189.91 163.99   L 189.93 164.28   Q 189.93 164.34 189.87 164.34   Z"
          id="path194" />
        <path
          fill="#ffffff"
          d="   M 100.90 203.14   L 84.21 202.07   A 2.92 2.91 -88.7 0 1 81.48 199.21   L 81.09 175.43   Q 81.04 172.15 84.32 172.26   L 151.83 174.52   A 2.75 2.74 1.7 0 1 154.49 177.33   L 153.88 201.32   Q 153.80 204.35 150.77 204.33   L 132.14 204.19   Q 131.58 204.19 131.57 204.75   L 130.60 265.76   Q 130.59 266.39 129.98 266.53   C 126.07 267.42 122.23 268.70 118.14 268.79   Q 110.39 268.97 103.32 269.27   A 2.95 2.95 0.0 0 1 100.24 266.26   L 101.59 203.90   Q 101.61 203.19 100.90 203.14   Z"
          id="path195" />
        <path
          fill="#465f35"
          d="   M 264.46 266.27   L 231.07 268.21   Q 230.37 268.25 230.50 268.94   L 231.68 275.24   Q 232.00 276.94 230.86 275.64   Q 224.34 268.21 215.39 264.17   Q 214.09 263.59 215.50 263.37   L 243.13 258.98   A 2.73 2.73 0.0 0 0 245.35 255.60   L 238.65 229.63   A 0.70 0.70 0.0 0 1 239.02 228.83   Q 249.10 223.88 258.76 215.89   Q 259.24 215.49 259.70 215.90   Q 265.59 221.16 272.37 222.88   Q 278.94 224.54 272.17 224.26   Q 264.98 223.95 258.86 223.50   Q 254.93 223.22 255.35 227.13   L 258.80 259.68   A 2.73 2.72 86.7 0 0 261.53 262.12   Q 271.00 262.01 280.76 261.11   C 299.96 259.36 332.23 252.57 337.86 230.52   Q 340.12 221.68 336.84 212.08   C 334.18 204.26 327.81 198.37 319.98 195.61   Q 318.60 195.13 317.22 194.61   Q 315.47 193.96 317.34 193.93   Q 321.27 193.87 324.79 193.90   C 329.52 193.95 327.87 189.68 328.42 186.80   Q 328.61 185.79 329.02 186.73   L 342.05 216.20   Q 342.27 216.70 342.21 217.23   L 337.56 257.76   Q 337.50 258.23 337.03 258.29   Q 328.73 259.32 320.67 259.72   Q 315.75 259.97 317.35 265.42   Q 317.77 266.87 316.27 266.78   L 298.25 265.79   Q 297.75 265.77 297.71 266.27   Q 296.90 274.87 295.49 282.95   Q 295.29 284.12 295.08 282.95   L 292.39 267.79   A 0.50 0.49 82.4 0 0 291.86 267.38   L 266.30 269.22   Q 265.56 269.28 265.48 268.55   L 265.28 266.96   Q 265.19 266.23 264.46 266.27   Z"
          id="path196" />
        <path
          fill="#0a0607"
          d="   M 221.09 188.98   A 0.29 0.29 0.0 0 1 221.30 188.62   L 221.41 188.59   A 16.37 5.23 -14.6 0 1 238.57 189.53   L 238.59 189.58   A 16.37 5.23 -14.6 0 1 224.06 198.77   L 223.95 198.80   A 0.29 0.29 0.0 0 1 223.59 198.59   L 221.09 188.98   Z   M 230.22 191.59   Q 228.49 191.66 226.87 192.01   A 0.40 0.40 0.0 0 0 226.57 192.48   L 226.64 192.77   A 0.55 0.55 0.0 0 0 227.33 193.18   Q 228.92 192.73 230.32 191.95   Q 231.02 191.56 230.22 191.59   Z"
          id="path197" />
        <path
          fill="#465f35"
          d="   M 230.22 191.59   Q 231.02 191.56 230.32 191.95   Q 228.92 192.73 227.33 193.18   A 0.55 0.55 0.0 0 1 226.64 192.77   L 226.57 192.48   A 0.40 0.40 0.0 0 1 226.87 192.01   Q 228.49 191.66 230.22 191.59   Z"
          id="path198" />
        <path
          fill="#648636"
          d="   M 77.22 192.24   L 77.35 202.71   Q 77.39 205.79 80.46 205.98   L 96.75 207.01   Q 97.27 207.04 97.26 207.56   L 96.81 225.20   Q 96.75 221.90 95.06 217.71   C 91.70 209.35 86.10 209.67 78.54 208.19   C 68.11 206.14 72.28 197.11 77.22 192.24   Z"
          id="path199" />
        <path
          fill="#648636"
          d="   M 50.09 199.61   Q 53.92 216.06 68.81 222.54   Q 69.27 222.74 69.27 223.24   L 69.26 231.35   Q 52.59 224.30 50.07 206.50   Q 49.57 202.92 50.09 199.61   Z"
          id="path200" />
        <path
          fill="#cc000e"
          d="   M 401.82 203.77   Q 401.67 206.23 400.46 207.19   Q 398.17 209.00 394.43 209.08   A 1.92 1.91 -5.7 0 1 392.51 207.51   Q 392.26 206.15 393.94 203.82   A 5.53 3.34 -15.7 0 1 401.82 203.77   Z"
          id="path201" />
        <path
          fill="#0a0607"
          d="   M 393.94 203.82   Q 392.26 206.15 392.51 207.51   A 1.92 1.91 -5.7 0 0 394.43 209.08   Q 398.17 209.00 400.46 207.19   Q 401.67 206.23 401.82 203.77   A 5.53 3.34 -15.7 0 1 398.23 209.22   A 5.53 3.33 -15.8 0 1 393.04 209.14   A 5.54 3.35 -15.5 0 1 391.66 206.45   A 5.51 3.32 -15.7 0 1 393.94 203.82   Z"
          id="path202" />
        <path
          fill="#465f35"
          d="   M 154.55 208.60   Q 155.91 208.62 157.30 207.77   Q 157.74 207.50 157.75 208.02   L 158.48 259.94   Q 158.48 260.41 158.02 260.34   Q 156.73 260.15 155.50 260.44   Q 145.44 262.82 135.37 265.31   A 0.49 0.49 0.0 0 1 134.77 264.83   L 135.68 208.71   A 0.33 0.32 -0.0 0 1 136.01 208.39   Q 145.19 208.50 154.55 208.60   Z"
          id="path204" />
        <path
          fill="#0a0607"
          d="   M 496.89 227.96   Q 491.87 235.82 479.74 236.21   Q 465.58 236.68 452.26 230.69   Q 438.08 224.32 433.64 221.98   Q 431.95 221.20 431.08 220.33   A 1.37 1.37 0.0 0 1 431.86 218.01   C 447.30 215.79 462.69 207.62 477.97 209.55   Q 486.64 210.64 493.67 217.83   Q 497.33 221.58 496.89 227.96   Z   M 482.53 213.41   L 479.46 212.41   Q 468.33 210.72 455.71 214.68   Q 447.34 217.30 436.44 219.87   Q 435.76 220.03 436.37 220.37   Q 449.34 227.57 463.02 231.60   C 470.80 233.88 479.11 234.45 486.80 232.40   C 492.13 230.98 497.26 226.90 492.84 220.92   Q 488.97 215.68 482.53 213.41   Z"
          id="path205" />
        <path
          fill="#94c11f"
          d="   M 479.46 212.41   Q 473.21 212.31 467.06 212.97   Q 465.37 213.15 464.18 213.78   C 461.81 215.02 459.55 215.93 457.86 218.15   C 456.65 219.73 457.23 221.80 459.15 222.38   Q 465.16 224.17 471.77 223.30   Q 477.21 222.58 482.75 221.25   L 480.83 222.57   A 2.01 2.00 -32.2 0 0 480.22 225.22   Q 482.41 229.05 486.40 229.42   C 492.33 229.97 493.37 219.85 485.09 220.74   Q 487.57 219.38 485.64 216.00   Q 485.39 215.56 484.94 215.33   Q 483.54 214.62 482.53 213.41   Q 488.97 215.68 492.84 220.92   C 497.26 226.90 492.13 230.98 486.80 232.40   C 479.11 234.45 470.80 233.88 463.02 231.60   Q 449.34 227.57 436.37 220.37   Q 435.76 220.03 436.44 219.87   Q 447.34 217.30 455.71 214.68   Q 468.33 210.72 479.46 212.41   Z"
          id="path206" />
        <path
          fill="#b5cf61"
          d="   M 479.46 212.41   L 482.53 213.41   Q 483.54 214.62 484.94 215.33   Q 485.39 215.56 485.64 216.00   Q 487.57 219.38 485.09 220.74   L 482.75 221.25   Q 477.21 222.58 471.77 223.30   Q 465.16 224.17 459.15 222.38   C 457.23 221.80 456.65 219.73 457.86 218.15   C 459.55 215.93 461.81 215.02 464.18 213.78   Q 465.37 213.15 467.06 212.97   Q 473.21 212.31 479.46 212.41   Z"
          id="path207" />
        <path
          fill="#465f35"
          d="   M 196.35 216.79   A 0.23 0.23 0.0 0 1 196.80 216.73   L 207.29 260.68   Q 207.47 261.45 206.70 261.28   Q 202.01 260.22 197.25 260.33   Q 196.64 260.35 196.63 259.74   L 196.35 216.79   Z"
          id="path209" />
        <path
          fill="#648636"
          d="   M 378.84 219.56   Q 380.79 223.53 380.61 228.19   Q 380.41 233.39 380.61 234.33   C 381.99 240.77 388.26 244.30 393.85 247.68   Q 383.42 247.54 376.12 242.35   L 378.84 219.56   Z"
          id="path210" />
        <path
          fill="#830004"
          d="   M 485.09 220.74   C 493.37 219.85 492.33 229.97 486.40 229.42   Q 482.41 229.05 480.22 225.22   A 2.01 2.00 -32.2 0 1 480.83 222.57   L 482.75 221.25   L 485.09 220.74   Z   M 484.18 227.81   Q 486.16 228.72 488.01 228.54   Q 488.50 228.50 488.86 228.16   C 491.12 226.03 491.21 222.41 487.61 221.59   Q 484.71 220.93 481.15 223.52   Q 480.85 223.73 481.00 224.07   Q 481.91 226.09 483.35 227.45   Q 483.54 227.63 483.80 227.69   Q 484.00 227.73 484.18 227.81   Z"
          id="path211" />
        <path
          fill="#cc000e"
          d="   M 484.18 227.81   Q 484.00 227.73 483.80 227.69   Q 483.54 227.63 483.35 227.45   Q 481.91 226.09 481.00 224.07   Q 480.85 223.73 481.15 223.52   Q 484.71 220.93 487.61 221.59   C 491.21 222.41 491.12 226.03 488.86 228.16   Q 488.50 228.50 488.01 228.54   Q 486.16 228.72 484.18 227.81   Z"
          id="path212" />
        <path
          fill="#648636"
          d="   M 96.69 228.73   L 96.32 250.32   C 91.22 256.53 84.55 268.73 90.76 275.92   L 82.16 277.86   A 2.85 2.85 0.0 0 0 80.05 281.44   L 87.37 306.72   Q 84.04 305.06 82.69 300.00   Q 81.89 297.00 81.18 294.03   C 80.24 290.10 78.72 287.51 76.18 284.57   Q 73.77 281.78 75.59 278.30   Q 82.06 265.94 86.04 256.01   C 89.03 248.56 92.38 241.23 94.74 233.69   Q 95.52 231.21 96.69 228.73   Z"
          id="path213" />
        <path
          fill="#b5cf61"
          d="   M 412.68 250.06   C 411.79 244.74 409.60 240.07 406.27 235.99   A 0.63 0.63 0.0 0 1 406.40 235.07   Q 407.25 234.48 408.11 235.06   Q 418.79 242.24 416.68 254.69   A 0.83 0.83 0.0 0 1 415.29 255.16   Q 413.20 253.21 412.68 250.06   Z"
          id="path214" />
        <path
          fill="#465f35"
          d="   M 376.12 242.35   Q 383.42 247.54 393.85 247.68   Q 395.37 248.68 396.94 249.07   Q 400.70 252.59 402.24 254.51   Q 405.09 258.02 404.81 262.11   Q 404.63 264.78 401.92 268.79   Q 399.51 272.36 397.12 275.96   L 394.10 255.51   A 2.95 2.94 -5.7 0 0 391.03 253.00   L 375.49 253.86   Q 374.90 253.89 374.96 253.30   L 376.12 242.35   Z"
          id="path215" />
        <path
          fill="#0a0607"
          d="   M 48.85 250.85   Q 49.03 251.71 49.74 252.27   A 0.50 0.50 0.0 0 1 49.56 253.15   C 47.99 253.55 46.43 253.95 45.34 255.24   C 40.64 260.81 31.89 270.61 23.62 265.89   Q 16.35 261.74 16.06 254.20   C 15.86 249.11 19.52 244.56 24.71 244.13   C 32.80 243.46 38.23 247.00 45.16 250.24   Q 45.77 250.53 46.43 250.53   Q 47.41 250.54 47.84 250.34   Q 48.66 249.95 48.85 250.85   Z   M 36.44 249.01   L 30.99 247.02   Q 23.31 245.25 20.18 249.48   C 17.11 253.60 18.92 258.84 22.49 262.01   C 27.22 266.22 31.86 264.65 36.01 260.99   Q 40.32 257.20 43.67 253.21   Q 44.05 252.76 43.52 252.49   L 36.44 249.01   Z"
          id="path216" />
        <path
          fill="#94c11f"
          d="   M 30.99 247.02   C 29.06 247.53 25.55 248.34 25.48 250.98   Q 25.46 251.47 25.89 251.71   Q 30.19 254.12 35.17 253.59   Q 37.05 253.38 37.07 251.70   C 37.08 250.77 36.32 250.10 36.44 249.01   L 43.52 252.49   Q 44.05 252.76 43.67 253.21   Q 40.32 257.20 36.01 260.99   C 31.86 264.65 27.22 266.22 22.49 262.01   C 18.92 258.84 17.11 253.60 20.18 249.48   Q 23.31 245.25 30.99 247.02   Z"
          id="path217" />
        <path
          fill="#b5cf61"
          d="   M 30.99 247.02   L 36.44 249.01   C 36.32 250.10 37.08 250.77 37.07 251.70   Q 37.05 253.38 35.17 253.59   Q 30.19 254.12 25.89 251.71   Q 25.46 251.47 25.48 250.98   C 25.55 248.34 29.06 247.53 30.99 247.02   Z"
          id="path218" />
        <path
          fill="#648636"
          d="   M 396.94 249.07   Q 406.97 251.77 408.04 262.25   C 408.97 271.45 404.98 279.65 403.25 287.98   C 401.22 297.76 405.65 306.93 407.99 316.23   Q 411.93 331.84 413.47 347.31   Q 414.37 356.27 406.11 359.04   Q 398.79 361.49 390.50 360.95   Q 383.50 360.49 376.62 358.66   L 405.99 353.77   A 2.57 2.56 -9.1 0 0 408.10 350.87   L 397.12 275.96   Q 399.51 272.36 401.92 268.79   Q 404.63 264.78 404.81 262.11   Q 405.09 258.02 402.24 254.51   Q 400.70 252.59 396.94 249.07   Z"
          id="path219" />
        <path
          fill="#465f35"
          d="   M 96.32 250.32   Q 96.40 265.55 95.97 269.75   Q 95.67 272.76 98.85 273.55   Q 99.85 273.79 98.85 274.03   L 90.76 275.92   C 84.55 268.73 91.22 256.53 96.32 250.32   Z"
          id="path220" />
        <path
          fill="#ffffff"
          d="   M 360.52 276.32   Q 359.67 269.86 358.49 262.71   Q 357.89 259.12 361.52 258.90   L 387.49 257.32   Q 390.10 257.17 390.48 259.75   L 403.54 347.21   A 2.72 2.72 0.0 0 1 401.29 350.29   L 375.83 354.44   Q 373.85 354.76 372.93 352.97   L 360.32 328.36   Q 359.58 326.91 359.77 328.53   L 362.70 353.52   A 2.64 2.64 0.0 0 1 360.22 356.47   L 334.85 357.82   A 2.82 2.81 -4.9 0 1 331.90 355.34   L 321.44 266.79   A 2.81 2.81 0.0 0 1 323.97 263.66   L 350.66 261.12   A 2.62 2.62 0.0 0 1 353.28 262.60   L 359.95 276.49   Q 360.76 278.19 360.52 276.32   Z"
          id="path221" />
        <path
          fill="#b5cf61"
          d="   M 53.66 272.10   Q 54.52 268.64 55.84 267.18   Q 61.14 259.64 68.25 258.01   Q 69.98 257.62 70.34 258.82   A 1.23 1.22 59.6 0 1 70.02 260.06   Q 63.18 266.57 56.69 272.46   Q 54.89 274.08 53.66 272.10   Z"
          id="path222" />
        <path
          fill="#465f35"
          d="   M 180.07 263.46   C 173.58 266.46 168.14 270.08 163.55 275.47   Q 162.98 276.13 162.78 275.29   L 159.62 262.48   Q 159.50 261.99 160.00 262.02   L 179.96 262.92   Q 181.13 262.97 180.07 263.46   Z"
          id="path223" />
        <path
          fill="#ffffff"
          d="   M 199.6077 360.8640   A 48.32 43.46 87.5 0 1 154.0814 314.4857   A 48.32 43.46 87.5 0 1 195.3923 264.3160   A 48.32 43.46 87.5 0 1 240.9186 310.6943   A 48.32 43.46 87.5 0 1 199.6077 360.8640   Z   M 197.0759 330.0198   A 17.98 13.42 90.3 0 0 210.5898 312.1103   A 17.98 13.42 90.3 0 0 197.2641 294.0602   A 17.98 13.42 90.3 0 0 183.7502 311.9697   A 17.98 13.42 90.3 0 0 197.0759 330.0198   Z"
          id="path224" />
        <path
          fill="#ffffff"
          d="   M 111.75 306.36   L 95.24 309.75   A 2.86 2.85 76.2 0 1 91.93 307.74   L 85.38 284.86   Q 84.45 281.60 87.75 280.81   L 152.91 265.39   Q 156.05 264.65 156.80 267.78   L 159.62 279.60   Q 159.76 280.18 159.43 280.68   Q 154.73 287.80 152.29 295.86   Q 152.11 296.43 151.54 296.57   L 142.09 299.00   A 0.56 0.55 76.3 0 0 141.69 299.67   L 157.02 359.04   A 2.57 2.56 74.2 0 1 155.30 362.13   L 131.27 369.50   A 2.78 2.78 0.0 0 1 127.76 367.52   L 112.62 306.91   Q 112.45 306.22 111.75 306.36   Z"
          id="path225" />
        <path
          fill="#ffffff"
          d="   M 265.84 297.53   Q 266.28 301.06 266.54 297.51   Q 267.42 285.34 267.84 274.12   A 0.93 0.93 0.0 0 1 268.70 273.23   L 288.32 271.79   Q 288.91 271.74 289.01 272.32   L 295.83 309.88   Q 296.28 312.36 296.58 309.86   L 301.35 270.74   Q 301.43 270.13 302.04 270.16   L 317.30 271.02   A 0.76 0.75 88.2 0 1 318.01 271.70   Q 319.81 289.90 321.83 305.08   Q 322.35 309.02 321.82 313.08   Q 318.79 336.27 316.06 359.07   A 0.97 0.96 -87.9 0 1 315.15 359.92   L 285.54 361.17   Q 285.13 361.19 285.07 360.79   L 282.35 342.71   Q 282.31 342.46 282.07 342.49   Q 281.92 342.51 281.91 342.67   Q 281.33 351.37 280.51 359.54   A 0.57 0.56 -88.7 0 1 279.99 360.05   L 252.25 361.65   A 0.50 0.49 -7.2 0 1 251.73 361.25   Q 248.40 342.90 245.05 324.67   Q 244.49 321.64 244.70 319.15   Q 246.26 300.82 238.82 286.72   Q 237.39 284.02 236.97 281.25   Q 236.31 276.99 235.39 272.83   A 0.64 0.63 82.2 0 1 235.97 272.06   L 261.28 270.63   A 0.39 0.38 83.3 0 1 261.68 270.95   Q 264.26 285.18 265.84 297.53   Z"
          id="path226" />
        <path
          fill="#0a0607"
          d="   M 61.3203 283.6911   A 4.77 2.46 113.6 0 1 60.9757 278.3351   A 4.77 2.46 113.6 0 1 65.1397 274.9489   A 4.77 2.46 113.6 0 1 65.4843 280.3049   A 4.77 2.46 113.6 0 1 61.3203 283.6911   Z   M 62.42 283.40   A 1.01 0.99 18.6 0 0 63.27 282.99   Q 65.55 279.84 65.39 275.87   A 0.57 0.56 -17.5 0 0 64.52 275.42   Q 60.42 278.06 61.38 282.63   Q 61.53 283.36 62.42 283.40   Z"
          id="path227" />
        <path
          fill="#cc000e"
          d="   M 62.42 283.40   Q 61.53 283.36 61.38 282.63   Q 60.42 278.06 64.52 275.42   A 0.57 0.56 -17.5 0 1 65.39 275.87   Q 65.55 279.84 63.27 282.99   A 1.01 0.99 18.6 0 1 62.42 283.40   Z"
          id="path228" />
        <path
          fill="#648636"
          d="   M 52.56 277.32   Q 55.84 288.04 59.04 298.89   Q 63.66 314.57 65.02 317.14   Q 72.16 330.53 88.11 333.12   A 0.90 0.88 -1.9 0 1 88.82 333.77   Q 92.74 348.69 96.75 365.52   Q 98.86 374.38 101.61 378.90   C 107.41 388.46 117.28 393.89 128.32 393.55   Q 133.47 393.39 142.07 390.65   Q 155.94 386.23 169.33 382.21   Q 171.81 381.47 174.06 380.07   Q 174.48 379.81 174.95 379.96   Q 200.59 388.02 225.92 378.17   Q 226.41 377.98 226.78 378.35   Q 237.04 388.64 251.88 387.52   Q 261.37 386.81 271.37 386.32   C 275.40 386.12 279.14 387.18 283.28 387.01   Q 303.71 386.18 321.80 385.31   Q 328.12 385.01 334.06 381.64   Q 335.78 380.66 337.50 380.56   Q 351.80 379.75 364.54 379.15   Q 367.48 379.02 370.48 378.40   C 373.70 377.74 377.02 377.45 380.34 376.95   Q 398.32 374.28 410.16 372.19   Q 424.30 369.71 431.52 357.55   Q 432.23 356.35 433.60 353.21   Q 434.51 351.11 435.68 348.86   Q 436.31 360.71 429.34 369.61   Q 424.87 375.32 418.46 378.36   Q 414.35 380.31 405.37 381.76   Q 392.07 383.90 376.74 386.18   Q 373.36 386.69 370.57 387.22   Q 367.55 387.81 364.36 387.95   Q 351.41 388.54 337.74 389.33   Q 335.89 389.44 333.92 390.54   Q 328.22 393.76 320.75 394.07   Q 302.67 394.84 283.80 395.68   Q 280.56 395.83 277.38 395.42   Q 273.18 394.87 270.59 395.02   Q 260.79 395.56 251.00 396.13   Q 236.62 396.96 226.65 387.12   Q 226.29 386.76 225.81 386.95   Q 200.66 396.83 175.07 388.76   Q 174.58 388.61 174.14 388.86   Q 171.33 390.42 167.96 391.43   Q 151.17 396.44 135.66 401.18   C 129.33 403.12 121.86 402.61 115.73 399.91   Q 101.70 393.72 97.83 378.25   Q 93.41 360.61 88.87 342.64   A 1.01 1.01 0.0 0 0 88.04 341.88   Q 74.00 339.79 66.22 328.00   Q 63.65 324.09 60.28 312.28   Q 56.74 299.87 53.30 288.25   Q 51.81 283.22 52.56 277.32   Z"
          id="path229" />
        <path
          fill="#b5cf61"
          d="   M 406.87 306.54   C 405.98 302.43 405.86 297.82 405.31 293.60   C 404.75 289.23 407.54 283.30 409.69 279.61   A 0.53 0.53 0.0 0 1 410.48 279.46   Q 411.10 279.96 411.06 280.76   Q 410.29 294.43 408.86 307.31   A 0.62 0.61 -77.2 0 1 408.05 307.83   Q 407.08 307.50 406.87 306.54   Z"
          id="path230" />
        <path
          fill="#0a0607"
          d="   M 197.0759 330.0198   A 17.98 13.42 90.3 0 1 183.7502 311.9697   A 17.98 13.42 90.3 0 1 197.2641 294.0602   A 17.98 13.42 90.3 0 1 210.5898 312.1103   A 17.98 13.42 90.3 0 1 197.0759 330.0198   Z   M 197.1116 325.9399   A 13.86 9.20 90.2 0 0 206.3599 312.1121   A 13.86 9.20 90.2 0 0 197.2084 298.2201   A 13.86 9.20 90.2 0 0 187.9601 312.0479   A 13.86 9.20 90.2 0 0 197.1116 325.9399   Z"
          id="path231" />
        <ellipse
          fill="#465f35"
          cx="0.00"
          cy="0.00"
          transform="translate(197.16,312.08) rotate(90.2)"
          rx="13.86"
          ry="9.20"
          id="ellipse231" />
        <path
          fill="#465f35"
          d="   M 150.21 314.31   Q 150.27 315.80 149.85 314.37   Q 148.27 308.92 146.78 302.69   A 0.64 0.64 0.0 0 1 147.25 301.92   L 150.49 301.16   Q 151.03 301.03 150.94 301.58   Q 149.93 307.58 150.21 314.31   Z"
          id="path232" />
        <path
          fill="#648636"
          d="   M 118.38 347.63   Q 113.56 341.76 112.21 335.51   Q 110.62 328.13 109.02 320.74   C 108.31 317.46 106.38 314.92 104.72 311.94   L 108.94 311.09   A 0.43 0.42 -12.8 0 1 109.44 311.40   L 118.38 347.63   Z"
          id="path233" />
        <path
          fill="#b5cf61"
          d="   M 70.12 316.92   Q 69.49 315.74 69.05 314.38   Q 68.57 312.87 69.87 313.78   C 74.83 317.27 77.92 322.26 82.72 325.67   Q 84.44 326.88 82.37 326.53   Q 74.53 325.23 70.12 316.92   Z"
          id="path234" />
        <ellipse
          fill="#b5cf61"
          cx="0.00"
          cy="0.00"
          transform="translate(102.31,319.86) rotate(18.6)"
          rx="3.52"
          ry="1.06"
          id="ellipse234" />
        <path
          fill="#cc000e"
          d="   M 427.19 325.31   Q 425.12 330.65 422.50 325.59   A 2.71 1.94 -2.0 0 1 427.19 325.31   Z"
          id="path235" />
        <path
          fill="#0a0607"
          d="   M 427.19 325.31   A 2.70 1.93 -2.2 0 1 427.56 326.80   A 2.72 1.95 -2.3 0 1 425.00 328.36   A 2.71 1.94 -2.1 0 1 422.50 325.59   Q 425.12 330.65 427.19 325.31   Z"
          id="path236" />
        <path
          fill="#465f35"
          d="   M 327.30 351.70   Q 324.18 351.93 321.25 350.18   L 323.94 328.55   Q 324.21 326.43 324.47 328.55   L 327.30 351.70   Z"
          id="path237" />
        <path
          fill="#465f35"
          d="   M 244.93 346.87   Q 240.03 349.98 235.25 353.01   Q 230.69 355.90 226.04 355.23   Q 236.78 345.35 241.82 332.52   Q 242.02 332.01 242.13 332.54   L 244.93 346.87   Z"
          id="path238" />
        <path
          fill="#465f35"
          d="   M 168.50 354.08   Q 165.06 355.12 159.93 354.62   L 156.38 339.97   Q 155.92 338.05 156.85 339.79   Q 160.98 347.51 168.50 354.08   Z"
          id="path239" />
        <path
          fill="#830004"
          d="   M 101.3877 347.7364   A 2.83 2.07 -2.3 0 1 98.6431 349.9183   A 2.83 2.07 -2.3 0 1 95.7323 347.9636   A 2.83 2.07 -2.3 0 1 98.4769 345.7817   A 2.83 2.07 -2.3 0 1 101.3877 347.7364   Z   M 100.3651 347.7042   A 1.90 1.48 -4.1 0 0 98.3642 346.3638   A 1.90 1.48 -4.1 0 0 96.5749 347.9758   A 1.90 1.48 -4.1 0 0 98.5758 349.3162   A 1.90 1.48 -4.1 0 0 100.3651 347.7042   Z"
          id="path240" />
        <ellipse
          fill="#cc000e"
          cx="0.00"
          cy="0.00"
          transform="translate(98.47,347.84) rotate(-4.1)"
          rx="1.90"
          ry="1.48"
          id="ellipse240" />
        <path
          fill="#648636"
          d="   M 244.93 346.87   L 248.25 365.43   A 0.73 0.72 -6.7 0 0 249.01 366.02   L 266.54 364.94   Q 264.93 366.23 260.30 369.05   C 254.04 372.87 243.79 374.94 238.14 369.28   Q 236.38 367.51 234.89 365.23   C 232.32 361.29 226.66 360.92 222.25 361.27   Q 218.67 361.54 215.00 361.64   Q 221.27 358.86 226.04 355.23   Q 230.69 355.90 235.25 353.01   Q 240.03 349.98 244.93 346.87   Z"
          id="path241" />
        <path
          fill="#b5cf61"
          d="   M 414.31 362.45   Q 414.87 361.11 416.16 360.43   C 421.32 357.73 427.13 354.62 430.24 349.76   A 0.54 0.54 0.0 0 1 431.22 349.91   C 431.55 351.14 430.83 351.62 430.11 352.43   Q 424.23 359.10 417.48 364.17   Q 415.61 365.58 413.25 365.52   Q 412.28 365.50 412.84 364.71   L 413.83 363.32   Q 414.12 362.91 414.31 362.45   Z"
          id="path242" />
        <path
          fill="#648636"
          d="   M 321.25 350.18   Q 324.18 351.93 327.30 351.70   L 327.79 356.44   L 320.37 357.15   L 321.25 350.18   Z"
          id="path243" />
        <path
          fill="#0a0607"
          d="   M 74.46 373.22   Q 71.82 382.11 64.26 383.49   C 54.77 385.22 42.47 378.37 45.82 367.06   Q 49.91 359.14 59.29 356.61   Q 65.40 354.96 73.13 353.44   Q 74.76 353.12 76.20 351.09   Q 76.45 350.74 76.82 350.96   Q 77.93 351.60 79.23 351.87   A 0.26 0.25 -65.3 0 1 79.38 352.28   Q 76.55 355.77 76.55 357.25   Q 76.55 365.63 74.46 373.22   Z   M 52.37 362.86   C 49.60 364.92 46.99 368.84 48.02 372.44   C 49.19 376.56 52.85 379.73 57.04 380.70   Q 69.06 383.47 72.15 371.71   Q 73.72 365.71 74.13 356.40   Q 74.16 355.88 73.64 355.98   C 66.51 357.43 58.38 358.38 52.37 362.86   Z"
          id="path244" />
        <path
          fill="#648636"
          d="   M 168.50 354.08   Q 182.03 365.46 200.77 364.79   Q 188.97 368.67 178.36 367.41   Q 174.86 367.00 161.27 364.65   Q 162.56 361.20 159.93 354.62   Q 165.06 355.12 168.50 354.08   Z"
          id="path245" />
        <path
          fill="#94c11f"
          d="   M 48.02 372.44   C 46.99 368.84 49.60 364.92 52.37 362.86   C 58.38 358.38 66.51 357.43 73.64 355.98   Q 74.16 355.88 74.13 356.40   Q 73.72 365.71 72.15 371.71   Q 69.06 383.47 57.04 380.70   C 52.85 379.73 49.19 376.56 48.02 372.44   Z   M 64.89 359.34   Q 59.67 360.15 57.93 363.08   Q 56.46 365.54 59.30 365.22   Q 64.18 364.67 68.21 361.79   A 1.21 1.21 0.0 0 0 67.97 359.68   Q 66.52 359.09 64.89 359.34   Z   M 57.0502 370.9679   A 2.37 2.11 -34.2 0 0 53.9040 370.5549   A 2.37 2.11 -34.2 0 0 53.1298 373.6321   A 2.37 2.11 -34.2 0 0 56.2760 374.0451   A 2.37 2.11 -34.2 0 0 57.0502 370.9679   Z"
          id="path246" />
        <path
          fill="#b5cf61"
          d="   M 64.89 359.34   Q 66.52 359.09 67.97 359.68   A 1.21 1.21 0.0 0 1 68.21 361.79   Q 64.18 364.67 59.30 365.22   Q 56.46 365.54 57.93 363.08   Q 59.67 360.15 64.89 359.34   Z"
          id="path247" />
        <path
          fill="#0a0607"
          d="   M 490.12 376.00   Q 488.65 383.06 482.68 386.97   Q 476.63 390.94 471.04 389.47   C 464.16 387.66 459.78 379.14 456.64 372.92   C 455.09 369.44 454.74 366.93 450.70 364.75   Q 449.58 364.15 450.53 363.31   L 451.10 362.81   Q 451.86 362.14 452.72 362.66   Q 455.17 364.13 458.31 363.44   Q 466.77 361.60 473.09 361.61   C 481.76 361.63 491.00 365.97 490.12 376.00   Z   M 470.99 363.69   Q 464.35 364.36 456.10 365.72   Q 455.61 365.80 455.82 366.25   Q 458.68 372.31 461.88 378.19   C 464.77 383.50 469.62 388.88 476.29 387.34   C 482.62 385.89 489.21 379.76 487.88 372.70   C 486.50 365.38 477.30 363.05 470.99 363.69   Z"
          id="path248" />
        <path
          fill="#94c11f"
          d="   M 470.99 363.69   C 477.30 363.05 486.50 365.38 487.88 372.70   C 489.21 379.76 482.62 385.89 476.29 387.34   C 469.62 388.88 464.77 383.50 461.88 378.19   Q 458.68 372.31 455.82 366.25   Q 455.61 365.80 456.10 365.72   Q 464.35 364.36 470.99 363.69   Z   M 475.83 365.45   C 472.28 364.25 466.95 363.65 465.31 367.92   Q 465.09 368.48 465.36 369.02   C 467.09 372.44 474.87 372.63 478.08 372.18   A 2.18 2.17 -15.2 0 0 479.80 369.19   Q 478.66 366.40 475.83 365.45   Z"
          id="path249" />
        <path
          fill="#b5cf61"
          d="   M 465.31 367.92   C 466.95 363.65 472.28 364.25 475.83 365.45   Q 478.66 366.40 479.80 369.19   A 2.18 2.17 -15.2 0 1 478.08 372.18   C 474.87 372.63 467.09 372.44 465.36 369.02   Q 465.09 368.48 465.31 367.92   Z"
          id="path250" />
        <path
          fill="#830004"
          d="   M 371.5952 367.5564   A 7.12 4.32 -17.1 0 1 366.0603 373.7790   A 7.12 4.32 -17.1 0 1 357.9848 371.7436   A 7.12 4.32 -17.1 0 1 363.5197 365.5210   A 7.12 4.32 -17.1 0 1 371.5952 367.5564   Z   M 370.7455 367.6948   A 6.18 3.45 -16.5 0 0 363.8401 366.1421   A 6.18 3.45 -16.5 0 0 358.8945 371.2052   A 6.18 3.45 -16.5 0 0 365.7999 372.7579   A 6.18 3.45 -16.5 0 0 370.7455 367.6948   Z"
          id="path251" />
        <ellipse
          fill="#cc000e"
          cx="0.00"
          cy="0.00"
          transform="translate(364.82,369.45) rotate(-16.5)"
          rx="6.18"
          ry="3.45"
          id="ellipse251" />
        <path
          fill="#830004"
          d="   M 57.0502 370.9679   A 2.37 2.11 -34.2 0 1 56.2760 374.0451   A 2.37 2.11 -34.2 0 1 53.1298 373.6321   A 2.37 2.11 -34.2 0 1 53.9040 370.5549   A 2.37 2.11 -34.2 0 1 57.0502 370.9679   Z   M 55.66 370.81   Q 53.70 370.43 53.71 372.57   Q 53.71 373.59 54.72 373.70   C 56.01 373.85 56.67 372.31 56.20 371.24   A 0.75 0.73 82.9 0 0 55.66 370.81   Z"
          id="path253" />
        <path
          fill="#830004"
          d="   M 165.3566 372.2308   A 2.85 2.00 -2.8 0 1 162.6077 374.3676   A 2.85 2.00 -2.8 0 1 159.6634 372.5092   A 2.85 2.00 -2.8 0 1 162.4123 370.3724   A 2.85 2.00 -2.8 0 1 165.3566 372.2308   Z   M 164.3482 372.2924   A 1.89 1.57 2.5 0 0 162.5285 370.6415   A 1.89 1.57 2.5 0 0 160.5718 372.1276   A 1.89 1.57 2.5 0 0 162.3915 373.7785   A 1.89 1.57 2.5 0 0 164.3482 372.2924   Z"
          id="path254" />
        <path
          fill="#cc000e"
          d="   M 55.66 370.81   A 0.75 0.73 82.9 0 1 56.20 371.24   C 56.67 372.31 56.01 373.85 54.72 373.70   Q 53.71 373.59 53.71 372.57   Q 53.70 370.43 55.66 370.81   Z"
          id="path255" />
        <ellipse
          fill="#cc000e"
          cx="0.00"
          cy="0.00"
          transform="translate(162.46,372.21) rotate(2.5)"
          rx="1.89"
          ry="1.57"
          id="ellipse255" />
        <path
          fill="#b5cf61"
          d="   M 214.41 375.51   A 1.18 1.18 0.0 0 1 215.57 376.16   Q 216.58 378.18 212.73 379.22   A 3.13 3.05 -53.9 0 1 212.08 379.33   Q 200.76 379.92 188.05 379.21   A 0.69 0.68 -87.9 0 1 187.40 378.50   Q 187.41 378.14 187.72 377.94   Q 189.69 376.69 191.81 376.64   Q 203.65 376.34 214.41 375.51   Z"
          id="path256" />
        <path
          fill="#b5cf61"
          d="   M 233.22 376.75   C 238.27 377.26 242.93 379.15 246.86 382.43   A 0.55 0.55 0.0 0 1 246.55 383.40   C 244.82 383.55 242.96 383.80 241.30 383.13   Q 236.42 381.13 232.79 377.69   Q 231.63 376.59 233.22 376.75   Z"
          id="path257" />
        <path
          fill="#b5cf61"
          d="   M 327.66 379.14   C 324.18 383.57 316.35 382.59 311.40 382.45   A 0.47 0.47 0.0 0 1 311.00 381.75   L 311.17 381.45   A 1.53 1.52 -75.7 0 1 312.46 380.68   Q 319.66 380.52 327.13 378.36   Q 328.60 377.93 327.66 379.14   Z"
          id="path258" />
        <path
          fill="#b5cf61"
          d="   M 111.19 381.25   Q 118.75 382.24 126.50 385.95   Q 126.70 386.05 126.81 386.23   Q 127.19 386.83 126.49 386.90   Q 117.37 387.83 110.73 381.70   A 2.55 2.53 76.6 0 0 109.86 381.16   Q 109.14 380.90 108.58 380.40   Q 107.93 379.83 108.79 379.82   Q 109.54 379.81 109.95 380.47   Q 110.39 381.15 111.19 381.25   Z"
          id="path259" />
        <path
          fill="#0a0607"
          d="   M 195.84 434.08   C 195.88 423.18 204.57 416.31 213.07 410.93   Q 219.58 406.81 225.68 402.07   Q 226.17 401.69 226.61 402.14   Q 226.98 402.52 227.34 402.91   Q 227.78 403.40 227.66 404.02   C 224.95 417.86 221.03 431.61 210.20 440.19   Q 207.24 442.53 203.62 442.89   C 198.13 443.44 195.83 438.72 195.84 434.08   Z   M 209.43 416.69   Q 204.58 420.30 201.44 424.46   Q 199.28 427.31 198.76 430.87   C 198.05 434.12 198.37 440.71 203.03 440.49   C 207.71 440.27 212.96 434.61 215.33 430.90   Q 221.67 420.97 224.26 407.16   Q 224.38 406.53 223.86 406.89   L 209.43 416.69   Z"
          id="path260" />
        <path
          fill="#94c11f"
          d="   M 198.76 430.87   Q 200.52 433.37 202.31 432.32   Q 210.42 427.59 215.32 419.67   A 1.76 1.75 -46.3 0 0 215.28 417.76   C 214.60 416.77 213.53 416.50 212.44 416.88   Q 210.73 417.49 209.43 416.69   L 223.86 406.89   Q 224.38 406.53 224.26 407.16   Q 221.67 420.97 215.33 430.90   C 212.96 434.61 207.71 440.27 203.03 440.49   C 198.37 440.71 198.05 434.12 198.76 430.87   Z"
          id="path261" />
        <path
          fill="#b5cf61"
          d="   M 209.43 416.69   Q 210.73 417.49 212.44 416.88   C 213.53 416.50 214.60 416.77 215.28 417.76   A 1.76 1.75 -46.3 0 1 215.32 419.67   Q 210.42 427.59 202.31 432.32   Q 200.52 433.37 198.76 430.87   Q 199.28 427.31 201.44 424.46   Q 204.58 420.30 209.43 416.69   Z"
          id="path262" />
      </svg>